<svg xmlns="http://www.w3.org/2000/svg" xmlns:xlink="http://www.w3.org/1999/xlink" xmlns:lucid="lucid" width="2118.01" height="1409"><g transform="translate(571.0000291663132 -258)" lucid:page-tab-id="0_0"><path d="M-1000 0h2500v2000h-2500z" fill="#fff"/><path d="M-220 286a6 6 0 0 1 6-6h328a6 6 0 0 1 6 6v163a6 6 0 0 1-6 6h-328a6 6 0 0 1-6-6z" stroke="#282c33" stroke-width="4" fill="#fff"/><path d="M-220 336.28h340m-340 76.4h340" stroke="#282c33" stroke-width="4" fill="none"/><use xlink:href="#a" transform="matrix(1,0,0,1,-212,288) translate(87.32118055555559 29.96180555555555)"/><use xlink:href="#b" transform="matrix(1,0,0,1,-208,344.27777777777777) translate(0 22.4921875)"/><use xlink:href="#c" transform="matrix(1,0,0,1,-208,344.27777777777777) translate(32.00520833333333 22.4921875)"/><use xlink:href="#b" transform="matrix(1,0,0,1,-208,344.27777777777777) translate(0 52.70052083333333)"/><use xlink:href="#d" transform="matrix(1,0,0,1,-208,344.27777777777777) translate(32.00520833333333 52.70052083333333)"/><path d="M380 606a6 6 0 0 1 6-6h208a6 6 0 0 1 6 6v148a6 6 0 0 1-6 6H386a6 6 0 0 1-6-6z" stroke="#282c33" stroke-width="4" fill="#fff"/><path d="M380 656.28h220m-220 53.7h220" stroke="#282c33" stroke-width="4" fill="none"/><use xlink:href="#e" transform="matrix(1,0,0,1,388,608) translate(37.98958333333336 29.96180555555555)"/><path d="M-349 1002.42a6 6 0 0 1 6-6h188a6 6 0 0 1 6 6v133a6 6 0 0 1-6 6h-188a6 6 0 0 1-6-6z" stroke="#282c33" stroke-width="4" fill="#fff"/><path d="M-349 1052.7h200m-200 46.2h200" stroke="#282c33" stroke-width="4" fill="none"/><use xlink:href="#f" transform="matrix(1,0,0,1,-341.0000291663133,1004.4176060768546) translate(49.32638888888891 29.96180555555555)"/><path d="M940 1166a6 6 0 0 1 6-6h208a6 6 0 0 1 6 6v133a6 6 0 0 1-6 6H946a6 6 0 0 1-6-6z" stroke="#282c33" stroke-width="4" fill="#fff"/><path d="M940 1216.28h220m-220 46.2h220" stroke="#282c33" stroke-width="4" fill="none"/><use xlink:href="#g" transform="matrix(1,0,0,1,948,1168) translate(27.321180555555586 29.96180555555555)"/><path d="M1200 1446a6 6 0 0 1 6-6h228a6 6 0 0 1 6 6v133a6 6 0 0 1-6 6h-228a6 6 0 0 1-6-6z" stroke="#282c33" stroke-width="4" fill="#fff"/><path d="M1200 1496.28h240m-240 46.2h240" stroke="#282c33" stroke-width="4" fill="none"/><use xlink:href="#h" transform="matrix(1,0,0,1,1208,1448) translate(58.657986111111136 29.96180555555555)"/><path d="M160 1286a6 6 0 0 1 6-6h188a6 6 0 0 1 6 6v133a6 6 0 0 1-6 6H166a6 6 0 0 1-6-6z" stroke="#282c33" stroke-width="4" fill="#fff"/><path d="M160 1336.28h200m-200 46.2h200" stroke="#282c33" stroke-width="4" fill="none"/><use xlink:href="#i" transform="matrix(1,0,0,1,168.0000000000001,1288) translate(17.321180555555586 29.96180555555555)"/><path d="M360 826a6 6 0 0 1 6-6h248a6 6 0 0 1 6 6v133a6 6 0 0 1-6 6H366a6 6 0 0 1-6-6z" stroke="#282c33" stroke-width="4" fill="#fff"/><path d="M360 876.28h260m-260 46.2h260" stroke="#282c33" stroke-width="4" fill="none"/><use xlink:href="#j" transform="matrix(1,0,0,1,368,828) translate(68.65798611111114 29.96180555555555)"/><path d="M355.26 678.02V682H3.34V678zM-48.02 660.7h-3.95V459h3.95z" stroke="#3a414a" stroke-width=".05" fill="#3a414a"/><path d="M-48.02 459.05h-3.95V457h3.95z" fill="#3a414a"/><path stroke="#3a414a" stroke-width=".05" fill="#3a414a"/><path d="M371.53 680l-14.27 4.63v-9.26z" fill="#3a414a"/><path d="M377.92 680l-22.63 7.35v-14.7zm-18.68 1.92l5.9-1.92-5.9-1.92z" stroke="#3a414a" stroke-width=".05" fill="#3a414a"/><use xlink:href="#k" transform="matrix(1,0,0,1,-103.34201388888889,660.7028845770648) translate(0 18.50043402777778)"/><use xlink:href="#l" transform="matrix(1,0,0,1,-103.34201388888889,660.7028845770648) translate(80.01302083333334 18.50043402777778)"/><use xlink:href="#m" transform="matrix(1,0,0,1,-122.54383680555554,491.56284437655125) translate(0 22.385525173611107)"/><use xlink:href="#n" transform="matrix(1,0,0,1,318.00415699838646,645.5399305555557) translate(0 22.385525173611107)"/><path d="M1120 806a6 6 0 0 1 6-6h228a6 6 0 0 1 6 6v133a6 6 0 0 1-6 6h-228a6 6 0 0 1-6-6z" stroke="#282c33" stroke-width="4" fill="#fff"/><path d="M1120 856.28h240m-240 46.2h240" stroke="#282c33" stroke-width="4" fill="none"/><use xlink:href="#o" transform="matrix(1,0,0,1,1128,808) translate(69.32638888888891 29.96180555555555)"/><path d="M-520 706a6 6 0 0 1 6-6h188a6 6 0 0 1 6 6v133a6 6 0 0 1-6 6h-188a6 6 0 0 1-6-6z" stroke="#282c33" stroke-width="4" fill="#fff"/><path d="M-520 756.28h200m-200 46.2h200" stroke="#282c33" stroke-width="4" fill="none"/><use xlink:href="#p" transform="matrix(1,0,0,1,-512,708) translate(27.989583333333357 29.96180555555555)"/><path d="M490 816v-31.26" stroke="#3a414a" stroke-width="4" fill="none"/><path d="M491.98 818h-3.96v-2.05h3.96z" stroke="#3a414a" stroke-width=".05" fill="#3a414a"/><path d="M490 768.47l4.63 14.27h-9.26z" stroke="#3a414a" stroke-width="4" fill="#3a414a"/><path d="M500 1166a6 6 0 0 1 6-6h328a6 6 0 0 1 6 6v133a6 6 0 0 1-6 6H506a6 6 0 0 1-6-6z" stroke="#282c33" stroke-width="4" fill="#fff"/><path d="M500 1216.28h340m-340 46.2h340" stroke="#282c33" stroke-width="4" fill="none"/><use xlink:href="#q" transform="matrix(1,0,0,1,508,1168) translate(65.98437500000004 29.96180555555555)"/><path d="M520 1506a6 6 0 0 1 6-6h288a6 6 0 0 1 6 6v133a6 6 0 0 1-6 6H526a6 6 0 0 1-6-6z" stroke="#282c33" stroke-width="4" fill="#fff"/><path d="M520 1556.28h300m-300 46.2h300" stroke="#282c33" stroke-width="4" fill="none"/><use xlink:href="#r" transform="matrix(1,0,0,1,528,1508) translate(35.31597222222227 29.96180555555555)"/><path d="M671.98 1496H668v-80.9H672zm0-106.1H668v-60.16H672z" stroke="#3a414a" stroke-width=".05" fill="#3a414a"/><path d="M671.98 1498H668v-2.05H672z" fill="#3a414a"/><path stroke="#3a414a" stroke-width=".05" fill="#3a414a"/><path d="M674.63 1327.74h-9.26l4.63-14.27z" fill="#3a414a"/><path d="M677.35 1329.7h-14.7l7.35-22.62zm-9.27-3.94h3.84l-1.92-5.9z" stroke="#3a414a" stroke-width=".05" fill="#3a414a"/><use xlink:href="#s" transform="matrix(1,0,0,1,449.96419270833326,1389.9131944444443) translate(0 18.50043402777778)"/><use xlink:href="#t" transform="matrix(1,0,0,1,449.96419270833326,1389.9131944444443) translate(40.006510416666664 18.50043402777778)"/><use xlink:href="#u" transform="matrix(1,0,0,1,449.96419270833326,1389.9131944444443) translate(146.69053819444446 18.50043402777778)"/><use xlink:href="#v" transform="matrix(1,0,0,1,449.96419270833326,1389.9131944444443) translate(173.3615451388889 18.50043402777778)"/><use xlink:href="#w" transform="matrix(1,0,0,1,449.96419270833326,1389.9131944444443) translate(306.7165798611112 18.50043402777778)"/><use xlink:href="#n" transform="matrix(1,0,0,1,678,1468.5524445273677) translate(0 22.385525173611107)"/><use xlink:href="#n" transform="matrix(1,0,0,1,641.2287858829869,1308.5803957652886) translate(0 22.385525173611107)"/><path d="M1002.7 1576.93l-.1 1.17-.28 1.22-.48 1.16-.65 1.07-.83.95-.95.8-1.07.67-1.15.48-1.22.3-1.17.08H844.75v-3.95h149.9l.72-.05.6-.15.6-.24.53-.33.47-.4.4-.48.34-.54.25-.58.15-.62.06-.7v-29.9h3.95zm0-55.22h-3.94V1309h3.95z" stroke="#3a414a" stroke-width=".05" fill="#3a414a"/><path d="M1002.7 1309.05h-3.94V1307h3.95z" fill="#3a414a"/><path stroke="#3a414a" stroke-width=".05" fill="#3a414a"/><path d="M842.74 1587.5l-14.27-4.64 14.27-4.64z" fill="#3a414a"/><path d="M844.7 1590.2l-22.62-7.34 22.63-7.36zm-9.84-7.34l5.9 1.9v-3.82z" stroke="#3a414a" stroke-width=".05" fill="#3a414a"/><use xlink:href="#x" transform="matrix(1,0,0,1,934.0535783270061,1521.706950953931) translate(0 18.50043402777778)"/><use xlink:href="#y" transform="matrix(1,0,0,1,934.0535783270061,1521.706950953931) translate(40.006510416666664 18.50043402777778)"/><use xlink:href="#z" transform="matrix(1,0,0,1,934.0535783270061,1521.706950953931) translate(80.01302083333333 18.50043402777778)"/><use xlink:href="#A" transform="matrix(1,0,0,1,976.7284915214505,1333.0448669800323) translate(0 22.200520833333336)"/><use xlink:href="#A" transform="matrix(1,0,0,1,863.3033633817811,1548.6480680973182) translate(0 22.200520833333336)"/><path d="M671.98 1135.26H668v-60.17H672zm-103.34-85.35h-3.95V969h3.94z" stroke="#3a414a" stroke-width=".05" fill="#3a414a"/><path d="M670 1151.53l-4.63-14.27h9.26z" fill="#3a414a"/><path d="M670 1157.92l-7.35-22.63h14.7zm-1.92-18.68l1.92 5.9 1.92-5.9z" stroke="#3a414a" stroke-width=".05" fill="#3a414a"/><path d="M568.64 969.05h-3.95V967h3.94z" fill="#3a414a"/><path stroke="#3a414a" stroke-width=".05" fill="#3a414a"/><use xlink:href="#B" transform="matrix(1,0,0,1,518.314915963683,1049.9131789883186) translate(0 18.50043402777778)"/><use xlink:href="#C" transform="matrix(1,0,0,1,518.314915963683,1049.9131789883186) translate(80.01302083333334 18.50043402777778)"/><use xlink:href="#m" transform="matrix(1,0,0,1,682.6352549156243,1115.0000001658734) translate(0 22.385525173611107)"/><use xlink:href="#n" transform="matrix(1,0,0,1,542.5264248093105,976.412151265524) translate(0 22.385525173611107)"/><path d="M1314.08 1370.53l1.17.1 1.22.28 1.15.5 1.07.64.94.82.82.95.65 1.08.5 1.15.28 1.22.1 1.17v36.84h-3.95v-36.68l-.06-.7-.15-.62-.24-.6-.33-.52-.4-.48-.5-.4-.52-.34-.6-.24-.6-.15-.7-.06h-9.7v-3.94zm-210.28-3.4l.15.6.24.6.32.53.4.48.5.4.52.34.6.24.6.15.7.06h9.7v3.94h-9.85l-1.18-.1-1.22-.28-1.15-.5-1.07-.64-.95-.82-.82-.95-.64-1.08-.48-1.15-.3-1.22-.1-1.17.02-57.58h3.94v57.42z" stroke="#3a414a" stroke-width=".05" fill="#3a414a"/><path d="M1103.74 1309.05h-3.94V1307h3.94z" fill="#3a414a"/><path stroke="#3a414a" stroke-width=".05" fill="#3a414a"/><path d="M1320 1431.53l-4.63-14.27h9.27z" fill="#3a414a"/><path d="M1320 1437.92l-7.35-22.63h14.7zm-1.92-18.68l1.92 5.9 1.92-5.9z" stroke="#3a414a" stroke-width=".05" fill="#3a414a"/><use xlink:href="#D" transform="matrix(1,0,0,1,1117.5362590875839,1359.913181999837) translate(0 18.50043402777778)"/><use xlink:href="#E" transform="matrix(1,0,0,1,1117.5362590875839,1359.913181999837) translate(80.01302083333334 18.50043402777778)"/><use xlink:href="#n" transform="matrix(1,0,0,1,1077.6336075848903,1313.378434119814) translate(0 22.385525173611107)"/><use xlink:href="#n" transform="matrix(1,0,0,1,1332.6352549156245,1393.2710035725174) translate(0 22.385525173611107)"/><path d="M-23.34 751.78l-271.86 11.38-.17-3.95 272.03-11.38zm399.42-16.7L83.34 747.3v-3.94l292.58-12.24z" stroke="#3a414a" stroke-width=".05" fill="#3a414a"/><path d="M378 734.98l-1.97.1-.16-3.96 2.13-.1z" fill="#3a414a"/><path stroke="#3a414a" stroke-width=".05" fill="#3a414a"/><path d="M-297.1 765.9l-14.43-4.04 14.06-5.23z" fill="#3a414a"/><path d="M-295 768.53l-22.92-6.4 22.3-8.3zm-10.15-6.94l5.98 1.66-.16-3.83z" stroke="#3a414a" stroke-width=".05" fill="#3a414a"/><use xlink:href="#F" transform="matrix(1,0,0,1,-23.341999878677413,734.9829760671377) translate(0 18.50043402777778)"/><path d="M-549 1282.42a6 6 0 0 1 6-6h188a6 6 0 0 1 6 6v133a6 6 0 0 1-6 6h-188a6 6 0 0 1-6-6z" stroke="#282c33" stroke-width="4" fill="#fff"/><path d="M-549 1332.7h200m-200 46.2h200" stroke="#282c33" stroke-width="4" fill="none"/><use xlink:href="#G" transform="matrix(1,0,0,1,-541.0000291663132,1284.4176060768546) translate(49.32638888888891 29.96180555555555)"/><path d="M-149 1282.42a6 6 0 0 1 6-6H45a6 6 0 0 1 6 6v133a6 6 0 0 1-6 6h-188a6 6 0 0 1-6-6z" stroke="#282c33" stroke-width="4" fill="#fff"/><path d="M-149 1332.7H51m-200 46.2H51" stroke="#282c33" stroke-width="4" fill="none"/><use xlink:href="#H" transform="matrix(1,0,0,1,-141.00002916631342,1284.4176060768546) translate(17.321180555555586 29.96180555555555)"/><path d="M309.2 1258.55l-3.55-1.77 60.85-121.7h4.42zM453.6 969.67L383.5 1109.9h-4.42l71-142z" stroke="#3a414a" stroke-width=".05" fill="#3a414a"/><path d="M453.6 969.72l-3.53-1.77.47-.95h4.42z" fill="#3a414a"/><path stroke="#3a414a" stroke-width=".05" fill="#3a414a"/><path d="M310.67 1261.52l-10.53 10.7 2.24-14.84z" fill="#3a414a"/><path d="M314 1260.97l-16.7 16.96 3.53-23.53zm-11 5.52l4.36-4.42-3.43-1.72z" stroke="#3a414a" stroke-width=".05" fill="#3a414a"/><use xlink:href="#I" transform="matrix(1,0,0,1,261.64822168452804,1109.9131920476104) translate(0 18.50043402777778)"/><use xlink:href="#J" transform="matrix(1,0,0,1,261.64822168452804,1109.9131920476104) translate(40.006510416666664 18.50043402777778)"/><use xlink:href="#K" transform="matrix(1,0,0,1,261.64822168452804,1109.9131920476104) translate(173.3615451388889 18.50043402777778)"/><path d="M-226.22 993l-.6-3.9 183.87-27.5h26.68zm582.53-87.17L151.97 936.4h-26.7l230.47-34.48z" stroke="#3a414a" stroke-width=".05" fill="#3a414a"/><path d="M358 905.58l-1.74.26-.58-3.9 2.32-.36z" fill="#3a414a"/><path stroke="#3a414a" stroke-width=".05" fill="#3a414a"/><path d="M-227.8 995.93l-14.8-2.47 13.42-6.7z" fill="#3a414a"/><path d="M-225.45 998.33l-23.47-3.92 21.3-10.62zm-10.83-5.82l6.12 1.04-.57-3.8z" stroke="#3a414a" stroke-width=".05" fill="#3a414a"/><use xlink:href="#I" transform="matrix(1,0,0,1,-58.851764930732415,936.4132194444443) translate(0 18.50043402777778)"/><use xlink:href="#J" transform="matrix(1,0,0,1,-58.851764930732415,936.4132194444443) translate(40.006510416666664 18.50043402777778)"/><use xlink:href="#K" transform="matrix(1,0,0,1,-58.851764930732415,936.4132194444443) translate(173.3615451388889 18.50043402777778)"/><path d="M-437.43 1254.74l-3.56-1.7 26.14-54.8h4.38zm87.35-183.17l-48.4 101.5h-4.37l49.2-103.2z" stroke="#3a414a" stroke-width=".05" fill="#3a414a"/><path d="M-351 1065.6v5.6l-2.67-1.28 2.18-4.56z" fill="#3a414a"/><path stroke="#3a414a" stroke-width=".05" fill="#3a414a"/><path d="M-435.9 1257.7l-10.3 10.88 1.94-14.88z" fill="#3a414a"/><path d="M-432.6 1257.08l-16.36 17.27 3.1-23.6zm-10.86 5.73l4.27-4.5-3.45-1.64z" stroke="#3a414a" stroke-width=".05" fill="#3a414a"/><use xlink:href="#I" transform="matrix(1,0,0,1,-480.0094929094601,1173.0552823756416) translate(0 18.50043402777778)"/><use xlink:href="#L" transform="matrix(1,0,0,1,-480.0094929094601,1173.0552823756416) translate(40.006510416666664 18.50043402777778)"/><use xlink:href="#M" transform="matrix(1,0,0,1,-480.0094929094601,1173.0552823756416) translate(120.01953125 18.50043402777778)"/><path d="M-57 1253.04l-3.57 1.7-33.62-70.5h4.4zm-44.8-93.96h-4.4l-41.72-87.5 3.56-1.7z" stroke="#3a414a" stroke-width=".05" fill="#3a414a"/><path d="M-144.33 1069.92l-2.67 1.27v-5.6l.5-.24z" fill="#3a414a"/><path stroke="#3a414a" stroke-width=".05" fill="#3a414a"/><path d="M-51.8 1268.58l-10.3-10.9 8.36-3.98z" fill="#3a414a"/><path d="M-49.03 1274.35l-16.38-17.27 13.26-6.33zm-9.78-16.04l4.26 4.5-.8-6.14z" stroke="#3a414a" stroke-width=".05" fill="#3a414a"/><use xlink:href="#I" transform="matrix(1,0,0,1,-171.34532326353536,1159.0808255212987) translate(0 18.50043402777778)"/><use xlink:href="#L" transform="matrix(1,0,0,1,-171.34532326353536,1159.0808255212987) translate(40.006510416666664 18.50043402777778)"/><use xlink:href="#M" transform="matrix(1,0,0,1,-171.34532326353536,1159.0808255212987) translate(120.01953125 18.50043402777778)"/><path d="M-518.6 1242.22l.6 1.42-.6 1.4-1.4.6-1.4-.6-.6-1.4.6-1.42 1.4-.58zm0-8.04l.6 1.4-.6 1.43-1.4.6-1.4-.6-.6-1.4.6-1.42 1.4-.6zm0-8.04l.6 1.4-.6 1.43-1.4.58-1.4-.58-.6-1.42.6-1.4 1.4-.6zm0-8.04l.6 1.4-.6 1.42-1.4.6-1.4-.6-.6-1.4.6-1.42 1.4-.6zm0-8.05l.6 1.42-.6 1.4-1.4.6-1.4-.6-.6-1.4.6-1.42 1.4-.58zm0-8.04l.6 1.43-.6 1.4-1.4.6-1.4-.6-.6-1.4.6-1.42 1.4-.57zm0-8.03l.6 1.4-.6 1.43-1.4.58-1.4-.58-.6-1.42.6-1.4 1.4-.6zm0-8.04l.6 1.4-.6 1.43-1.4.58-1.4-.58-.6-1.42.6-1.4 1.4-.6zm0-8.04l.6 1.4-.6 1.4-1.4.6-1.4-.6-.6-1.4.6-1.4 1.4-.6zm0-8.06l.6 1.42-.6 1.4-1.4.6-1.4-.6-.6-1.4.6-1.42 1.4-.58zm0-8.04l.6 1.4-.6 1.43-1.4.58-1.4-.57-.6-1.42.6-1.4 1.4-.6zm0-8.04l.6 1.4-.6 1.43-1.4.57-1.4-.58-.6-1.43.6-1.4 1.4-.6zm0-8.04l.6 1.4-.6 1.43-1.4.58-1.4-.6-.6-1.4.6-1.4 1.4-.6zm0-8.05l.6 1.42-.6 1.4-1.4.6-1.4-.6-.6-1.4.6-1.42 1.4-.6zm0-8.04l.6 1.42-.6 1.4-1.4.6-1.4-.6-.6-1.4.6-1.42 1.4-.58zm0-8.04l.6 1.4-.6 1.42-1.4.58-1.4-.58-.6-1.42.6-1.4 1.4-.6zm0-8.05l.6 1.4-.6 1.43-1.4.58-1.4-.58-.6-1.42.6-1.4 1.4-.6zm0-8.04l.6 1.42-.6 1.4-1.4.6-1.4-.6-.6-1.4.6-1.4 1.4-.6zm0-8.04l.6 1.42-.6 1.4-1.4.6-1.4-.6-.6-1.4.6-1.42 1.4-.58zm0-8.04l.6 1.4-.6 1.43-1.4.6-1.4-.6-.6-1.4.6-1.43 1.4-.6zm0-8.04l.6 1.4-.6 1.43-1.4.6-1.4-.6-.6-1.4.6-1.42 1.4-.6zm0-8.04l.6 1.4-.6 1.42-1.4.6-1.4-.6-.6-1.4.6-1.42 1.4-.6zm0-8.04l.6 1.4-.6 1.42-1.4.6-1.4-.6-.6-1.4.6-1.42 1.4-.6zm6-6l.6 1.4-.6 1.42-1.4.6-1.4-.6-.6-1.4.6-1.42 1.4-.6zm88 0l.6 1.4-.6 1.42-1.4.6-1.4-.6-.6-1.4.6-1.42 1.4-.6zm6-6l.6 1.4-.6 1.42-1.4.6-1.4-.6-.6-1.4.6-1.42 1.4-.6zm0-7.92l.6 1.42-.6 1.4-1.4.6-1.4-.6-.6-1.4.6-1.42 1.4-.58zm0-7.9l.6 1.4-.6 1.42-1.4.6-1.4-.6-.6-1.4.6-1.43 1.4-.6zm0-7.92l.6 1.4-.6 1.43-1.4.57-1.4-.58-.6-1.43.6-1.4 1.4-.6zm0-7.9l.6 1.4-.6 1.42-1.4.58-1.4-.58-.6-1.42.6-1.4 1.4-.6zm0-7.92l.6 1.4-.6 1.42-1.4.6-1.4-.6-.6-1.4.6-1.42 1.4-.6zm0-7.92l.6 1.42-.6 1.4-1.4.6-1.4-.6-.6-1.4.6-1.42 1.4-.58zm0-7.9l.6 1.4-.6 1.42-1.4.6-1.4-.6-.6-1.4.6-1.43 1.4-.57zm0-7.92l.6 1.4-.6 1.43-1.4.58-1.4-.57-.6-1.42.6-1.4 1.4-.6zm0-7.9l.6 1.4-.6 1.42-1.4.58-1.4-.58-.6-1.42.6-1.4 1.4-.6zm0-7.92l.6 1.4-.6 1.42-1.4.6-1.4-.6-.6-1.4.6-1.42 1.4-.6zm0-7.92l.6 1.42-.6 1.4-1.4.6-1.4-.6-.6-1.4.6-1.42 1.4-.58zm0-7.9l.6 1.4-.6 1.42-1.4.6-1.4-.6-.6-1.4.6-1.43 1.4-.58zm0-7.92l.6 1.4-.6 1.43-1.4.58-1.4-.58-.6-1.42.6-1.4 1.4-.6zm0-7.9l.6 1.4-.6 1.42-1.4.58-1.4-.58-.6-1.42.6-1.4 1.4-.6zm0-7.92l.6 1.4-.6 1.43-1.4.58-1.4-.58-.6-1.42.6-1.4 1.4-.6zm0-7.9l.6 1.4-.6 1.4-1.4.6-1.4-.6-.6-1.4.6-1.4 1.4-.6zm0-7.93l.6 1.4-.6 1.42-1.4.6-1.4-.6-.6-1.4.6-1.43 1.4-.6zm0-7.92l.6 1.4-.6 1.43-1.4.6-1.4-.6-.6-1.4.6-1.42 1.4-.6zm0-7.9l.6 1.4-.6 1.42-1.4.58-1.4-.58-.6-1.42.6-1.4 1.4-.6zm0-7.92l.6 1.4-.6 1.42-1.4.6-1.4-.6-.6-1.4.6-1.42 1.4-.6zm0-7.9l.6 1.4-.6 1.4-1.4.6-1.4-.6-.6-1.4.6-1.4 1.4-.6zm0-7.93l.6 1.42-.6 1.4-1.4.6-1.4-.6-.6-1.4.6-1.42 1.4-.58zm0-7.9l.6 1.4-.6 1.42-1.4.6-1.4-.6-.6-1.4.6-1.43 1.4-.58zm0-7.92l.6 1.42-.6 1.42-1.4.58-1.4-.58-.6-1.42.6-1.4 1.4-.6zm0-7.9l.6 1.4-.6 1.43-1.4.58-1.4-.57-.6-1.42.6-1.4 1.4-.6zm0-7.9l.6 1.4-.6 1.4-1.4.6-1.4-.6-.6-1.4.6-1.4 1.4-.6z" fill="#3a414a"/><path d="M-418.02 849.05h-3.96V847h3.96z" fill="#3a414a"/><path stroke="#3a414a" stroke-width=".05" fill="#3a414a"/><path d="M-520 1267.95l-4.63-14.27h9.26z" fill="#3a414a"/><path d="M-520 1274.34l-7.35-22.63h14.7zm-1.92-18.68l1.92 5.9 1.92-5.9z" stroke="#3a414a" stroke-width=".05" fill="#3a414a"/><use xlink:href="#N" transform="matrix(1,0,0,1,-510.0065260636297,1048.1220163658509) translate(0 18.50043402777778)"/><path d="M1483.97 1506.58l-.1 1.17-.28 1.22-.5 1.15-.64 1.07-.82.94-.95.82-1.08.65-1.15.5-1.22.28-1.17.1H1444v-3.95h31.92l.7-.06.62-.15.58-.24.54-.33.48-.4.4-.5.34-.52.24-.6.15-.6.06-.7v-341.34h3.94zm-6.72-635.96l1.22.3 1.15.47 1.07.64.94.82.82.95.65 1.08.5 1.15.28 1.22.1 1.17v261.5h-3.95V878.57l-.06-.7-.15-.62-.24-.6-.33-.52-.4-.48-.5-.4-.53-.34-.58-.24-.6-.15-.72-.05h-91.18v-3.96h91.34z" stroke="#3a414a" stroke-width=".05" fill="#3a414a"/><path d="M1444.05 1514.47H1442v-3.94h2.05z" fill="#3a414a"/><path stroke="#3a414a" stroke-width=".05" fill="#3a414a"/><path d="M1382.74 877.13l-14.27-4.63 14.27-4.63z" fill="#3a414a"/><path d="M1384.7 879.85l-22.62-7.35 22.63-7.35zm-9.84-7.35l5.9 1.92v-3.84z" stroke="#3a414a" stroke-width=".05" fill="#3a414a"/><use xlink:href="#O" transform="matrix(1,0,0,1,1421.9901843750006,1139.9131944444443) translate(0 18.50043402777778)"/><use xlink:href="#P" transform="matrix(1,0,0,1,1460.7129512314395,1514.3273040801892) translate(0 22.385525173611107)"/><use xlink:href="#Q" transform="matrix(1,0,0,1,1398.1708963074927,876.5) translate(0 22.385525173611107)"/><path d="M1045.25 890.62l1.22.3 1.15.47 1.07.64.94.82.82.95.65 1.08.5 1.15.28 1.22.1 1.17v236.84h-3.95V898.58l-.06-.7-.15-.62-.24-.6-.33-.52-.4-.48-.5-.4-.52-.34-.6-.24-.6-.15-.7-.05H624v-3.96h420.08z" stroke="#3a414a" stroke-width=".05" fill="#3a414a"/><path d="M624.05 894.48H622v-3.96h2.05z" fill="#3a414a"/><path stroke="#3a414a" stroke-width=".05" fill="#3a414a"/><path d="M1050 1151.53l-4.63-14.27h9.27z" fill="#3a414a"/><path d="M1050 1157.92l-7.35-22.63h14.7zm-1.92-18.68l1.92 5.9 1.92-5.9z" stroke="#3a414a" stroke-width=".05" fill="#3a414a"/><use xlink:href="#R" transform="matrix(1,0,0,1,789.3213975694446,863.3263888888888) translate(0 18.50043402777778)"/><use xlink:href="#S" transform="matrix(1,0,0,1,789.3213975694446,863.3263888888888) translate(80.01302083333334 18.50043402777778)"/><use xlink:href="#Q" transform="matrix(1,0,0,1,654.1152937780394,896.5000000000001) translate(0 22.385525173611107)"/><use xlink:href="#P" transform="matrix(1,0,0,1,977.4561631944443,1093.2049185596743) translate(0 22.385525173611107)"/><path d="M1241.97 1226.58l-.1 1.17-.28 1.22-.5 1.15-.64 1.07-.82.94-.95.82-1.08.65-1.15.5-1.22.28-1.17.1H1164v-3.95h69.92l.7-.06.62-.15.6-.24.52-.33.48-.4.4-.5.34-.52.24-.6.15-.6.06-.7v-114.34h3.94zm0-139.66h-3.94V969.74h3.94z" stroke="#3a414a" stroke-width=".05" fill="#3a414a"/><path d="M1164.05 1234.47H1162v-3.94h2.05z" fill="#3a414a"/><path stroke="#3a414a" stroke-width=".05" fill="#3a414a"/><path d="M1244.63 967.74h-9.27l4.64-14.27z" fill="#3a414a"/><path d="M1247.35 969.7h-14.7l7.35-22.62zm-9.27-3.94h3.84l-1.92-5.9z" stroke="#3a414a" stroke-width=".05" fill="#3a414a"/><use xlink:href="#m" transform="matrix(1,0,0,1,1178.9042008423412,1236.5) translate(0 22.385525173611107)"/><use xlink:href="#n" transform="matrix(1,0,0,1,1211.228785882987,964.0454937177362) translate(0 22.385525173611107)"/><use xlink:href="#T" transform="matrix(1,0,0,1,1199.9934895833333,1086.918694465715) translate(0 18.50043402777778)"/><path d="M740 294a6 6 0 0 1 6-6h208a6 6 0 0 1 6 6v147a6 6 0 0 1-6 6H746a6 6 0 0 1-6-6z" stroke="#282c33" stroke-width="4" fill="#fff"/><path d="M740 344.28h220m-220 53.7h220" stroke="#282c33" stroke-width="4" fill="none"/><use xlink:href="#U" transform="matrix(1,0,0,1,748,296) translate(48.657986111111136 29.96180555555555)"/><path d="M1080 485a6 6 0 0 1 6-6h308a6 6 0 0 1 6 6v148a6 6 0 0 1-6 6h-308a6 6 0 0 1-6-6z" stroke="#282c33" stroke-width="4" fill="#fff"/><path d="M1080 535.28h320m-320 53.7h320" stroke="#282c33" stroke-width="4" fill="none"/><use xlink:href="#V" transform="matrix(1,0,0,1,1088,487) translate(34.6475694444445 29.96180555555555)"/><path d="M1055.26 515.13v3.95H926v-3.95zm-203.28-10.6H848V451H852z" stroke="#3a414a" stroke-width=".05" fill="#3a414a"/><path d="M851.98 451.05H848V449H852z" fill="#3a414a"/><path stroke="#3a414a" stroke-width=".05" fill="#3a414a"/><path d="M1071.53 517.1l-14.27 4.64v-9.27z" fill="#3a414a"/><path d="M1077.92 517.1l-22.63 7.36v-14.7zm-18.68 1.92l5.9-1.92-5.9-1.9z" stroke="#3a414a" stroke-width=".05" fill="#3a414a"/><use xlink:href="#W" transform="matrix(1,0,0,1,832.6373159002819,504.51679877563527) translate(0 18.500434027777775)"/><use xlink:href="#X" transform="matrix(1,0,0,1,829.530864197531,465.95725760647593) translate(0 17.955555555555552)"/><use xlink:href="#m" transform="matrix(1,0,0,1,1015.3643203999857,478.00827997112214) translate(0 22.385525173611107)"/><path d="M1336.94 796H1333v-49.7h3.94zm0-74.86H1333v-57.4h3.94z" stroke="#3a414a" stroke-width=".05" fill="#3a414a"/><path d="M1336.94 798H1333v-2.05h3.94z" fill="#3a414a"/><path stroke="#3a414a" stroke-width=".05" fill="#3a414a"/><path d="M1339.6 661.74h-9.27l4.63-14.27z" fill="#3a414a"/><path d="M1342.32 663.7h-14.7l7.34-22.62zm-9.27-3.94h3.83l-1.92-5.9z" stroke="#3a414a" stroke-width=".05" fill="#3a414a"/><use xlink:href="#Y" transform="matrix(1,0,0,1,1294.9561711353533,721.1362618390953) translate(0 18.50043402777777)"/><use xlink:href="#Z" transform="matrix(1,0,0,1,1342.9626815520203,763.4884693440387) translate(0 22.3855251736111)"/><use xlink:href="#aa" transform="matrix(1,0,0,1,1257.7835898308404,657.9458649122996) translate(0 22.3855251736111)"/><path d="M392.2 369.48H124v-3.96h268.2zm323.06 0H467.8v-3.96h247.46z" stroke="#3a414a" stroke-width=".05" fill="#3a414a"/><path d="M124.05 369.48H122v-3.96h2.05z" fill="#3a414a"/><path stroke="#3a414a" stroke-width=".05" fill="#3a414a"/><path d="M731.53 367.5l-14.27 4.63v-9.26z" fill="#3a414a"/><path d="M737.92 367.5l-22.63 7.35v-14.7zm-18.68 1.92l5.9-1.92-5.9-1.92z" stroke="#3a414a" stroke-width=".05" fill="#3a414a"/><g><use xlink:href="#ab" transform="matrix(1,0,0,1,392.19384765624994,357.3046875) translate(0 14.9853515625)"/></g><g><use xlink:href="#ac" transform="matrix(1,0,0,1,160.48012027974565,371.49999999999994) translate(0 22.200520833333336)"/></g><g><use xlink:href="#ac" transform="matrix(1,0,0,1,651.8522600376522,328.6564117510424) translate(0 22.200520833333336)"/></g><path d="M400.4 538.03l654.9 14.82-.08 3.95-655.6-14.83L123.15 436l1.4-3.7z" stroke="#3a414a" stroke-width=".05" fill="#3a414a"/><path d="M124.62 432.32l-1.4 3.7-1.22-.47v-4.23z" fill="#3a414a"/><path stroke="#3a414a" stroke-width=".05" fill="#3a414a"/><path d="M1071.53 555.2l-14.37 4.3.2-9.27z" fill="#3a414a"/><path d="M1077.92 555.33l-22.8 6.84.34-14.7zm-18.72 1.5l5.94-1.8-5.86-2.03z" stroke="#3a414a" stroke-width=".05" fill="#3a414a"/><g><use xlink:href="#ad" transform="matrix(1,0,0,1,360.8334151638103,544.2158548285222) translate(0 18.50043402777778)"/></g><g><use xlink:href="#A" transform="matrix(1,0,0,1,145.26629082036922,450.379799673543) translate(0 22.200520833333336)"/></g><g><use xlink:href="#ac" transform="matrix(1,0,0,1,964.9402451590956,557.5237557033455) translate(0 22.200520833333336)"/></g><path d="M1140.87 775.26h-3.95V729.7h3.95zm0-65.96h-3.95V643h3.95z" stroke="#3a414a" stroke-width=".05" fill="#3a414a"/><path d="M1140.87 643.05h-3.95V641h3.95z" fill="#3a414a"/><path stroke="#3a414a" stroke-width=".05" fill="#3a414a"/><path d="M1138.9 791.53l-4.64-14.27h9.27z" fill="#3a414a"/><path d="M1138.9 797.92l-7.36-22.63h14.7zm-1.92-18.68l1.92 5.9 1.9-5.9z" stroke="#3a414a" stroke-width=".05" fill="#3a414a"/><g><use xlink:href="#ae" transform="matrix(1,0,0,1,1079.487709309971,709.3047260843912) translate(0 14.9853515625)"/><use xlink:href="#af" transform="matrix(1,0,0,1,1079.487709309971,709.3047260843912) translate(32.4052734375 14.9853515625)"/></g><g><use xlink:href="#A" transform="matrix(1,0,0,1,1114.8947731120543,648.9756817618817) translate(0 22.200520833333336)"/></g><g><use xlink:href="#A" transform="matrix(1,0,0,1,1151.5326321943453,751.1418122893506) translate(0 22.200520833333336)"/></g><defs><path fill="#3a414a" d="M587-135c154 0 209-115 209-281v-777H485v-156h501v929C982-148 857 20 586 20c-254 0-368-136-410-370l187-31c24 134 77 246 224 246" id="ag"/><path fill="#3a414a" d="M528 20c-247 0-343-132-343-381v-721h180v686c-4 177 45 284 224 277 194-8 279-136 279-336v-627h181c3 360-6 732 6 1082H885c-4-54-7-126-8-185h-3C809-64 714 20 528 20" id="ah"/><path fill="#3a414a" d="M1048-32c-2 300-135 456-433 456-222-1-358-88-400-267l184-25c22 99 100 157 222 156 184-2 248-125 248-315 0-64 3-133-2-194C807-100 706-13 524-12c-306 0-381-228-381-537 0-318 85-550 400-550 164 0 271 83 325 202h3c1-60 3-134 12-185h171c-13 339-4 702-6 1050zM585-145c210-8 284-178 284-406 0-192-52-331-177-392-33-16-69-22-104-22-223 2-259 184-259 414 0 229 31 415 256 406" id="ai"/><path fill="#3a414a" d="M1000-272c3 95 12 159 101 161 21 0 41-3 59-7V-6c-44 10-86 16-139 16-141 2-191-84-197-217h-6C748-76 648 20 446 20c-207 0-318-120-318-322 0-266 194-348 454-354l236-4c12-191-40-305-222-305-140 0-220 47-232 172l-188-17c33-204 181-292 423-292 255 0 401 118 401 364v466zm-683-27c0 109 63 184 175 182 166-3 259-96 306-217 24-65 20-120 20-200-232 7-501-28-501 235" id="aj"/><path fill="#3a414a" d="M865-914c-3-187-2-380-2-570h180v1261c0 76 1 155 6 223H877c-8-49-9-116-10-174h-5C801-44 708 26 530 26c-135 0-234-46-297-139s-95-232-95-419c0-377 131-566 392-566 176 0 271 63 335 184zm-286-51c-222 0-255 197-255 427 0 229 31 425 253 425 237 0 286-195 286-441 0-238-52-411-284-411" id="ak"/><path fill="#3a414a" d="M615-1102c343 0 484 203 482 560-1 347-147 562-488 562-336 0-475-219-479-562-4-349 156-560 485-560zm-8 989c240 0 301-180 301-429 0-245-55-427-290-427-236 0-299 181-299 427 0 243 61 429 288 429" id="al"/><path fill="#3a414a" d="M839-1102c70 0 148 7 206 17v167c-112-18-268-36-363 15-129 69-208 203-208 395V0H294c-10-367 32-789-52-1082h171c21 75 41 161 48 250h5c67-152 152-270 373-270" id="am"/><g id="a"><use transform="matrix(0.017361111111111105,0,0,0.017361111111111105,0,0)" xlink:href="#ag"/><use transform="matrix(0.017361111111111105,0,0,0.017361111111111105,21.336805555555546,0)" xlink:href="#ah"/><use transform="matrix(0.017361111111111105,0,0,0.017361111111111105,42.67361111111109,0)" xlink:href="#ai"/><use transform="matrix(0.017361111111111105,0,0,0.017361111111111105,64.01041666666664,0)" xlink:href="#aj"/><use transform="matrix(0.017361111111111105,0,0,0.017361111111111105,85.34722222222219,0)" xlink:href="#ak"/><use transform="matrix(0.017361111111111105,0,0,0.017361111111111105,106.68402777777773,0)" xlink:href="#al"/><use transform="matrix(0.017361111111111105,0,0,0.017361111111111105,128.0208333333333,0)" xlink:href="#am"/></g><path fill="#3a414a" d="M334-464v-160h560v160H334" id="an"/><use transform="matrix(0.013020833333333332,0,0,0.013020833333333332,0,0)" xlink:href="#an" id="b"/><path fill="#3a414a" d="M912-211c-10-84-18-177-18-274v-864h172V0H836L316-1130c7 79 16 167 16 254V0H162v-1349h222" id="ao"/><path fill="#3a414a" d="M904-1102c199 0 220 177 220 381V0H956v-686c-3-114 0-215-60-264-70-33-125-4-158 71-26 56-39 140-39 252V0H531v-686c-3-114-1-215-61-264-78-41-136 24-157 84-24 69-39 159-39 259V0H105c-3-360 6-732-6-1082h149c6 50 3 123 8 175 36-100 83-195 216-195 135 0 166 79 196 196 42-105 93-196 236-196" id="ap"/><path fill="#3a414a" d="M365-904c58-129 161-200 334-200 130 0 228 46 293 138s98 233 98 420c0 189-34 331-102 425S824 20 698 20c-170 0-275-64-336-184 0 55-3 116-9 164H179c5-68 6-147 6-223v-1261h180c-2 193 4 394-4 580h4zm283 791c221 0 256-197 256-427 0-229-34-425-254-425-236 0-285 195-285 441 0 237 53 411 283 411" id="aq"/><path fill="#3a414a" d="M617-1102c355 0 481 238 477 599H322c5 222 84 388 301 388 144 0 244-59 284-166l158 45C1002-72 854 20 623 20c-342 0-490-220-490-568 0-346 151-554 484-554zm291 461c-18-192-90-328-289-328-194 0-287 128-295 328h584" id="ar"/><g id="c"><use transform="matrix(0.013020833333333332,0,0,0.013020833333333332,0,0)" xlink:href="#ao"/><use transform="matrix(0.013020833333333332,0,0,0.013020833333333332,16.002604166666664,0)" xlink:href="#al"/><use transform="matrix(0.013020833333333332,0,0,0.013020833333333332,32.00520833333333,0)" xlink:href="#ap"/><use transform="matrix(0.013020833333333332,0,0,0.013020833333333332,48.00781249999999,0)" xlink:href="#aq"/><use transform="matrix(0.013020833333333332,0,0,0.013020833333333332,64.01041666666666,0)" xlink:href="#am"/><use transform="matrix(0.013020833333333332,0,0,0.013020833333333332,80.01302083333331,0)" xlink:href="#ar"/></g><path fill="#3a414a" d="M202-1349h823v156H709v1037h316V0H202v-156h316v-1037H202v-156" id="as"/><path fill="#3a414a" d="M706-1102c241 0 344 136 343 381V0H868v-695c1-168-57-273-220-268-190 6-283 138-283 336V0H185c-3-360 6-732-6-1082h170c4 54 7 126 8 185h3c63-121 164-204 346-205" id="at"/><path fill="#3a414a" d="M682 16c-209 0-323-80-324-285v-671H190v-142h170l58-282h120v282h432v142H538v652c2 114 60 155 182 155 106 0 209-16 297-34v137C921-4 806 16 682 16" id="au"/><path fill="#3a414a" d="M745-142h380V0H143v-142h422v-798H246v-142h499v940zM545-1292v-192h200v192H545" id="av"/><path fill="#3a414a" d="M839-1335c-182-6-269 67-259 253h491v142H580V0H400v-940H138v-142h262c-15-293 132-408 418-402 94 2 200 7 281 21v145c-75-10-177-14-260-17" id="aw"/><path fill="#3a414a" d="M631 20c-350 0-501-215-501-562 0-355 162-560 502-560 250 0 399 118 446 323l-192 14c-23-124-109-196-262-196-242 0-305 171-305 415 1 245 61 427 304 427 151 0 248-77 267-215l190 12C1039-107 883 20 631 20" id="ax"/><path fill="#3a414a" d="M615-1102c343 0 484 203 482 560-1 347-147 562-488 562-336 0-475-219-479-562-4-349 156-560 485-560zm-8 989c240 0 301-180 301-429 0-245-55-427-290-427-236 0-299 181-299 427 0 243 61 429 288 429zM503-1201v-20l227-239h197v29l-300 230H503" id="ay"/><g id="d"><use transform="matrix(0.013020833333333332,0,0,0.013020833333333332,0,0)" xlink:href="#as"/><use transform="matrix(0.013020833333333332,0,0,0.013020833333333332,16.002604166666664,0)" xlink:href="#ak"/><use transform="matrix(0.013020833333333332,0,0,0.013020833333333332,32.00520833333333,0)" xlink:href="#ar"/><use transform="matrix(0.013020833333333332,0,0,0.013020833333333332,48.00781249999999,0)" xlink:href="#at"/><use transform="matrix(0.013020833333333332,0,0,0.013020833333333332,64.01041666666666,0)" xlink:href="#au"/><use transform="matrix(0.013020833333333332,0,0,0.013020833333333332,80.01302083333331,0)" xlink:href="#av"/><use transform="matrix(0.013020833333333332,0,0,0.013020833333333332,96.01562499999997,0)" xlink:href="#aw"/><use transform="matrix(0.013020833333333332,0,0,0.013020833333333332,112.01822916666663,0)" xlink:href="#av"/><use transform="matrix(0.013020833333333332,0,0,0.013020833333333332,128.0208333333333,0)" xlink:href="#ax"/><use transform="matrix(0.013020833333333332,0,0,0.013020833333333332,144.02343749999994,0)" xlink:href="#aj"/><use transform="matrix(0.013020833333333332,0,0,0.013020833333333332,160.0260416666666,0)" xlink:href="#ax"/><use transform="matrix(0.013020833333333332,0,0,0.013020833333333332,176.02864583333326,0)" xlink:href="#av"/><use transform="matrix(0.013020833333333332,0,0,0.013020833333333332,192.03124999999991,0)" xlink:href="#ay"/><use transform="matrix(0.013020833333333332,0,0,0.013020833333333332,208.03385416666657,0)" xlink:href="#at"/></g><path fill="#3a414a" d="M650-1214c-281 0-336 244-336 533 0 295 60 546 347 546 188 0 263-142 322-282l159 65C1058-155 935 20 659 20c-401 0-546-295-546-701 0-407 135-689 536-689 264 0 391 146 466 335l-168 65c-47-129-127-244-297-244" id="az"/><path fill="#3a414a" d="M873-819c-18-114-119-146-250-146-163 0-245 50-245 151 0 151 170 148 294 185 182 54 388 94 388 320 0 240-189 325-439 329-245 4-410-69-454-268l159-31c24 133 136 168 295 165 144-2 270-31 270-171 0-164-195-160-331-202-167-52-350-87-350-299 0-218 173-315 413-313 220 2 373 77 412 260" id="aA"/><g id="e"><use transform="matrix(0.017361111111111105,0,0,0.017361111111111105,0,0)" xlink:href="#az"/><use transform="matrix(0.017361111111111105,0,0,0.017361111111111105,21.336805555555546,0)" xlink:href="#aj"/><use transform="matrix(0.017361111111111105,0,0,0.017361111111111105,42.67361111111109,0)" xlink:href="#aA"/><use transform="matrix(0.017361111111111105,0,0,0.017361111111111105,64.01041666666664,0)" xlink:href="#av"/><use transform="matrix(0.017361111111111105,0,0,0.017361111111111105,85.34722222222219,0)" xlink:href="#at"/><use transform="matrix(0.017361111111111105,0,0,0.017361111111111105,106.68402777777773,0)" xlink:href="#al"/></g><path fill="#3a414a" d="M1034 0L896-382H333L196 0H0l510-1349h217L1228 0h-194zM847-531c-77-225-157-447-231-674-69 231-154 451-232 674h463" id="aB"/><path fill="#3a414a" d="M147 0v-137l681-806H187v-139h844v137L349-139h719V0H147" id="aC"/><g id="f"><use transform="matrix(0.017361111111111105,0,0,0.017361111111111105,0,0)" xlink:href="#aB"/><use transform="matrix(0.017361111111111105,0,0,0.017361111111111105,21.336805555555546,0)" xlink:href="#aC"/><use transform="matrix(0.017361111111111105,0,0,0.017361111111111105,42.67361111111109,0)" xlink:href="#aj"/><use transform="matrix(0.017361111111111105,0,0,0.017361111111111105,64.01041666666664,0)" xlink:href="#am"/></g><path fill="#3a414a" d="M698-1104c312 3 392 244 392 558 0 315-82 566-392 566-169 0-277-65-331-184h-5c8 188 2 394 4 589H185V-858c0-76-1-156-6-224h175c6 52 9 120 10 178h4c58-122 150-202 330-200zm-49 991c225 0 255-203 255-433 0-225-32-419-253-419-236 0-285 192-285 441 0 237 53 411 283 411" id="aD"/><g id="g"><use transform="matrix(0.017361111111111105,0,0,0.017361111111111105,0,0)" xlink:href="#aB"/><use transform="matrix(0.017361111111111105,0,0,0.017361111111111105,21.336805555555546,0)" xlink:href="#aD"/><use transform="matrix(0.017361111111111105,0,0,0.017361111111111105,42.67361111111109,0)" xlink:href="#ah"/><use transform="matrix(0.017361111111111105,0,0,0.017361111111111105,64.01041666666664,0)" xlink:href="#ar"/><use transform="matrix(0.017361111111111105,0,0,0.017361111111111105,85.34722222222219,0)" xlink:href="#aA"/><use transform="matrix(0.017361111111111105,0,0,0.017361111111111105,106.68402777777773,0)" xlink:href="#au"/><use transform="matrix(0.017361111111111105,0,0,0.017361111111111105,128.0208333333333,0)" xlink:href="#aj"/></g><path fill="#3a414a" d="M285-1169c8 382 2 780 4 1169H129v-1349h237c86 239 188 461 253 720 69-258 169-481 255-720h225V0H937c2-390-5-788 6-1169-75 255-170 488-259 729H547c-90-240-185-475-262-729" id="aE"/><g id="h"><use transform="matrix(0.017361111111111105,0,0,0.017361111111111105,0,0)" xlink:href="#aE"/><use transform="matrix(0.017361111111111105,0,0,0.017361111111111105,21.336805555555546,0)" xlink:href="#al"/><use transform="matrix(0.017361111111111105,0,0,0.017361111111111105,42.67361111111109,0)" xlink:href="#ap"/><use transform="matrix(0.017361111111111105,0,0,0.017361111111111105,64.01041666666664,0)" xlink:href="#av"/><use transform="matrix(0.017361111111111105,0,0,0.017361111111111105,85.34722222222219,0)" xlink:href="#al"/></g><path fill="#3a414a" d="M473-1349c438-1 655 221 652 661C1122-268 945-8 532 0H162v-1349h311zm42 1193c308-4 416-205 418-532 2-330-131-509-459-505H353v1037h162" id="aF"/><g id="i"><use transform="matrix(0.017361111111111105,0,0,0.017361111111111105,0,0)" xlink:href="#aF"/><use transform="matrix(0.017361111111111105,0,0,0.017361111111111105,21.336805555555546,0)" xlink:href="#ar"/><use transform="matrix(0.017361111111111105,0,0,0.017361111111111105,42.67361111111109,0)" xlink:href="#aD"/><use transform="matrix(0.017361111111111105,0,0,0.017361111111111105,64.01041666666664,0)" xlink:href="#al"/><use transform="matrix(0.017361111111111105,0,0,0.017361111111111105,85.34722222222219,0)" xlink:href="#am"/><use transform="matrix(0.017361111111111105,0,0,0.017361111111111105,106.68402777777773,0)" xlink:href="#au"/><use transform="matrix(0.017361111111111105,0,0,0.017361111111111105,128.0208333333333,0)" xlink:href="#ar"/></g><g id="j"><use transform="matrix(0.017361111111111105,0,0,0.017361111111111105,0,0)" xlink:href="#ag"/><use transform="matrix(0.017361111111111105,0,0,0.017361111111111105,21.336805555555546,0)" xlink:href="#ah"/><use transform="matrix(0.017361111111111105,0,0,0.017361111111111105,42.67361111111109,0)" xlink:href="#ar"/><use transform="matrix(0.017361111111111105,0,0,0.017361111111111105,64.01041666666664,0)" xlink:href="#ai"/><use transform="matrix(0.017361111111111105,0,0,0.017361111111111105,85.34722222222219,0)" xlink:href="#al"/></g><path fill="#333" d="M1019-446c-6 296-159 466-455 466-288 0-421-169-462-422l291-43c13 79 35 137 65 176s66 58 108 58c112 0 159-101 159-228v-679H424v-231h595v903" id="aG"/><path fill="#333" d="M471 20c-247 0-336-169-336-415v-687h281v607c4 148 31 285 172 285 152 0 207-150 207-312v-580h281c4 359-9 736 8 1082H816c-7-63-11-146-12-215h-5C736-76 644 20 471 20" id="aH"/><path fill="#333" d="M1113-274C1038-96 884 20 626 20c-352 0-526-209-526-566 0-358 185-556 530-556 358 0 496 251 499 615H395c5 180 68 319 245 319 102 0 186-45 208-129zM857-663c-6-177-128-307-315-247-94 30-141 121-145 247h460" id="aI"/><path fill="#333" d="M1108-33c-3 314-178 467-492 467-243 0-400-94-447-291l281-33c17 79 82 141 174 141 176 0 212-155 205-347-2-40 5-80 0-115C773-85 665-12 501-12c-288 0-377-242-377-538 0-242 65-426 223-510 50-26 108-39 175-39 160 0 253 78 307 191h5c1-58 5-125 14-174h266c-12 335-3 703-6 1049zM811-384c25-82 27-259 1-342-30-99-77-180-190-180-172 0-205 171-205 356 0 116 18 202 54 258 48 76 129 107 221 70 62-25 96-86 119-162" id="aJ"/><path fill="#333" d="M775-193C708-75 621 20 439 20 226 20 106-93 106-306c0-251 170-341 417-346l223-4c4-143-12-264-148-264-103 0-141 58-150 153l-293-14c37-219 194-321 455-321 263 0 418 130 417 390v392c1 84 5 161 89 160 21 0 42-2 62-6v152c-57 15-108 27-180 26-145 0-202-73-217-205h-6zm-256 17c168 0 234-139 227-325-166 4-347-25-347 173 0 94 33 152 120 152" id="aK"/><g id="k"><use transform="matrix(0.010850694444444444,0,0,0.010850694444444444,0,0)" xlink:href="#aG"/><use transform="matrix(0.010850694444444444,0,0,0.010850694444444444,13.335503472222221,0)" xlink:href="#aH"/><use transform="matrix(0.010850694444444444,0,0,0.010850694444444444,26.671006944444443,0)" xlink:href="#aI"/><use transform="matrix(0.010850694444444444,0,0,0.010850694444444444,40.006510416666664,0)" xlink:href="#aJ"/><use transform="matrix(0.010850694444444444,0,0,0.010850694444444444,53.342013888888886,0)" xlink:href="#aK"/></g><path fill="#333" d="M768-1103c247 0 336 167 336 416V0H824v-619c-3-164-24-273-171-273-164 0-229 142-229 312V0H143c-4-359 9-736-8-1082h268c7 63 12 146 13 215h4c67-145 160-236 348-236" id="aL"/><g id="l"><use transform="matrix(0.010850694444444444,0,0,0.010850694444444444,0,0)" xlink:href="#aI"/><use transform="matrix(0.010850694444444444,0,0,0.010850694444444444,13.335503472222221,0)" xlink:href="#aL"/></g><path d="M1065-1013c47 164 49 500-1 665C999-130 875 20 611 20c-377 0-484-300-487-695-2-245 41-425 141-551 77-98 191-144 352-144 261 0 386 140 448 357zM741-155c199-92 203-504 159-785-26-168-96-284-283-284-281 0-308 256-311 549-2 181 18 324 80 428 46 77 115 118 227 120 47 0 90-10 128-28" id="aM"/><path d="M496 0v-299h235V0H496" id="aN"/><path d="M671-1188l264-103 45 132-282 73 185 250-119 72-150-258-156 256-119-72 189-248-280-73 45-134 267 107-12-297h136" id="aO"/><g id="m"><use transform="matrix(0.013129340277777775,0,0,0.013129340277777775,0,0)" xlink:href="#aM"/><use transform="matrix(0.013129340277777775,0,0,0.013129340277777775,16.135959201388886,0)" xlink:href="#aN"/><use transform="matrix(0.013129340277777775,0,0,0.013129340277777775,32.27191840277777,0)" xlink:href="#aN"/><use transform="matrix(0.013129340277777775,0,0,0.013129340277777775,48.40787760416666,0)" xlink:href="#aO"/></g><path d="M148-1120c216-7 379-89 463-229h166v1204h353V0H157v-145h439v-1021c-79 124-254 184-448 194v-148" id="aP"/><use transform="matrix(0.013129340277777775,0,0,0.013129340277777775,0,0)" xlink:href="#aP" id="n"/><path fill="#3a414a" d="M390 276c167 0 266-82 266-251v-965H249v-142h587V28c-4 270-165 397-431 397-107 0-208-16-288-43V242c80 18 173 34 273 34zm246-1568v-192h200v192H636" id="aQ"/><g id="o"><use transform="matrix(0.017361111111111105,0,0,0.017361111111111105,0,0)" xlink:href="#az"/><use transform="matrix(0.017361111111111105,0,0,0.017361111111111105,21.336805555555546,0)" xlink:href="#aj"/><use transform="matrix(0.017361111111111105,0,0,0.017361111111111105,42.67361111111109,0)" xlink:href="#aQ"/><use transform="matrix(0.017361111111111105,0,0,0.017361111111111105,64.01041666666664,0)" xlink:href="#aj"/></g><path fill="#3a414a" d="M736-142h380V0H134v-142h422v-1200H267v-142h469v1342" id="aR"/><g id="p"><use transform="matrix(0.017361111111111105,0,0,0.017361111111111105,0,0)" xlink:href="#aF"/><use transform="matrix(0.017361111111111105,0,0,0.017361111111111105,21.336805555555546,0)" xlink:href="#ar"/><use transform="matrix(0.017361111111111105,0,0,0.017361111111111105,42.67361111111109,0)" xlink:href="#aj"/><use transform="matrix(0.017361111111111105,0,0,0.017361111111111105,64.01041666666664,0)" xlink:href="#aR"/><use transform="matrix(0.017361111111111105,0,0,0.017361111111111105,85.34722222222219,0)" xlink:href="#ar"/><use transform="matrix(0.017361111111111105,0,0,0.017361111111111105,106.68402777777773,0)" xlink:href="#am"/></g><path fill="#3a414a" d="M1121-976c0 225-142 341-344 379L1177 0H957L591-575H353V0H162v-1349h482c281 3 477 100 477 373zM633-726c181-1 296-73 296-247 0-149-101-223-304-223H353v470h280" id="aS"/><g id="q"><use transform="matrix(0.017361111111111105,0,0,0.017361111111111105,0,0)" xlink:href="#aS"/><use transform="matrix(0.017361111111111105,0,0,0.017361111111111105,21.336805555555546,0)" xlink:href="#ar"/><use transform="matrix(0.017361111111111105,0,0,0.017361111111111105,42.67361111111109,0)" xlink:href="#aA"/><use transform="matrix(0.017361111111111105,0,0,0.017361111111111105,64.01041666666664,0)" xlink:href="#ah"/><use transform="matrix(0.017361111111111105,0,0,0.017361111111111105,85.34722222222219,0)" xlink:href="#aR"/><use transform="matrix(0.017361111111111105,0,0,0.017361111111111105,106.68402777777773,0)" xlink:href="#au"/><use transform="matrix(0.017361111111111105,0,0,0.017361111111111105,128.0208333333333,0)" xlink:href="#aj"/><use transform="matrix(0.017361111111111105,0,0,0.017361111111111105,149.35763888888883,0)" xlink:href="#ak"/><use transform="matrix(0.017361111111111105,0,0,0.017361111111111105,170.69444444444437,0)" xlink:href="#al"/></g><path fill="#3a414a" d="M622-1349c296 4 497 117 497 404 0 282-193 424-485 431H353V0H162v-1349h460zm-15 684c195-3 320-88 320-277 0-184-129-255-328-254H353v531h254" id="aT"/><g id="r"><use transform="matrix(0.017361111111111105,0,0,0.017361111111111105,0,0)" xlink:href="#aT"/><use transform="matrix(0.017361111111111105,0,0,0.017361111111111105,21.336805555555546,0)" xlink:href="#am"/><use transform="matrix(0.017361111111111105,0,0,0.017361111111111105,42.67361111111109,0)" xlink:href="#ar"/><use transform="matrix(0.017361111111111105,0,0,0.017361111111111105,64.01041666666664,0)" xlink:href="#ak"/><use transform="matrix(0.017361111111111105,0,0,0.017361111111111105,85.34722222222219,0)" xlink:href="#av"/><use transform="matrix(0.017361111111111105,0,0,0.017361111111111105,106.68402777777773,0)" xlink:href="#ax"/><use transform="matrix(0.017361111111111105,0,0,0.017361111111111105,128.0208333333333,0)" xlink:href="#ax"/><use transform="matrix(0.017361111111111105,0,0,0.017361111111111105,149.35763888888883,0)" xlink:href="#av"/><use transform="matrix(0.017361111111111105,0,0,0.017361111111111105,170.69444444444437,0)" xlink:href="#al"/><use transform="matrix(0.017361111111111105,0,0,0.017361111111111105,192.0312499999999,0)" xlink:href="#at"/></g><path fill="#333" d="M496-1349c439 0 656 222 653 664C1146-265 969 0 556 0H135v-1349h361zm36 1121c245-7 319-187 320-457 1-273-91-439-361-436h-61v893h102" id="aU"/><g id="s"><use transform="matrix(0.010850694444444444,0,0,0.010850694444444444,0,0)" xlink:href="#aU"/><use transform="matrix(0.010850694444444444,0,0,0.010850694444444444,13.335503472222221,0)" xlink:href="#aI"/></g><path fill="#333" d="M1109-360C1066-122 902 20 624 20c-347 0-514-209-514-555 0-353 168-567 518-567 270 0 425 136 473 361l-283 14c-16-106-75-183-196-182-75 0-130 31-165 93s-52 152-52 270c0 249 74 374 221 374 120 0 188-82 201-201" id="aV"/><path fill="#333" d="M875-1102c70 0 148 7 206 17v237c-110-17-267-37-359 15-123 69-192 207-192 395V0H250c-10-367 32-789-52-1082h271c19 69 36 149 46 228h4c52-151 151-250 356-248" id="aW"/><path fill="#333" d="M802-909c-3-189-2-383-2-575h281v1248c-1 83 4 168 8 236H817c-9-50-14-117-15-176h-4C735-49 651 20 482 20 191 20 97-238 97-539c0-243 66-432 221-519 50-28 108-42 175-42 162 2 253 78 309 191zm-70 658c91-113 93-462 2-584-46-61-145-100-224-53-96 56-119 190-120 349 0 123 17 214 52 275 46 82 130 115 222 74 25-12 46-33 68-61" id="aX"/><path fill="#333" d="M616-1102c361 0 521 202 521 560 0 354-171 562-527 562C259 20 92-192 92-542c0-351 169-560 524-560zm-9 930c200-2 236-165 236-370 0-199-27-367-223-367-195 0-233 146-233 367 0 129 18 223 55 282s92 88 165 88" id="aY"/><g id="t"><use transform="matrix(0.010850694444444444,0,0,0.010850694444444444,0,0)" xlink:href="#aK"/><use transform="matrix(0.010850694444444444,0,0,0.010850694444444444,13.335503472222221,0)" xlink:href="#aV"/><use transform="matrix(0.010850694444444444,0,0,0.010850694444444444,26.671006944444443,0)" xlink:href="#aH"/><use transform="matrix(0.010850694444444444,0,0,0.010850694444444444,40.006510416666664,0)" xlink:href="#aI"/><use transform="matrix(0.010850694444444444,0,0,0.010850694444444444,53.342013888888886,0)" xlink:href="#aW"/><use transform="matrix(0.010850694444444444,0,0,0.010850694444444444,66.67751736111111,0)" xlink:href="#aX"/><use transform="matrix(0.010850694444444444,0,0,0.010850694444444444,80.01302083333334,0)" xlink:href="#aY"/></g><use transform="matrix(0.010850694444444444,0,0,0.010850694444444444,0,0)" xlink:href="#aK" id="u"/><path fill="#333" d="M622-916c-112 2-200 14-200 111 0 90 89 101 168 121 234 58 514 77 514 368C1104-4 751 54 434 5 267-21 161-112 121-270l247-37c24 111 113 145 252 141 114-3 226-12 226-124 0-101-103-113-192-134-225-54-490-76-490-351 0-247 201-328 458-328 245 0 413 88 457 292l-249 26c-16-98-92-133-208-131" id="aZ"/><path fill="#333" d="M794-190h353V0H118v-190h395v-1104H223v-190h571v1294" id="ba"/><path fill="#333" d="M711 13c-250 0-386-99-385-349l2-556H161v-190h181l88-282h176v282h385v190H606v530c-10 130 45 186 174 184 91-2 176-11 255-27v186C933-1 833 13 711 13" id="bb"/><g id="v"><use transform="matrix(0.010850694444444444,0,0,0.010850694444444444,0,0)" xlink:href="#aW"/><use transform="matrix(0.010850694444444444,0,0,0.010850694444444444,13.335503472222221,0)" xlink:href="#aI"/><use transform="matrix(0.010850694444444444,0,0,0.010850694444444444,26.671006944444443,0)" xlink:href="#aZ"/><use transform="matrix(0.010850694444444444,0,0,0.010850694444444444,40.006510416666664,0)" xlink:href="#aH"/><use transform="matrix(0.010850694444444444,0,0,0.010850694444444444,53.342013888888886,0)" xlink:href="#ba"/><use transform="matrix(0.010850694444444444,0,0,0.010850694444444444,66.67751736111111,0)" xlink:href="#bb"/><use transform="matrix(0.010850694444444444,0,0,0.010850694444444444,80.01302083333334,0)" xlink:href="#aK"/><use transform="matrix(0.010850694444444444,0,0,0.010850694444444444,93.34852430555557,0)" xlink:href="#aX"/><use transform="matrix(0.010850694444444444,0,0,0.010850694444444444,106.6840277777778,0)" xlink:href="#aY"/></g><path fill="#333" d="M427-171c3 195 2 397 2 596H148V-846c1-83-4-168-8-236h272c10 49 14 118 15 176h4c59-114 151-197 316-197 291 0 385 259 385 560 0 243-65 433-220 521-50 28-109 42-176 42-162-2-253-78-309-191zm69-661c-91 113-92 463-1 586 46 62 145 101 225 54 96-57 118-191 119-351 0-123-18-215-53-276-46-82-128-115-220-74-25 12-48 33-70 61" id="bc"/><path fill="#333" d="M794-190h353V0H118v-190h395v-702H223v-190h571v892zM513-1277v-207h281v207H513" id="bd"/><path fill="#333" d="M844-1321c-130 0-195 53-191 182v57h443v190H653V0H373v-892H117v-190h256v-83c5-247 162-348 422-349 120-1 232 13 327 28v184c-84-10-183-19-278-19" id="be"/><g id="w"><use transform="matrix(0.010850694444444444,0,0,0.010850694444444444,0,0)" xlink:href="#aI"/><use transform="matrix(0.010850694444444444,0,0,0.010850694444444444,13.335503472222221,0)" xlink:href="#aZ"/><use transform="matrix(0.010850694444444444,0,0,0.010850694444444444,26.671006944444443,0)" xlink:href="#bc"/><use transform="matrix(0.010850694444444444,0,0,0.010850694444444444,40.006510416666664,0)" xlink:href="#aI"/><use transform="matrix(0.010850694444444444,0,0,0.010850694444444444,53.342013888888886,0)" xlink:href="#aV"/><use transform="matrix(0.010850694444444444,0,0,0.010850694444444444,66.67751736111111,0)" xlink:href="#bd"/><use transform="matrix(0.010850694444444444,0,0,0.010850694444444444,80.01302083333334,0)" xlink:href="#be"/><use transform="matrix(0.010850694444444444,0,0,0.010850694444444444,93.34852430555557,0)" xlink:href="#bd"/><use transform="matrix(0.010850694444444444,0,0,0.010850694444444444,106.6840277777778,0)" xlink:href="#aV"/><use transform="matrix(0.010850694444444444,0,0,0.010850694444444444,120.01953125000003,0)" xlink:href="#aY"/></g><path fill="#333" d="M137 0v-1349h968v228H432v324h612v228H432v341h714V0H137" id="bf"/><g id="x"><use transform="matrix(0.010850694444444444,0,0,0.010850694444444444,0,0)" xlink:href="#bf"/><use transform="matrix(0.010850694444444444,0,0,0.010850694444444444,13.335503472222221,0)" xlink:href="#aZ"/></g><g id="y"><use transform="matrix(0.010850694444444444,0,0,0.010850694444444444,0,0)" xlink:href="#aX"/><use transform="matrix(0.010850694444444444,0,0,0.010850694444444444,13.335503472222221,0)" xlink:href="#aI"/></g><g id="z"><use transform="matrix(0.010850694444444444,0,0,0.010850694444444444,0,0)" xlink:href="#bb"/><use transform="matrix(0.010850694444444444,0,0,0.010850694444444444,13.335503472222221,0)" xlink:href="#bd"/><use transform="matrix(0.010850694444444444,0,0,0.010850694444444444,26.671006944444443,0)" xlink:href="#bc"/><use transform="matrix(0.010850694444444444,0,0,0.010850694444444444,40.006510416666664,0)" xlink:href="#aY"/></g><use transform="matrix(0.013020833333333334,0,0,0.013020833333333334,0,0)" xlink:href="#aP" id="A"/><g id="B"><use transform="matrix(0.010850694444444444,0,0,0.010850694444444444,0,0)" xlink:href="#bb"/><use transform="matrix(0.010850694444444444,0,0,0.010850694444444444,13.335503472222221,0)" xlink:href="#bd"/><use transform="matrix(0.010850694444444444,0,0,0.010850694444444444,26.671006944444443,0)" xlink:href="#aI"/><use transform="matrix(0.010850694444444444,0,0,0.010850694444444444,40.006510416666664,0)" xlink:href="#aL"/><use transform="matrix(0.010850694444444444,0,0,0.010850694444444444,53.342013888888886,0)" xlink:href="#aI"/></g><g id="C"><use transform="matrix(0.010850694444444444,0,0,0.010850694444444444,0,0)" xlink:href="#aX"/><use transform="matrix(0.010850694444444444,0,0,0.010850694444444444,13.335503472222221,0)" xlink:href="#bd"/><use transform="matrix(0.010850694444444444,0,0,0.010850694444444444,26.671006944444443,0)" xlink:href="#aZ"/><use transform="matrix(0.010850694444444444,0,0,0.010850694444444444,40.006510416666664,0)" xlink:href="#bb"/><use transform="matrix(0.010850694444444444,0,0,0.010850694444444444,53.342013888888886,0)" xlink:href="#bd"/><use transform="matrix(0.010850694444444444,0,0,0.010850694444444444,66.67751736111111,0)" xlink:href="#aL"/><use transform="matrix(0.010850694444444444,0,0,0.010850694444444444,80.01302083333334,0)" xlink:href="#bb"/><use transform="matrix(0.010850694444444444,0,0,0.010850694444444444,93.34852430555557,0)" xlink:href="#aY"/><use transform="matrix(0.010850694444444444,0,0,0.010850694444444444,106.6840277777778,0)" xlink:href="#aZ"/></g><path fill="#333" d="M762-1121V0H467v-1121H61v-228h1107v228H762" id="bg"/><g id="D"><use transform="matrix(0.010850694444444444,0,0,0.010850694444444444,0,0)" xlink:href="#bg"/><use transform="matrix(0.010850694444444444,0,0,0.010850694444444444,13.335503472222221,0)" xlink:href="#bd"/><use transform="matrix(0.010850694444444444,0,0,0.010850694444444444,26.671006944444443,0)" xlink:href="#aI"/><use transform="matrix(0.010850694444444444,0,0,0.010850694444444444,40.006510416666664,0)" xlink:href="#aL"/><use transform="matrix(0.010850694444444444,0,0,0.010850694444444444,53.342013888888886,0)" xlink:href="#aI"/></g><g id="E"><use transform="matrix(0.010850694444444444,0,0,0.010850694444444444,0,0)" xlink:href="#aK"/><use transform="matrix(0.010850694444444444,0,0,0.010850694444444444,13.335503472222221,0)" xlink:href="#aZ"/><use transform="matrix(0.010850694444444444,0,0,0.010850694444444444,26.671006944444443,0)" xlink:href="#aY"/><use transform="matrix(0.010850694444444444,0,0,0.010850694444444444,40.006510416666664,0)" xlink:href="#aV"/><use transform="matrix(0.010850694444444444,0,0,0.010850694444444444,53.342013888888886,0)" xlink:href="#bd"/><use transform="matrix(0.010850694444444444,0,0,0.010850694444444444,66.67751736111111,0)" xlink:href="#aK"/><use transform="matrix(0.010850694444444444,0,0,0.010850694444444444,80.01302083333334,0)" xlink:href="#aX"/><use transform="matrix(0.010850694444444444,0,0,0.010850694444444444,93.34852430555557,0)" xlink:href="#aY"/></g><path fill="#333" d="M872-915c-35-112-84-223-220-223-91 0-156 41-204 116-89 137-87 550 2 688 51 79 116 122 209 122 150 0 197-126 240-244l273 52C1094-168 961 20 656 20 239 20 80-262 80-681c0-418 154-689 568-689 289 0 425 167 496 389" id="bh"/><g id="F"><use transform="matrix(0.010850694444444444,0,0,0.010850694444444444,0,0)" xlink:href="#bh"/><use transform="matrix(0.010850694444444444,0,0,0.010850694444444444,13.335503472222221,0)" xlink:href="#aY"/><use transform="matrix(0.010850694444444444,0,0,0.010850694444444444,26.671006944444443,0)" xlink:href="#aL"/><use transform="matrix(0.010850694444444444,0,0,0.010850694444444444,40.006510416666664,0)" xlink:href="#bb"/><use transform="matrix(0.010850694444444444,0,0,0.010850694444444444,53.342013888888886,0)" xlink:href="#aW"/><use transform="matrix(0.010850694444444444,0,0,0.010850694444444444,66.67751736111111,0)" xlink:href="#aK"/><use transform="matrix(0.010850694444444444,0,0,0.010850694444444444,80.01302083333334,0)" xlink:href="#bb"/><use transform="matrix(0.010850694444444444,0,0,0.010850694444444444,93.34852430555557,0)" xlink:href="#aK"/></g><g id="G"><use transform="matrix(0.017361111111111105,0,0,0.017361111111111105,0,0)" xlink:href="#aE"/><use transform="matrix(0.017361111111111105,0,0,0.017361111111111105,21.336805555555546,0)" xlink:href="#ar"/><use transform="matrix(0.017361111111111105,0,0,0.017361111111111105,42.67361111111109,0)" xlink:href="#aA"/><use transform="matrix(0.017361111111111105,0,0,0.017361111111111105,64.01041666666664,0)" xlink:href="#aj"/></g><path fill="#3a414a" d="M530 26c-303-6-392-228-392-558 0-187 33-329 98-424s162-142 293-142c178 0 273 69 334 184 1-56 3-122 12-169h175c-6 88-6 180-6 282V425H863c1-202-4-411 4-607h-2C805-59 713 29 530 26zm47-139c234 0 286-193 286-441 0-238-55-411-284-411-223 0-255 198-255 427 0 227 33 425 253 425" id="bi"/><g id="H"><use transform="matrix(0.017361111111111105,0,0,0.017361111111111105,0,0)" xlink:href="#aE"/><use transform="matrix(0.017361111111111105,0,0,0.017361111111111105,21.336805555555546,0)" xlink:href="#aj"/><use transform="matrix(0.017361111111111105,0,0,0.017361111111111105,42.67361111111109,0)" xlink:href="#bi"/><use transform="matrix(0.017361111111111105,0,0,0.017361111111111105,64.01041666666664,0)" xlink:href="#ah"/><use transform="matrix(0.017361111111111105,0,0,0.017361111111111105,85.34722222222219,0)" xlink:href="#av"/><use transform="matrix(0.017361111111111105,0,0,0.017361111111111105,106.68402777777773,0)" xlink:href="#at"/><use transform="matrix(0.017361111111111105,0,0,0.017361111111111105,128.0208333333333,0)" xlink:href="#aj"/></g><path fill="#333" d="M609-1161c-125 0-218 36-218 153 0 149 166 161 290 196 235 67 484 129 484 421 0 300-239 408-554 411C302 23 93-114 38-367l285-37c32 128 131 205 296 203 143-2 259-31 259-173 0-164-197-172-333-212-218-64-441-131-441-405 0-276 231-379 511-379 299 0 463 114 513 363l-286 29c-28-115-96-183-233-183" id="bj"/><g id="I"><use transform="matrix(0.010850694444444444,0,0,0.010850694444444444,0,0)" xlink:href="#bj"/><use transform="matrix(0.010850694444444444,0,0,0.010850694444444444,13.335503472222221,0)" xlink:href="#aI"/></g><g id="J"><use transform="matrix(0.010850694444444444,0,0,0.010850694444444444,0,0)" xlink:href="#aV"/><use transform="matrix(0.010850694444444444,0,0,0.010850694444444444,13.335503472222221,0)" xlink:href="#ba"/><use transform="matrix(0.010850694444444444,0,0,0.010850694444444444,26.671006944444443,0)" xlink:href="#aK"/><use transform="matrix(0.010850694444444444,0,0,0.010850694444444444,40.006510416666664,0)" xlink:href="#aZ"/><use transform="matrix(0.010850694444444444,0,0,0.010850694444444444,53.342013888888886,0)" xlink:href="#bd"/><use transform="matrix(0.010850694444444444,0,0,0.010850694444444444,66.67751736111111,0)" xlink:href="#be"/><use transform="matrix(0.010850694444444444,0,0,0.010850694444444444,80.01302083333334,0)" xlink:href="#bd"/><use transform="matrix(0.010850694444444444,0,0,0.010850694444444444,93.34852430555557,0)" xlink:href="#aV"/><use transform="matrix(0.010850694444444444,0,0,0.010850694444444444,106.6840277777778,0)" xlink:href="#aK"/></g><path fill="#333" d="M934-1102c199 0 220 177 220 381V0H926c-2-260 10-533-4-785-4-72-14-138-83-138-34 0-61 27-81 81s-29 134-29 241V0H501c-2-260 9-533-5-785-4-72-13-138-82-138-46 0-65 47-80 93-21 67-30 155-30 248V0H75c-3-360 6-732-6-1082h209c6 50 3 123 8 175 36-100 83-195 216-195 135 0 166 79 196 196 42-105 93-196 236-196" id="bk"/><g id="K"><use transform="matrix(0.010850694444444444,0,0,0.010850694444444444,0,0)" xlink:href="#aV"/><use transform="matrix(0.010850694444444444,0,0,0.010850694444444444,13.335503472222221,0)" xlink:href="#aY"/><use transform="matrix(0.010850694444444444,0,0,0.010850694444444444,26.671006944444443,0)" xlink:href="#bk"/><use transform="matrix(0.010850694444444444,0,0,0.010850694444444444,40.006510416666664,0)" xlink:href="#aY"/></g><path fill="#333" d="M380 206c143 0 202-71 202-216v-882H228v-190h636V13c-6 279-184 412-459 412-107 0-208-16-288-43V172c69 16 169 34 263 34zm203-1483v-207h281v207H583" id="bl"/><g id="L"><use transform="matrix(0.010850694444444444,0,0,0.010850694444444444,0,0)" xlink:href="#bl"/><use transform="matrix(0.010850694444444444,0,0,0.010850694444444444,13.335503472222221,0)" xlink:href="#aH"/><use transform="matrix(0.010850694444444444,0,0,0.010850694444444444,26.671006944444443,0)" xlink:href="#aI"/><use transform="matrix(0.010850694444444444,0,0,0.010850694444444444,40.006510416666664,0)" xlink:href="#aJ"/><use transform="matrix(0.010850694444444444,0,0,0.010850694444444444,53.342013888888886,0)" xlink:href="#aK"/></g><g id="M"><use transform="matrix(0.010850694444444444,0,0,0.010850694444444444,0,0)" xlink:href="#aI"/><use transform="matrix(0.010850694444444444,0,0,0.010850694444444444,13.335503472222221,0)" xlink:href="#aL"/></g><g id="N"><use transform="matrix(0.010850694444444444,0,0,0.010850694444444444,0,0)" xlink:href="#aU"/><use transform="matrix(0.010850694444444444,0,0,0.010850694444444444,13.335503472222221,0)" xlink:href="#bd"/><use transform="matrix(0.010850694444444444,0,0,0.010850694444444444,26.671006944444443,0)" xlink:href="#aW"/><use transform="matrix(0.010850694444444444,0,0,0.010850694444444444,40.006510416666664,0)" xlink:href="#bd"/><use transform="matrix(0.010850694444444444,0,0,0.010850694444444444,53.342013888888886,0)" xlink:href="#aJ"/><use transform="matrix(0.010850694444444444,0,0,0.010850694444444444,66.67751736111111,0)" xlink:href="#aI"/></g><g id="O"><use transform="matrix(0.010850694444444444,0,0,0.010850694444444444,0,0)" xlink:href="#aU"/><use transform="matrix(0.010850694444444444,0,0,0.010850694444444444,13.335503472222221,0)" xlink:href="#aI"/><use transform="matrix(0.010850694444444444,0,0,0.010850694444444444,26.671006944444443,0)" xlink:href="#bb"/><use transform="matrix(0.010850694444444444,0,0,0.010850694444444444,40.006510416666664,0)" xlink:href="#aI"/><use transform="matrix(0.010850694444444444,0,0,0.010850694444444444,53.342013888888886,0)" xlink:href="#aW"/><use transform="matrix(0.010850694444444444,0,0,0.010850694444444444,66.67751736111111,0)" xlink:href="#bk"/><use transform="matrix(0.010850694444444444,0,0,0.010850694444444444,80.01302083333334,0)" xlink:href="#bd"/><use transform="matrix(0.010850694444444444,0,0,0.010850694444444444,93.34852430555557,0)" xlink:href="#aL"/><use transform="matrix(0.010850694444444444,0,0,0.010850694444444444,106.6840277777778,0)" xlink:href="#aK"/></g><g id="P"><use transform="matrix(0.013129340277777775,0,0,0.013129340277777775,0,0)" xlink:href="#aM"/><use transform="matrix(0.013129340277777775,0,0,0.013129340277777775,16.135959201388886,0)" xlink:href="#aN"/><use transform="matrix(0.013129340277777775,0,0,0.013129340277777775,32.27191840277777,0)" xlink:href="#aN"/><use transform="matrix(0.013129340277777775,0,0,0.013129340277777775,48.40787760416666,0)" xlink:href="#aO"/></g><use transform="matrix(0.013129340277777775,0,0,0.013129340277777775,0,0)" xlink:href="#aP" id="Q"/><path fill="#333" d="M616-1349c316 3 526 118 526 426 0 301-201 442-514 447H431V0H136v-1349h480zm-25 646c164 1 254-62 254-215 0-157-99-200-262-202H431v417h160" id="bm"/><g id="R"><use transform="matrix(0.010850694444444444,0,0,0.010850694444444444,0,0)" xlink:href="#bm"/><use transform="matrix(0.010850694444444444,0,0,0.010850694444444444,13.335503472222221,0)" xlink:href="#aH"/><use transform="matrix(0.010850694444444444,0,0,0.010850694444444444,26.671006944444443,0)" xlink:href="#aI"/><use transform="matrix(0.010850694444444444,0,0,0.010850694444444444,40.006510416666664,0)" xlink:href="#aX"/><use transform="matrix(0.010850694444444444,0,0,0.010850694444444444,53.342013888888886,0)" xlink:href="#aI"/></g><g id="S"><use transform="matrix(0.010850694444444444,0,0,0.010850694444444444,0,0)" xlink:href="#bb"/><use transform="matrix(0.010850694444444444,0,0,0.010850694444444444,13.335503472222221,0)" xlink:href="#aI"/><use transform="matrix(0.010850694444444444,0,0,0.010850694444444444,26.671006944444443,0)" xlink:href="#aL"/><use transform="matrix(0.010850694444444444,0,0,0.010850694444444444,40.006510416666664,0)" xlink:href="#aI"/><use transform="matrix(0.010850694444444444,0,0,0.010850694444444444,53.342013888888886,0)" xlink:href="#aW"/></g><path fill="#333" d="M1229 0H935l-92-330H387L295 0H0l443-1349h344zM615-1167c-46 213-110 412-166 615h332c-56-204-119-401-166-615" id="bn"/><g id="T"><use transform="matrix(0.010850694444444444,0,0,0.010850694444444444,0,0)" xlink:href="#bn"/><use transform="matrix(0.010850694444444444,0,0,0.010850694444444444,13.335503472222221,0)" xlink:href="#be"/><use transform="matrix(0.010850694444444444,0,0,0.010850694444444444,26.671006944444443,0)" xlink:href="#aI"/><use transform="matrix(0.010850694444444444,0,0,0.010850694444444444,40.006510416666664,0)" xlink:href="#aV"/><use transform="matrix(0.010850694444444444,0,0,0.010850694444444444,53.342013888888886,0)" xlink:href="#bb"/><use transform="matrix(0.010850694444444444,0,0,0.010850694444444444,66.67751736111111,0)" xlink:href="#aK"/></g><path fill="#3a414a" d="M802-711c201 25 350 118 350 331C1152-95 921 0 634 0H162v-1349c401 9 908-74 908 327 0 184-111 275-268 311zm-224-69c174-2 300-51 300-218 0-163-124-198-302-198H353v416h225zM353-153c281-2 612 44 606-244-5-271-329-233-606-234v478" id="bo"/><g id="U"><use transform="matrix(0.017361111111111105,0,0,0.017361111111111105,0,0)" xlink:href="#bo"/><use transform="matrix(0.017361111111111105,0,0,0.017361111111111105,21.336805555555546,0)" xlink:href="#aj"/><use transform="matrix(0.017361111111111105,0,0,0.017361111111111105,42.67361111111109,0)" xlink:href="#at"/><use transform="matrix(0.017361111111111105,0,0,0.017361111111111105,64.01041666666664,0)" xlink:href="#ax"/><use transform="matrix(0.017361111111111105,0,0,0.017361111111111105,85.34722222222219,0)" xlink:href="#al"/></g><path fill="#3a414a" d="M709-1193V0H519v-1193H76v-156h1076v156H709" id="bp"/><g id="V"><use transform="matrix(0.017361111111111105,0,0,0.017361111111111105,0,0)" xlink:href="#bp"/><use transform="matrix(0.017361111111111105,0,0,0.017361111111111105,21.336805555555546,0)" xlink:href="#am"/><use transform="matrix(0.017361111111111105,0,0,0.017361111111111105,42.67361111111109,0)" xlink:href="#aj"/><use transform="matrix(0.017361111111111105,0,0,0.017361111111111105,64.01041666666664,0)" xlink:href="#at"/><use transform="matrix(0.017361111111111105,0,0,0.017361111111111105,85.34722222222219,0)" xlink:href="#aA"/><use transform="matrix(0.017361111111111105,0,0,0.017361111111111105,106.68402777777773,0)" xlink:href="#aj"/><use transform="matrix(0.017361111111111105,0,0,0.017361111111111105,128.0208333333333,0)" xlink:href="#ax"/><use transform="matrix(0.017361111111111105,0,0,0.017361111111111105,149.35763888888883,0)" xlink:href="#ax"/><use transform="matrix(0.017361111111111105,0,0,0.017361111111111105,170.69444444444437,0)" xlink:href="#av"/><use transform="matrix(0.017361111111111105,0,0,0.017361111111111105,192.0312499999999,0)" xlink:href="#al"/><use transform="matrix(0.017361111111111105,0,0,0.017361111111111105,213.36805555555546,0)" xlink:href="#at"/></g><g id="W"><use transform="matrix(0.010850694444444442,0,0,0.010850694444444442,0,0)" xlink:href="#bm"/><use transform="matrix(0.010850694444444442,0,0,0.010850694444444442,13.33550347222222,0)" xlink:href="#aW"/><use transform="matrix(0.010850694444444442,0,0,0.010850694444444442,26.67100694444444,0)" xlink:href="#aY"/><use transform="matrix(0.010850694444444442,0,0,0.010850694444444442,40.00651041666666,0)" xlink:href="#aV"/><use transform="matrix(0.010850694444444442,0,0,0.010850694444444442,53.34201388888888,0)" xlink:href="#aI"/><use transform="matrix(0.010850694444444442,0,0,0.010850694444444442,66.6775173611111,0)" xlink:href="#aZ"/><use transform="matrix(0.010850694444444442,0,0,0.010850694444444442,80.01302083333331,0)" xlink:href="#aK"/></g><path d="M27 0v-27h64v-190l-56 39v-29l58-41h29v221h61V0H27" id="bq"/><use transform="matrix(0.06234567901234567,0,0,0.06234567901234567,0,0)" xlink:href="#bq" id="X"/><path d="M650-216c90 0 157-35 208-74v-235H584v-218h544v558C1004-84 858 20 635 20 235 20 80-276 80-681c0-416 146-689 558-689 277 0 398 160 462 375l-274 54c-31-108-73-197-185-197-231 0-262 217-262 457 0 149 22 263 67 344s113 121 204 121" id="br"/><path d="M1113-274C1038-96 884 20 626 20c-352 0-526-209-526-566 0-358 185-556 530-556 358 0 496 251 499 615H395c5 180 68 319 245 319 102 0 186-45 208-129zM857-663c-6-177-128-307-315-247-94 30-141 121-145 247h460" id="bs"/><path d="M768-1103c247 0 336 167 336 416V0H824v-619c-3-164-24-273-171-273-164 0-229 142-229 312V0H143c-4-359 9-736-8-1082h268c7 63 12 146 13 215h4c67-145 160-236 348-236" id="bt"/><path d="M875-1102c70 0 148 7 206 17v237c-110-17-267-37-359 15-123 69-192 207-192 395V0H250c-10-367 32-789-52-1082h271c19 69 36 149 46 228h4c52-151 151-250 356-248" id="bu"/><path d="M775-193C708-75 621 20 439 20 226 20 106-93 106-306c0-251 170-341 417-346l223-4c4-143-12-264-148-264-103 0-141 58-150 153l-293-14c37-219 194-321 455-321 263 0 418 130 417 390v392c1 84 5 161 89 160 21 0 42-2 62-6v152c-57 15-108 27-180 26-145 0-202-73-217-205h-6zm-256 17c168 0 234-139 227-325-166 4-347-25-347 173 0 94 33 152 120 152" id="bv"/><g id="Y"><use transform="matrix(0.01085069444444444,0,0,0.01085069444444444,0,0)" xlink:href="#br"/><use transform="matrix(0.01085069444444444,0,0,0.01085069444444444,13.335503472222218,0)" xlink:href="#bs"/><use transform="matrix(0.01085069444444444,0,0,0.01085069444444444,26.671006944444436,0)" xlink:href="#bt"/><use transform="matrix(0.01085069444444444,0,0,0.01085069444444444,40.00651041666666,0)" xlink:href="#bs"/><use transform="matrix(0.01085069444444444,0,0,0.01085069444444444,53.34201388888887,0)" xlink:href="#bu"/><use transform="matrix(0.01085069444444444,0,0,0.01085069444444444,66.67751736111109,0)" xlink:href="#bv"/></g><use transform="matrix(0.013129340277777771,0,0,0.013129340277777771,0,0)" xlink:href="#aP" id="Z"/><g id="aa"><use transform="matrix(0.013129340277777771,0,0,0.013129340277777771,0,0)" xlink:href="#aM"/><use transform="matrix(0.013129340277777771,0,0,0.013129340277777771,16.135959201388882,0)" xlink:href="#aN"/><use transform="matrix(0.013129340277777771,0,0,0.013129340277777771,32.271918402777764,0)" xlink:href="#aN"/><use transform="matrix(0.013129340277777771,0,0,0.013129340277777771,48.40787760416664,0)" xlink:href="#aO"/></g><path d="M1100-543c2 361-147 563-501 563-342 0-470-199-470-548v-821h295v818c3 172 13 322 183 320 173-2 198-150 198-330v-808h295v806" id="bw"/><path d="M711 13c-250 0-386-99-385-349l2-556H161v-190h181l88-282h176v282h385v190H606v530c-10 130 45 186 174 184 91-2 176-11 255-27v186C933-1 833 13 711 13" id="bx"/><path d="M794-190h353V0H118v-190h395v-702H223v-190h571v892zM513-1277v-207h281v207H513" id="by"/><path d="M794-190h353V0H118v-190h395v-1104H223v-190h571v1294" id="bz"/><path d="M138 0v-199l570-680H179v-203h849v201L461-205h616V0H138" id="bA"/><g id="ab"><use transform="matrix(0.0087890625,0,0,0.0087890625,0,0)" xlink:href="#bw"/><use transform="matrix(0.0087890625,0,0,0.0087890625,10.8017578125,0)" xlink:href="#bx"/><use transform="matrix(0.0087890625,0,0,0.0087890625,21.603515625,0)" xlink:href="#by"/><use transform="matrix(0.0087890625,0,0,0.0087890625,32.4052734375,0)" xlink:href="#bz"/><use transform="matrix(0.0087890625,0,0,0.0087890625,43.20703125,0)" xlink:href="#by"/><use transform="matrix(0.0087890625,0,0,0.0087890625,54.0087890625,0)" xlink:href="#bA"/><use transform="matrix(0.0087890625,0,0,0.0087890625,64.810546875,0)" xlink:href="#bv"/></g><g id="ac"><use transform="matrix(0.013020833333333334,0,0,0.013020833333333334,0,0)" xlink:href="#aM"/><use transform="matrix(0.013020833333333334,0,0,0.013020833333333334,16.002604166666668,0)" xlink:href="#aN"/><use transform="matrix(0.013020833333333334,0,0,0.013020833333333334,32.005208333333336,0)" xlink:href="#aN"/><use transform="matrix(0.013020833333333334,0,0,0.013020833333333334,48.0078125,0)" xlink:href="#aO"/></g><path d="M1157-949c0 209-118 316-279 368L1227 0H895L605-515H432V0H137v-1349h494c317-2 526 111 526 400zM608-744c158 1 248-51 252-193 5-207-223-184-428-183v376h176" id="bB"/><g id="ad"><use transform="matrix(0.010850694444444444,0,0,0.010850694444444444,0,0)" xlink:href="#bB"/><use transform="matrix(0.010850694444444444,0,0,0.010850694444444444,13.335503472222221,0)" xlink:href="#bs"/><use transform="matrix(0.010850694444444444,0,0,0.010850694444444444,26.671006944444443,0)" xlink:href="#bv"/><use transform="matrix(0.010850694444444444,0,0,0.010850694444444444,40.006510416666664,0)" xlink:href="#bz"/><use transform="matrix(0.010850694444444444,0,0,0.010850694444444444,53.342013888888886,0)" xlink:href="#by"/><use transform="matrix(0.010850694444444444,0,0,0.010850694444444444,66.67751736111111,0)" xlink:href="#bA"/><use transform="matrix(0.010850694444444444,0,0,0.010850694444444444,80.01302083333334,0)" xlink:href="#bv"/></g><path d="M622-916c-112 2-200 14-200 111 0 90 89 101 168 121 234 58 514 77 514 368C1104-4 751 54 434 5 267-21 161-112 121-270l247-37c24 111 113 145 252 141 114-3 226-12 226-124 0-101-103-113-192-134-225-54-490-76-490-351 0-247 201-328 458-328 245 0 413 88 457 292l-249 26c-16-98-92-133-208-131" id="bC"/><g id="ae"><use transform="matrix(0.0087890625,0,0,0.0087890625,0,0)" xlink:href="#bC"/><use transform="matrix(0.0087890625,0,0,0.0087890625,10.8017578125,0)" xlink:href="#bs"/></g><path d="M1108-33c-3 314-178 467-492 467-243 0-400-94-447-291l281-33c17 79 82 141 174 141 176 0 212-155 205-347-2-40 5-80 0-115C773-85 665-12 501-12c-288 0-377-242-377-538 0-242 65-426 223-510 50-26 108-39 175-39 160 0 253 78 307 191h5c1-58 5-125 14-174h266c-12 335-3 703-6 1049zM811-384c25-82 27-259 1-342-30-99-77-180-190-180-172 0-205 171-205 356 0 116 18 202 54 258 48 76 129 107 221 70 62-25 96-86 119-162" id="bD"/><g id="af"><use transform="matrix(0.0087890625,0,0,0.0087890625,0,0)" xlink:href="#bu"/><use transform="matrix(0.0087890625,0,0,0.0087890625,10.8017578125,0)" xlink:href="#bs"/><use transform="matrix(0.0087890625,0,0,0.0087890625,21.603515625,0)" xlink:href="#bD"/><use transform="matrix(0.0087890625,0,0,0.0087890625,32.4052734375,0)" xlink:href="#by"/><use transform="matrix(0.0087890625,0,0,0.0087890625,43.20703125,0)" xlink:href="#bC"/><use transform="matrix(0.0087890625,0,0,0.0087890625,54.0087890625,0)" xlink:href="#bx"/><use transform="matrix(0.0087890625,0,0,0.0087890625,64.810546875,0)" xlink:href="#bu"/><use transform="matrix(0.0087890625,0,0,0.0087890625,75.6123046875,0)" xlink:href="#bv"/></g></defs></g></svg>