<svg xmlns="http://www.w3.org/2000/svg" xmlns:xlink="http://www.w3.org/1999/xlink" xmlns:lucid="lucid" width="2043.8" height="889.22"><g transform="translate(1.0000000000000284 201)" lucid:page-tab-id="35g6b-9MDfbz"><path d="M0-500h2500v1500H0z" fill="#fff"/><path d="M640-100l96-80h884v704l-80 96H640z" stroke="#333" stroke-width="2" fill="#fff"/><path d="M640-100l96-80h884l-80 80z" stroke="#333" stroke-width="2" fill="#e6e6e6"/><path d="M1540-100l80-80v704l-80 96z" stroke="#333" stroke-width="2" fill="#ccc"/><use xlink:href="#a" transform="matrix(1,0,0,1,648,-92.00000000000004) translate(298.16849922839504 16.493055555555557)"/><use xlink:href="#b" transform="matrix(1,0,0,1,648,-92.00000000000004) translate(303.1067708333333 16.493055555555557)"/><use xlink:href="#c" transform="matrix(1,0,0,1,648,-92.00000000000004) translate(268.36024305555554 40.09722222222223)"/><use xlink:href="#d" transform="matrix(1,0,0,1,648,-92.00000000000004) translate(336.62413194444446 40.09722222222223)"/><use xlink:href="#e" transform="matrix(1,0,0,1,648,-92.00000000000004) translate(360.2526041666667 40.09722222222223)"/><use xlink:href="#f" transform="matrix(1,0,0,1,648,-92.00000000000004) translate(378.63802083333337 40.09722222222223)"/><path d="M640 26l79.2-66H1520v580.8l-66 79.2H640z" stroke="#333" stroke-width="2" fill="#fff"/><path d="M640 26l79.2-66H1520l-66 66z" stroke="#333" stroke-width="2" fill="#e6e6e6"/><path d="M1454 26l66-66v580.8l-66 79.2z" stroke="#333" stroke-width="2" fill="#ccc"/><use xlink:href="#g" transform="matrix(1,0,0,1,648.0000000000005,33.99999999999993) translate(214.79812885802465 16.493055555555557)"/><use xlink:href="#h" transform="matrix(1,0,0,1,648.0000000000005,33.99999999999993) translate(219.73640046296293 16.493055555555557)"/><use xlink:href="#i" transform="matrix(1,0,0,1,648.0000000000005,33.99999999999993) translate(293.21421682098764 16.493055555555557)"/><use xlink:href="#j" transform="matrix(1,0,0,1,648.0000000000005,33.99999999999993) translate(317.905574845679 16.493055555555557)"/><use xlink:href="#k" transform="matrix(1,0,0,1,648.0000000000005,33.99999999999993) translate(277.8263888888889 40.09722222222223)"/><path d="M1138.67 647.98l.14 1.82.44 1.76.7 1.67.93 1.54 1.18 1.38 1.37 1.17 1.54.95 1.68.7 1.75.4 1.8.15h258.85v.96h-258.87l-1.94-.16-1.9-.45-1.8-.75-1.68-1.03-1.5-1.28-1.26-1.5-1.02-1.66-.75-1.8-.46-1.9-.15-1.94V621.5h.95zm687.6.04l-.14 1.93-.45 1.9-.75 1.8-1.03 1.68-1.27 1.5-1.5 1.26-1.66 1.02-1.8.75-1.9.45-1.94.15h-258.87v-.95h258.83l1.8-.14 1.77-.42 1.67-.7 1.54-.94 1.38-1.17 1.17-1.38.95-1.54.7-1.67.4-1.76.15-1.82V621.5h.96z" stroke="#333" stroke-width=".05" fill="#333"/><path d="M1138.67 621.5h-.95v-.5h.95z" fill="#333"/><path stroke="#333" stroke-width=".05" fill="#333"/><path d="M1826.3 621.5h-.96v-.5h.95z" fill="#333"/><path stroke="#333" stroke-width=".05" fill="#333"/><use xlink:href="#l" transform="matrix(1,0,0,1,1409.0476409842913,637.78125) translate(33.067499999999995 16.493055555555557)"/><use xlink:href="#m" transform="matrix(1,0,0,1,1409.0476409842913,637.78125) translate(0.0049999999999954525 40.09722222222223)"/><use xlink:href="#n" transform="matrix(1,0,0,1,1409.0476409842913,637.78125) translate(61.610902777777774 40.09722222222223)"/><path d="M674.85 180H720v320h-45.15z" stroke="#333" stroke-width="2" fill="#fff"/><path d="M654.85 250h40v20h-40zM654.85 410h40v20h-40z" stroke="#333" stroke-width="2" fill="#fff"/><use xlink:href="#o" transform="matrix(-1.8369701987210297e-16,-1,1,-1.8369701987210297e-16,667.8795751227162,467.9999999999999) translate(95.97743055555556 29.07638888888889)"/><path d="M1681.8 386l31.2-26h308.8v228.8l-26 31.2h-314z" stroke="#333" stroke-width="2" fill="#fff"/><path d="M1681.8 386l31.2-26h308.8l-26 26z" stroke="#333" stroke-width="2" fill="#e6e6e6"/><path d="M1995.8 386l26-26v228.8l-26 31.2z" stroke="#333" stroke-width="2" fill="#ccc"/><use xlink:href="#g" transform="matrix(1,0,0,1,1689.8034030050835,393.99999999999994) translate(82.53886959876543 16.493055555555557)"/><use xlink:href="#p" transform="matrix(1,0,0,1,1689.8034030050835,393.99999999999994) translate(87.4771412037037 16.493055555555557)"/><use xlink:href="#q" transform="matrix(1,0,0,1,1689.8034030050835,393.99999999999994) translate(54.24739583333333 40.09722222222223)"/><use xlink:href="#r" transform="matrix(1,0,0,1,1689.8034030050835,393.99999999999994) translate(133.68315972222223 40.09722222222223)"/><path d="M1681.8 470.57l19.93-16.6h268.1v146.1L1953.2 620h-271.4z" stroke="#333" stroke-width="2" fill="#fff"/><path d="M1681.8 470.57l19.93-16.6h268.1l-16.62 16.6z" stroke="#333" stroke-width="2" fill="#e6e6e6"/><path d="M1953.2 470.57l16.62-16.6v146.1l-16.6 19.93z" stroke="#333" stroke-width="2" fill="#ccc"/><use xlink:href="#g" transform="matrix(1,0,0,1,1689.803403005083,478.5748624238519) translate(0.9092399691357969 16.493055555555557)"/><use xlink:href="#s" transform="matrix(1,0,0,1,1689.803403005083,478.5748624238519) translate(5.847511574074069 16.493055555555557)"/><use xlink:href="#t" transform="matrix(1,0,0,1,1689.803403005083,478.5748624238519) translate(95.12779706790124 16.493055555555557)"/><use xlink:href="#u" transform="matrix(1,0,0,1,1689.803403005083,478.5748624238519) translate(61.846354166666664 40.09722222222223)"/><path d="M1721.45 540h160v63.53h-160z" stroke="#333" stroke-width="2" fill="#fff"/><path d="M1701.45 545.88h40v20h-40zM1701.45 577.65h40v20h-40z" stroke="#333" stroke-width="2" fill="#fff"/><use xlink:href="#v" transform="matrix(1,0,0,1,1737.4481414303036,546.3534514544643) translate(10.736400462962955 19.774305555555554)"/><use xlink:href="#w" transform="matrix(1,0,0,1,1737.4481414303036,546.3534514544643) translate(8.993923611111114 43.37847222222222)"/><use xlink:href="#x" transform="matrix(1,0,0,1,1737.4481414303036,546.3534514544643) translate(48.290798611111114 43.37847222222222)"/><use xlink:href="#y" transform="matrix(1,0,0,1,1737.4481414303036,546.3534514544643) translate(94.28038194444444 43.37847222222222)"/><path d="M20 188l57.6-48H600v422.4L552 620H20z" stroke="#333" stroke-width="2" fill="#fff"/><path d="M20 188l57.6-48H600l-48 48z" stroke="#333" stroke-width="2" fill="#e6e6e6"/><path d="M552 188l48-48v422.4L552 620z" stroke="#333" stroke-width="2" fill="#ccc"/><use xlink:href="#a" transform="matrix(1,0,0,1,28,195.99999999999994) translate(158.16849922839506 16.493055555555557)"/><use xlink:href="#b" transform="matrix(1,0,0,1,28,195.99999999999994) translate(163.10677083333334 16.493055555555557)"/><use xlink:href="#z" transform="matrix(1,0,0,1,28,195.99999999999994) translate(160.46527777777777 40.09722222222223)"/><path d="M20 296l43.2-36H520v316.8L484 620H20z" stroke="#333" stroke-width="2" fill="#fff"/><path d="M20 296l43.2-36H520l-36 36z" stroke="#333" stroke-width="2" fill="#e6e6e6"/><path d="M484 296l36-36v316.8L484 620z" stroke="#333" stroke-width="2" fill="#ccc"/><use xlink:href="#g" transform="matrix(1,0,0,1,27.99999999999997,303.99999999999994) translate(81.79812885802467 16.493055555555557)"/><use xlink:href="#h" transform="matrix(1,0,0,1,27.99999999999997,303.99999999999994) translate(86.73640046296293 16.493055555555557)"/><use xlink:href="#i" transform="matrix(1,0,0,1,27.99999999999997,303.99999999999994) translate(160.21421682098764 16.493055555555557)"/><use xlink:href="#j" transform="matrix(1,0,0,1,27.99999999999997,303.99999999999994) translate(184.90557484567904 16.493055555555557)"/><use xlink:href="#A" transform="matrix(1,0,0,1,27.99999999999997,303.99999999999994) translate(112.37413194444444 40.09722222222223)"/><use xlink:href="#B" transform="matrix(1,0,0,1,27.99999999999997,303.99999999999994) translate(202.73003472222223 40.09722222222223)"/><path d="M140 380h200v60H140z" stroke="#333" stroke-width="2" fill="#fff"/><path d="M120 385h40v20h-40zM120 415h40v20h-40z" stroke="#333" stroke-width="2" fill="#fff"/><use xlink:href="#C" transform="matrix(1,0,0,1,164,386) translate(37.22569444444444 30.57638888888889)"/><path d="M140 450h200v60H140z" stroke="#333" stroke-width="2" fill="#fff"/><path d="M120 455h40v20h-40zM120 485h40v20h-40z" stroke="#333" stroke-width="2" fill="#fff"/><use xlink:href="#D" transform="matrix(1,0,0,1,164,456) translate(37.698784722222214 30.57638888888889)"/><path d="M140 520h200v60H140z" stroke="#333" stroke-width="2" fill="#fff"/><path d="M120 525h40v20h-40zM120 555h40v20h-40z" stroke="#333" stroke-width="2" fill="#fff"/><use xlink:href="#E" transform="matrix(1,0,0,1,164,526) translate(41.75260416666667 30.57638888888889)"/><path d="M137 410h-4.8m-6.4 0h-9.6m-6.4 0H105l-.94.07-.9.22-.88.35-.8.5-.72.6-.6.72-.5.8-.37.88-.23.9-.07.95v6.2m0 8.27v12.4m0 8.26v12.4m0 8.27v6.2l.07.94.22.9.35.88.5.8.6.72.72.6.8.5.88.37.9.23.95.07h11.26" stroke="#3a414a" stroke-width="4" fill="none"/><path d="M139 411.98h-2.05v-3.96H139z" stroke="#3a414a" stroke-width=".05" fill="#3a414a"/><path d="M132.53 484l-14.27 4.63v-9.26z" stroke="#3a414a" stroke-width="4" fill="#3a414a"/><use xlink:href="#F" transform="matrix(1,0,0,1,15.3876953125,436.8046875) translate(0 14.9853515625)"/><path d="M382.98 543.73l-.1 1.17-.3 1.22-.47 1.15-.64 1.07-.82.95-.95.8-1.08.66-1.15.48-1.22.3-1.17.1h-11.34v-3.96h11.18l.7-.06.62-.15.58-.24.54-.33.48-.4.4-.5.34-.52.24-.6.15-.6.05-.7v-6.3h3.96zm0-14.97h-3.96V516h3.96zm0-21.28h-3.96v-12.76h3.96zm0-42.55h-3.96v-12.76h3.96zm0-21.27h-3.96V430.9h3.96zm-6.73-35.54l1.22.3 1.15.47 1.07.64.94.82.82.95.65 1.08.5 1.15.28 1.22.1 1.17v6.46h-3.96v-6.3l-.05-.7-.15-.62-.24-.58-.33-.54-.4-.48-.5-.4-.53-.34-.58-.24-.6-.15-.72-.05h-4.72v-3.96h4.88zm-28.45 3.86H343v-3.96h4.8zm16 0h-9.6v-3.96h9.6z" stroke="#3a414a" stroke-width=".05" fill="#3a414a"/><path d="M343.05 411.98H341v-3.96h2.05z" fill="#3a414a"/><path stroke="#3a414a" stroke-width=".05" fill="#3a414a"/><path d="M361.74 554.3l-14.27-4.65 14.27-4.63z" fill="#3a414a"/><path d="M363.7 557l-22.62-7.35 22.63-7.35zm-9.84-7.35l5.9 1.92v-3.84z" stroke="#3a414a" stroke-width=".05" fill="#3a414a"/><use xlink:href="#F" transform="matrix(1,0,0,1,343.19384765625,469.6306176692894) translate(0 14.9853515625)"/><path d="M248.6 648.92l.12 1.65.36 1.53.6 1.45.83 1.34 1.03 1.18 1.2 1.02 1.33.83 1.46.6 1.53.37 1.64.13h212.24v3.95h-212.4l-2.1-.17-2.15-.5-2.03-.84-1.88-1.15-1.67-1.4-1.43-1.68-1.14-1.87-.84-2.03-.52-2.13-.16-2.12v-64.44h3.95zm448.43.16l-.16 2.1-.5 2.14-.85 2.03-1.15 1.87-1.42 1.67-1.67 1.4-1.87 1.16-2.02.84-2.13.5-2.1.18H550.72V659h132.25l1.65-.12 1.52-.37 1.46-.6 1.35-.82 1.2-1.02 1-1.2.84-1.33.6-1.45.36-1.53.12-1.65V504.64h3.95z" stroke="#333" stroke-width=".05" fill="#333"/><path d="M258.5 601.14l-3.4 2-8.5-14.33-8.47 14.35-3.4-2 11.88-20.1zM706.94 521.14l-3.4 2-8.48-14.33-8.48 14.35-3.4-2 11.88-20.1z" stroke="#333" stroke-width=".05" fill="#333"/><use xlink:href="#l" transform="matrix(1,0,0,1,470.94296599973563,638.7812499999995) translate(0.005000000000002558 16.493055555555557)"/><use xlink:href="#G" transform="matrix(1,0,0,1,470.94296599973563,638.7812499999995) translate(12.129131944444449 40.09722222222223)"/><path d="M900 300h220v80H900z" stroke="#333" stroke-width="2" fill="#fff"/><path d="M880 310h40v20h-40zM880 350h40v20h-40z" stroke="#333" stroke-width="2" fill="#fff"/><use xlink:href="#H" transform="matrix(1,0,0,1,928,308) translate(46.57590663580247 16.493055555555557)"/><use xlink:href="#I" transform="matrix(1,0,0,1,928,308) translate(9.577256944444429 40.09722222222223)"/><use xlink:href="#J" transform="matrix(1,0,0,1,928,308) translate(72.60677083333333 40.09722222222223)"/><use xlink:href="#K" transform="matrix(1,0,0,1,928,308) translate(96.45225694444444 40.09722222222223)"/><use xlink:href="#L" transform="matrix(1,0,0,1,928,308) translate(42.04253472222222 60.93055555555556)"/><path d="M1200 200h220v59.78h-220z" stroke="#333" stroke-width="2" fill="#fff"/><path d="M1180 204.94h40v20h-40zM1180 234.84h40v20h-40z" stroke="#333" stroke-width="2" fill="#fff"/><use xlink:href="#H" transform="matrix(1,0,0,1,1228,205.97808925317858) translate(46.57590663580247 18.274305555555554)"/><use xlink:href="#I" transform="matrix(1,0,0,1,1228,205.97808925317858) translate(16.10069444444443 41.87847222222222)"/><use xlink:href="#J" transform="matrix(1,0,0,1,1228,205.97808925317858) translate(79.13020833333333 41.87847222222222)"/><use xlink:href="#M" transform="matrix(1,0,0,1,1228,205.97808925317858) translate(102.97569444444444 41.87847222222222)"/><path d="M900 500h220v59.78H900z" stroke="#333" stroke-width="2" fill="#fff"/><path d="M880 504.94h40v20h-40zM880 534.84h40v20h-40z" stroke="#333" stroke-width="2" fill="#fff"/><use xlink:href="#H" transform="matrix(1,0,0,1,928,505.97808925317855) translate(46.57590663580247 18.274305555555554)"/><use xlink:href="#I" transform="matrix(1,0,0,1,928,505.97808925317855) translate(4.225694444444429 41.87847222222222)"/><use xlink:href="#J" transform="matrix(1,0,0,1,928,505.97808925317855) translate(67.25520833333333 41.87847222222222)"/><use xlink:href="#N" transform="matrix(1,0,0,1,928,505.97808925317855) translate(91.10069444444444 41.87847222222222)"/><path d="M1200 405.06h220V480h-220z" stroke="#333" stroke-width="2" fill="#fff"/><path d="M1180 413.8h40v20h-40zM1180 451.26h40v20h-40z" stroke="#333" stroke-width="2" fill="#fff"/><g><use xlink:href="#H" transform="matrix(1,0,0,1,1228,412.54929918034776) translate(46.57590663580247 16.493055555555557)"/><use xlink:href="#I" transform="matrix(1,0,0,1,1228,412.54929918034776) translate(42.76302083333333 40.09722222222223)"/><use xlink:href="#O" transform="matrix(1,0,0,1,1228,412.54929918034776) translate(105.79253472222223 40.09722222222223)"/><use xlink:href="#P" transform="matrix(1,0,0,1,1228,412.54929918034776) translate(28.157986111111107 60.93055555555556)"/></g><path d="M900 100h220v59.78H900z" stroke="#333" stroke-width="2" fill="#fff"/><path d="M880 104.94h40v20h-40zM880 134.84h40v20h-40z" stroke="#333" stroke-width="2" fill="#fff"/><g><use xlink:href="#H" transform="matrix(1,0,0,1,928,105.97808925317858) translate(46.57590663580247 18.274305555555554)"/><use xlink:href="#I" transform="matrix(1,0,0,1,928,105.97808925317858) translate(6.526041666666657 41.87847222222222)"/><use xlink:href="#J" transform="matrix(1,0,0,1,928,105.97808925317858) translate(69.55555555555556 41.87847222222222)"/><use xlink:href="#Q" transform="matrix(1,0,0,1,928,105.97808925317858) translate(93.40104166666667 41.87847222222222)"/></g><path d="M801.48 200.94l-.1 1.1-.27 1.16-.44 1.08-.6 1-.77.9-.9.75-1 .62-1.1.45-1.13.27-1.1.1h-4.36v-2.96h4.24l.77-.05.7-.17.65-.27.6-.36.55-.46.46-.54.37-.6.27-.66.17-.7.05-.76v-4.93h2.96zm-17.5 7.42h-8.57v-2.95h8.6zm-14.3 0h-8.57v-2.95h8.6zm-14.3 0h-8.57v-2.95h8.6zm-14.3 0h-8.57v-2.95h8.6zm-14.3 0h-4.28v-2.95h4.3zm74.7-19.13h-2.96v-5.76h2.96zm0-20.86h-2.96v-5.76h2.96zm8.74-21.94h-4.16l-.77.06-.7.16-.65.27-.6.37-.55.46-.46.54-.37.6-.27.66-.17.7-.05.76v4.93h-2.96v-5.05l.1-1.1.27-1.15.44-1.1.6-1 .77-.88.9-.76 1-.6 1.1-.45 1.13-.28 1.1-.08h4.3zm66.05 0h-4.2v-2.94h4.2zm-9.84 0H858v-2.94h8.43zm-14.05 0h-8.43v-2.94h8.43zm-14.05 0h-8.44v-2.94h8.43zm-14.06 0h-8.43v-2.94h8.43z" stroke="#3a414a" stroke-width=".05" fill="#3a414a"/><path d="M878.95 144.96L859.6 156.4l-1.5-2.53 15.06-8.9-15.07-8.92 1.5-2.54z" stroke="#3a414a" stroke-width=".05" fill="#3a414a"/><path d="M722.54 208.36H721v-2.95h1.54z" fill="#3a414a"/><path stroke="#3a414a" stroke-width=".05" fill="#3a414a"/><g><use xlink:href="#R" transform="matrix(1,0,0,1,731.9889322433643,168.36965777148905) translate(0 11.100260416666668)"/><use xlink:href="#S" transform="matrix(1,0,0,1,731.9889322433643,168.36965777148905) translate(64.01041666666667 11.100260416666668)"/><use xlink:href="#T" transform="matrix(1,0,0,1,731.9889322433643,168.36965777148905) translate(80.01302083333334 11.100260416666668)"/></g><path d="M727.05 246.44h-4.55v-2.95h4.55zm15.17 0h-9.1v-2.95h9.1zm15.16 0h-9.1v-2.95h9.1zm15.17 0h-9.1v-2.95h9.1zm15.17 0h-9.1v-2.95h9.1zm15.16 0h-9.1v-2.95h9.1zm15.17 0h-9.1v-2.95h9.1zm15.17 0h-9.1v-2.95h9.1zm15.16 0h-9.1v-2.95h9.1zm15.17 0h-9.1v-2.95h9.1zm15.17 0h-9.1v-2.95h9.1zm150.17 0h-8.94v-2.95h8.93zm14.87 0h-8.93v-2.95h8.93zm14.88 0h-8.93v-2.95h8.93zm14.9 0h-8.94v-2.95h8.94zm14.87 0h-8.93v-2.95h8.92zm14.9 0h-8.94v-2.95h8.93zm14.87 0h-8.94v-2.95h8.93zm14.88 0h-8.93v-2.95h8.93zm14.88 0h-8.93v-2.95h8.93zm10.42 0h-4.47v-2.95h4.48z" stroke="#3a414a" stroke-width=".05" fill="#3a414a"/><path d="M722.54 246.44H721v-2.95h1.54z" fill="#3a414a"/><path stroke="#3a414a" stroke-width=".05" fill="#3a414a"/><path d="M1174.14 244.96l-14.26 4.64v-9.28z" fill="#3a414a"/><path d="M1178.92 244.96l-20.52 6.67V238.3zm-17.57 2.6l8.02-2.6-8.02-2.6z" stroke="#3a414a" stroke-width=".05" fill="#3a414a"/><g><use xlink:href="#U" transform="matrix(1,0,0,1,881.9889322433644,237.40812959161386) translate(0 11.100260416666666)"/><use xlink:href="#V" transform="matrix(1,0,0,1,881.9889322433644,237.40812959161386) translate(64.01041666666664 11.100260416666666)"/><use xlink:href="#W" transform="matrix(1,0,0,1,881.9889322433644,237.40812959161386) translate(80.01302083333331 11.100260416666666)"/></g><path d="M722.5 340h4.3m5.7 0h8.6m5.7 0h8.6m5.7 0h8.6m5.7 0h8.6m5.7 0h4.3l.94-.07.9-.22.88-.35.8-.5.72-.6.6-.72.5-.8.37-.88.23-.9.07-.95v-8.17l.07-.94.22-.92.35-.87.5-.8.6-.7.72-.62.8-.5.88-.35.9-.22.95-.07h5.24m6.98 0h10.48m6.98 0h10.48m6.98 0h5.24" stroke="#3a414a" stroke-width="3" fill="none"/><path d="M722.54 341.48H721v-2.96h1.54z" stroke="#3a414a" stroke-width=".05" fill="#3a414a"/><path d="M874.15 319.83l-14.27 4.64v-9.27z" stroke="#3a414a" stroke-width="3" fill="#3a414a"/><g><use xlink:href="#U" transform="matrix(1,0,0,1,726.912861695735,301.0487141813288) translate(0 11.100260416666666)"/><use xlink:href="#V" transform="matrix(1,0,0,1,726.912861695735,301.0487141813288) translate(64.01041666666664 11.100260416666666)"/><use xlink:href="#W" transform="matrix(1,0,0,1,726.912861695735,301.0487141813288) translate(80.01302083333331 11.100260416666666)"/></g><path d="M1029.28 425.1h-8.9v-2.94h8.9zm14.84 0h-8.9v-2.94h8.9zm14.84 0h-8.9v-2.94h8.9zm14.84 0h-8.9v-2.94h8.9zm14.83 0h-8.9v-2.94h8.9zm14.84 0h-8.9v-2.94h8.9zm14.84 0h-8.9v-2.94h8.9zm14.85 0h-8.9v-2.94h8.9zm14.84 0h-8.9v-2.94h8.9zm10.38 0h-4.45v-2.94h4.45zm-431.34-1.24h-4.54v-2.95h4.54zm15.12 0h-9.07v-2.95h9.06zm15.13 0h-9.1v-2.95h9.1zm15.1 0h-9.06v-2.95h9.07zm15.14 0h-9.08v-2.95h9.08zm15.12 0h-9.07v-2.95h9.06zm15.13 0h-9.1v-2.95h9.1zm15.1 0h-9.06v-2.95h9.07zm15.14 0h-9.08v-2.95h9.08zm15.12 0h-9.07v-2.95h9.06zm15.13 0h-9.1v-2.95h9.1z" stroke="#3a414a" stroke-width=".05" fill="#3a414a"/><path d="M722.54 423.86H721v-2.95h1.54z" fill="#3a414a"/><path stroke="#3a414a" stroke-width=".05" fill="#3a414a"/><path d="M1174.15 423.63l-14.27 4.64V419z" fill="#3a414a"/><path d="M1178.92 423.63l-20.52 6.67v-13.33zm-17.57 2.6l8.02-2.6-8-2.6z" stroke="#3a414a" stroke-width=".05" fill="#3a414a"/><g><use xlink:href="#R" transform="matrix(1,0,0,1,881.9889322433643,415.4562817196176) translate(0 11.100260416666668)"/><use xlink:href="#S" transform="matrix(1,0,0,1,881.9889322433643,415.4562817196176) translate(64.01041666666667 11.100260416666668)"/><use xlink:href="#T" transform="matrix(1,0,0,1,881.9889322433643,415.4562817196176) translate(80.01302083333334 11.100260416666668)"/></g><path d="M801.48 508.76l.05.77.17.7.27.64.37.6.46.55.54.46.6.37.66.27.7.16.76.07h5.18v2.95h-5.3l-1.1-.1-1.15-.27-1.1-.44-1-.63-.9-.76-.75-.88-.6-1-.46-1.1-.3-1.13-.08-1.12v-4.3h2.96zm27.22 7.54h-10.48v-2.95h10.48zm17.46 0h-10.48v-2.95h10.48zm12.22 0h-5.24v-2.95h5.24zm-63.2-43.17l1.13.27 1.1.45 1 .6.9.78.75.9.6 1 .46 1.07.3 1.14.08 1.12v4.3h-2.96v-4.2l-.05-.75-.17-.68-.27-.66-.37-.6-.46-.54-.54-.46-.6-.37-.66-.3-.7-.15-.76-.06h-4.23v-2.96h4.36zm-68.4 2.86h-4.28v-2.96h4.3zm14.3 0h-8.57v-2.96h8.6zm14.3 0h-8.57v-2.96h8.6zm14.3 0h-8.57v-2.96h8.6zm14.3 0h-8.57v-2.96h8.6z" stroke="#3a414a" stroke-width=".05" fill="#3a414a"/><path d="M722.54 476H721v-2.96h1.54z" fill="#3a414a"/><path stroke="#3a414a" stroke-width=".05" fill="#3a414a"/><path d="M874.15 514.82l-14.27 4.64v-9.28z" fill="#3a414a"/><path d="M878.92 514.82l-20.5 6.67v-13.35zm-17.56 2.6l8-2.6-8-2.6z" stroke="#3a414a" stroke-width=".05" fill="#3a414a"/><g><use xlink:href="#R" transform="matrix(1,0,0,1,731.9889322433643,487.11513971294215) translate(0 11.100260416666668)"/><use xlink:href="#S" transform="matrix(1,0,0,1,731.9889322433643,487.11513971294215) translate(64.01041666666667 11.100260416666668)"/><use xlink:href="#T" transform="matrix(1,0,0,1,731.9889322433643,487.11513971294215) translate(80.01302083333334 11.100260416666668)"/></g><defs><path fill="#333" d="M280-548l258 397H397L102-539v-19l295-389h141zm330 0l258 397H727L432-539v-19l295-389h141" id="X"/><path fill="#333" d="M210-169c-67 3-38 105-44 169h-31v-121c0-29-5-50-35-48C34-165 62-65 56 0H25l-1-190h30c1 10-1 24 2 32 10-44 99-50 107 0 11-21 27-35 58-36 85-2 47 119 55 194h-31v-121c0-29-5-49-35-48" id="Y"/><path fill="#333" d="M141-36C126-15 110 5 73 4 37 3 15-17 15-53c-1-64 63-63 125-63 3-35-9-54-41-54-24 1-41 7-42 31l-33-3c5-37 33-52 76-52 45 0 72 20 72 64v82c-1 20 7 32 28 27v20c-31 9-61-2-59-35zM48-53c0 20 12 33 32 33 41-3 63-29 60-74-43 2-92-5-92 41zm25-158c8-23 27-35 38-54h36v5l-58 49H73" id="Z"/><path fill="#333" d="M145-31C134-9 116 4 85 4 32 4 16-35 15-94c0-59 17-99 70-100 32-1 48 14 60 33 0-11-1-24 2-32h30l-1 268h-32zM93-21c41 0 51-33 51-76s-8-73-50-73c-40 0-46 35-46 75s5 74 45 74" id="aa"/><path fill="#333" d="M84 4C-5 8 30-112 23-190h32v120c0 31 7 50 39 49 72-2 45-101 50-169h31l1 190h-30c-1-10 1-25-2-33-11 22-28 36-60 37" id="ab"/><path fill="#333" d="M24-231v-30h32v30H24zM24 0v-190h32V0H24" id="ac"/><path fill="#333" d="M117-194c89-4 53 116 60 194h-32v-121c0-31-8-49-39-48C34-167 62-67 57 0H25l-1-190h30c1 10-1 24 2 32 11-22 29-35 61-36" id="ad"/><path fill="#333" d="M141-36C126-15 110 5 73 4 37 3 15-17 15-53c-1-64 63-63 125-63 3-35-9-54-41-54-24 1-41 7-42 31l-33-3c5-37 33-52 76-52 45 0 72 20 72 64v82c-1 20 7 32 28 27v20c-31 9-61-2-59-35zM48-53c0 20 12 33 32 33 41-3 63-29 60-74-43 2-92-5-92 41" id="ae"/><path fill="#333" d="M244-949l295 389v19L244-152H102l258-398-258-399h142zm349 0l295 389v19L593-152H451l258-398-258-399h142" id="af"/><g id="b"><use transform="matrix(0.008680555555555556,0,0,0.008680555555555556,0,0)" xlink:href="#X"/><use transform="matrix(0.04938271604938272,0,0,0.04938271604938272,8.34201388888889,0)" xlink:href="#Y"/><use transform="matrix(0.04938271604938272,0,0,0.04938271604938272,23.107445987654323,0)" xlink:href="#Z"/><use transform="matrix(0.04938271604938272,0,0,0.04938271604938272,32.98398919753087,0)" xlink:href="#aa"/><use transform="matrix(0.04938271604938272,0,0,0.04938271604938272,42.86053240740741,0)" xlink:href="#ab"/><use transform="matrix(0.04938271604938272,0,0,0.04938271604938272,52.737075617283956,0)" xlink:href="#ac"/><use transform="matrix(0.04938271604938272,0,0,0.04938271604938272,56.63831018518519,0)" xlink:href="#ad"/><use transform="matrix(0.04938271604938272,0,0,0.04938271604938272,66.51485339506173,0)" xlink:href="#ae"/><use transform="matrix(0.008680555555555556,0,0,0.008680555555555556,76.39139660493828,0)" xlink:href="#af"/></g><path fill="#333" d="M538-131c121 0 232-49 232-156 0-50-20-88-56-117-73-60-334-92-420-143-92-55-162-110-162-238 0-190 192-317 400-317 223 0 414 129 413 338H759c0-108-110-186-227-186-119 0-215 53-215 159 0 45 18 78 53 101 76 52 331 90 416 139 98 57 169 115 169 251C955-92 760 20 538 20c-176 0-314-68-386-174-38-55-57-115-57-179h185c6 129 116 202 258 202" id="ag"/><path fill="#333" d="M599-131c141 0 220-65 285-146l113 88C906-50 770 20 589 20 281 21 93-214 93-545c0-223 93-397 233-485 74-48 154-72 240-72 300 2 449 218 445 537v77H278c0 197 129 357 321 357zm227-509c-3-180-88-310-260-310-170 0-264 140-282 310h542" id="ah"/><path fill="#333" d="M663-916c-163-27-288 18-338 148V0H140v-1082h180l3 125c61-97 147-145 258-145 36 0 63 5 82 14v172" id="ai"/><path fill="#333" d="M497-251l268-831h189L566 0H425L33-1082h189" id="aj"/><path fill="#333" d="M341 0H156v-1082h185V0zm-91-1264c-68 0-108-42-109-105 0-62 41-107 109-107s110 44 110 107-42 105-110 105" id="ak"/><path fill="#333" d="M520 20C244 20 95-247 95-550c0-298 151-550 427-552 127 0 227 43 301 130v-564h185V0H838l-9-116C755-25 652 20 520 20zm48-965c-210 0-288 177-288 416 0 218 87 392 286 392 117 0 203-53 257-158v-497c-55-102-140-153-255-153" id="al"/><path fill="#333" d="M584 20C278 26 81-227 91-551c10-320 175-545 491-551 308-5 503 247 494 573-9 322-175 543-492 549zm-2-970c-208 0-305 185-305 421 0 216 106 398 307 398 211 0 307-186 307-420 0-214-109-399-309-399" id="am"/><g id="c"><use transform="matrix(0.008680555555555556,0,0,0.008680555555555556,0,0)" xlink:href="#ag"/><use transform="matrix(0.008680555555555556,0,0,0.008680555555555556,9.166666666666668,0)" xlink:href="#ah"/><use transform="matrix(0.008680555555555556,0,0,0.008680555555555556,18.585069444444446,0)" xlink:href="#ai"/><use transform="matrix(0.008680555555555556,0,0,0.008680555555555556,24.756944444444446,0)" xlink:href="#aj"/><use transform="matrix(0.008680555555555556,0,0,0.008680555555555556,33.36805555555556,0)" xlink:href="#ak"/><use transform="matrix(0.008680555555555556,0,0,0.008680555555555556,37.68229166666667,0)" xlink:href="#al"/><use transform="matrix(0.008680555555555556,0,0,0.008680555555555556,47.70833333333334,0)" xlink:href="#am"/><use transform="matrix(0.008680555555555556,0,0,0.008680555555555556,57.84722222222222,0)" xlink:href="#ai"/></g><path fill="#333" d="M589-945c-131 0-219 81-264 174V0H140v-1082h175l6 136c83-104 191-156 324-156 229 0 346 129 346 387V0H806v-716c-2-153-65-229-217-229" id="an"/><g id="d"><use transform="matrix(0.008680555555555556,0,0,0.008680555555555556,0,0)" xlink:href="#ah"/><use transform="matrix(0.008680555555555556,0,0,0.008680555555555556,9.418402777777779,0)" xlink:href="#an"/></g><path fill="#333" d="M341 0H156v-1536h185V0" id="ao"/><path fill="#333" d="M561-1102c238-4 403 126 403 351v498c0 99 13 178 38 237V0H808c-11-21-19-59-26-114C696-25 593 20 474 20c-199 0-368-130-365-320 4-251 214-359 490-356h180v-85c-1-135-86-212-229-212-115 0-232 67-233 171H131c20-205 206-316 430-320zM294-326c0 117 90 185 207 185 122 0 239-75 278-162v-222H634c-227 0-340 66-340 199" id="ap"/><g id="e"><use transform="matrix(0.008680555555555556,0,0,0.008680555555555556,0,0)" xlink:href="#ao"/><use transform="matrix(0.008680555555555556,0,0,0.008680555555555556,4.314236111111112,0)" xlink:href="#ap"/></g><path fill="#333" d="M491 20c-241-1-355-148-355-398v-704h185v699c0 164 67 246 200 246 141 0 235-53 282-158v-787h185V0H812l-4-107C736-22 630 20 491 20" id="aq"/><path fill="#333" d="M634-1102c292 0 422 254 422 573 0 298-143 547-420 549-137 0-242-48-317-145L310 0H140v-1536h185v573c75-93 178-139 309-139zm-44 965c207 0 281-175 281-413 0-224-79-395-283-395-122 0-210 57-263 170v468c57 113 145 170 265 170" id="ar"/><g id="f"><use transform="matrix(0.008680555555555556,0,0,0.008680555555555556,0,0)" xlink:href="#an"/><use transform="matrix(0.008680555555555556,0,0,0.008680555555555556,9.809027777777779,0)" xlink:href="#aq"/><use transform="matrix(0.008680555555555556,0,0,0.008680555555555556,19.609375,0)" xlink:href="#ar"/><use transform="matrix(0.008680555555555556,0,0,0.008680555555555556,29.583333333333336,0)" xlink:href="#ah"/></g><path fill="#333" d="M100-194c63 0 86 42 84 106H49c0 40 14 67 53 68 26 1 43-12 49-29l28 8c-11 28-37 45-77 45C44 4 14-33 15-96c1-61 26-98 85-98zm52 81c6-60-76-77-97-28-3 7-6 17-6 28h103" id="as"/><path fill="#333" d="M59-47c-2 24 18 29 38 22v24C64 9 27 4 27-40v-127H5v-23h24l9-43h21v43h35v23H59v120" id="at"/><path fill="#333" d="M100-194c62-1 85 37 85 99 1 63-27 99-86 99S16-35 15-95c0-66 28-99 85-99zM99-20c44 1 53-31 53-75 0-43-8-75-51-75s-53 32-53 75 10 74 51 75" id="au"/><path fill="#333" d="M114-163C36-179 61-72 57 0H25l-1-190h30c1 12-1 29 2 39 6-27 23-49 58-41v29" id="av"/><g id="h"><use transform="matrix(0.008680555555555556,0,0,0.008680555555555556,0,0)" xlink:href="#X"/><use transform="matrix(0.04938271604938272,0,0,0.04938271604938272,8.34201388888889,0)" xlink:href="#as"/><use transform="matrix(0.04938271604938272,0,0,0.04938271604938272,18.218557098765434,0)" xlink:href="#ad"/><use transform="matrix(0.04938271604938272,0,0,0.04938271604938272,28.095100308641978,0)" xlink:href="#at"/><use transform="matrix(0.04938271604938272,0,0,0.04938271604938272,33.033371913580254,0)" xlink:href="#au"/><use transform="matrix(0.04938271604938272,0,0,0.04938271604938272,42.9099151234568,0)" xlink:href="#av"/><use transform="matrix(0.04938271604938272,0,0,0.04938271604938272,48.78645833333334,0)" xlink:href="#ad"/><use transform="matrix(0.04938271604938272,0,0,0.04938271604938272,58.663001543209894,0)" xlink:href="#au"/></g><path fill="#333" d="M85-194c31 0 48 13 60 33l-1-100h32l1 261h-30c-2-10 0-23-3-31C134-8 116 4 85 4 32 4 16-35 15-94c0-66 23-100 70-100zm9 24c-40 0-46 34-46 75 0 40 6 74 45 74 42 0 51-32 51-76 0-42-9-74-50-73" id="aw"/><g id="i"><use transform="matrix(0.04938271604938272,0,0,0.04938271604938272,0,0)" xlink:href="#aw"/><use transform="matrix(0.04938271604938272,0,0,0.04938271604938272,9.876543209876544,0)" xlink:href="#as"/></g><path fill="#333" d="M24-231v-30h32v30H24zM-9 49c24 4 33-6 33-30v-209h32V24c2 40-23 58-65 49V49" id="ax"/><path fill="#333" d="M96-169c-40 0-48 33-48 73s9 75 48 75c24 0 41-14 43-38l32 2c-6 37-31 61-74 61-59 0-76-41-82-99-10-93 101-131 147-64 4 7 5 14 7 22l-32 3c-4-21-16-35-41-35" id="ay"/><path fill="#333" d="M100-194c62-1 85 37 85 99 1 63-27 99-86 99S16-35 15-95c0-66 28-99 85-99zM99-20c44 1 53-31 53-75 0-43-8-75-51-75s-53 32-53 75 10 74 51 75zM76-211c8-23 27-35 38-54h36v5l-58 49H76" id="az"/><g id="j"><use transform="matrix(0.04938271604938272,0,0,0.04938271604938272,0,0)" xlink:href="#as"/><use transform="matrix(0.04938271604938272,0,0,0.04938271604938272,9.876543209876544,0)" xlink:href="#ax"/><use transform="matrix(0.04938271604938272,0,0,0.04938271604938272,13.777777777777779,0)" xlink:href="#as"/><use transform="matrix(0.04938271604938272,0,0,0.04938271604938272,23.654320987654323,0)" xlink:href="#ay"/><use transform="matrix(0.04938271604938272,0,0,0.04938271604938272,32.543209876543216,0)" xlink:href="#ab"/><use transform="matrix(0.04938271604938272,0,0,0.04938271604938272,42.41975308641976,0)" xlink:href="#ay"/><use transform="matrix(0.04938271604938272,0,0,0.04938271604938272,51.308641975308646,0)" xlink:href="#ac"/><use transform="matrix(0.04938271604938272,0,0,0.04938271604938272,55.20987654320988,0)" xlink:href="#az"/><use transform="matrix(0.04938271604938272,0,0,0.04938271604938272,65.08641975308643,0)" xlink:href="#ad"/><use transform="matrix(0.008680555555555556,0,0,0.008680555555555556,74.96296296296296,0)" xlink:href="#af"/></g><path fill="#333" d="M1288 0h-193L362-1122V0H169v-1456h193l735 1127v-1127h191V0" id="aA"/><path fill="#333" d="M258 11c-71 0-114-43-114-108 0-67 42-112 114-112s116 45 116 112c-1 65-45 108-116 108" id="aB"/><path fill="#333" d="M19 279c92 0 127-48 127-150v-1211h185V125c0 208-94 312-283 312-41 0-78-6-113-18V271c21 5 49 8 84 8zm216-1543c-68 0-107-42-108-105 0-61 42-107 108-107 68 0 110 44 110 107s-42 105-110 105" id="aC"/><g id="k"><use transform="matrix(0.008680555555555556,0,0,0.008680555555555556,0,0)" xlink:href="#aA"/><use transform="matrix(0.008680555555555556,0,0,0.008680555555555556,12.673611111111112,0)" xlink:href="#am"/><use transform="matrix(0.008680555555555556,0,0,0.008680555555555556,22.8125,0)" xlink:href="#al"/><use transform="matrix(0.008680555555555556,0,0,0.008680555555555556,32.83854166666667,0)" xlink:href="#ah"/><use transform="matrix(0.008680555555555556,0,0,0.008680555555555556,42.25694444444444,0)" xlink:href="#aB"/><use transform="matrix(0.008680555555555556,0,0,0.008680555555555556,46.93576388888889,0)" xlink:href="#aC"/><use transform="matrix(0.008680555555555556,0,0,0.008680555555555556,51.18055555555556,0)" xlink:href="#ag"/></g><path fill="#333" d="M115-194c55 1 70 41 70 98S169 2 115 4C84 4 66-9 55-30l1 105H24l-1-265h31l2 30c10-21 28-34 59-34zm-8 174c40 0 45-34 45-75s-6-73-45-74c-42 0-51 32-51 76 0 43 10 73 51 73" id="aD"/><path fill="#333" d="M24 0v-261h32V0H24" id="aE"/><g id="l"><use transform="matrix(0.008680555555555556,0,0,0.008680555555555556,0,0)" xlink:href="#X"/><use transform="matrix(0.04938271604938272,0,0,0.04938271604938272,8.34201388888889,0)" xlink:href="#aD"/><use transform="matrix(0.04938271604938272,0,0,0.04938271604938272,18.218557098765434,0)" xlink:href="#av"/><use transform="matrix(0.04938271604938272,0,0,0.04938271604938272,24.095100308641978,0)" xlink:href="#au"/><use transform="matrix(0.04938271604938272,0,0,0.04938271604938272,33.97164351851852,0)" xlink:href="#at"/><use transform="matrix(0.04938271604938272,0,0,0.04938271604938272,38.90991512345679,0)" xlink:href="#au"/><use transform="matrix(0.04938271604938272,0,0,0.04938271604938272,48.786458333333336,0)" xlink:href="#ay"/><use transform="matrix(0.04938271604938272,0,0,0.04938271604938272,57.67534722222223,0)" xlink:href="#au"/><use transform="matrix(0.04938271604938272,0,0,0.04938271604938272,67.55189043209877,0)" xlink:href="#aE"/><use transform="matrix(0.008680555555555556,0,0,0.008680555555555556,71.45312500000001,0)" xlink:href="#af"/></g><path fill="#333" d="M1175-1298H707V0H516v-1298H49v-158h1126v158" id="aF"/><path fill="#333" d="M688-137c238 0 323-102 359-325h193c-32 297-228 482-552 482-361 0-569-299-569-680 0-197 8-360 73-497 88-186 257-317 513-319 316-2 509 195 535 488h-193c-31-212-118-330-342-330-272 0-397 224-393 523v141c-3 282 115 517 376 517" id="aG"/><path fill="#333" d="M1216-1011c-1 297-202 441-512 441H361V0H169v-1456h537c297-6 510 164 510 445zm-192 2c1-178-126-288-307-289H361v571h345c196 1 318-92 318-282" id="aH"/><path fill="#333" d="M177 125H18l608-1581h158" id="aI"/><path fill="#333" d="M375 0H183v-1456h192V0" id="aJ"/><path fill="#333" d="M134 290L29 218c97-132 105-239 98-437h181c1 144 5 239-50 347-34 67-74 121-124 162" id="aK"/><g id="m"><use transform="matrix(0.008680555555555556,0,0,0.008680555555555556,0,0)" xlink:href="#aF"/><use transform="matrix(0.008680555555555556,0,0,0.008680555555555556,10.364583333333334,0)" xlink:href="#aG"/><use transform="matrix(0.008680555555555556,0,0,0.008680555555555556,21.93576388888889,0)" xlink:href="#aH"/><use transform="matrix(0.008680555555555556,0,0,0.008680555555555556,33.15104166666667,0)" xlink:href="#aI"/><use transform="matrix(0.008680555555555556,0,0,0.008680555555555556,40.47743055555556,0)" xlink:href="#aJ"/><use transform="matrix(0.008680555555555556,0,0,0.008680555555555556,45.3125,0)" xlink:href="#aH"/><use transform="matrix(0.008680555555555556,0,0,0.008680555555555556,53.71527777777778,0)" xlink:href="#aK"/></g><path fill="#333" d="M417-1456L893-268l476-1188h249V0h-192c-4-403 4-794 18-1179L966 0H819L342-1176c15 384 23 773 19 1176H169v-1456h248" id="aL"/><path fill="#333" d="M521 20C240 20 96-239 96-550c0-303 147-552 427-552 132 0 235 47 309 140l9-120h169V-26c4 277-183 454-459 452-165-1-334-81-400-187l96-111c79 98 176 147 291 147 180 1 288-109 286-290v-93C750-23 649 20 521 20zm48-965c-209 0-287 178-287 416 0 217 86 392 285 392 117 0 202-53 257-159v-494c-57-103-142-155-255-155" id="aM"/><g id="n"><use transform="matrix(0.008680555555555556,0,0,0.008680555555555556,0,0)" xlink:href="#aL"/><use transform="matrix(0.008680555555555556,0,0,0.008680555555555556,15.520833333333334,0)" xlink:href="#am"/><use transform="matrix(0.008680555555555556,0,0,0.008680555555555556,25.659722222222225,0)" xlink:href="#an"/><use transform="matrix(0.008680555555555556,0,0,0.008680555555555556,35.46875,0)" xlink:href="#aM"/><use transform="matrix(0.008680555555555556,0,0,0.008680555555555556,45.442708333333336,0)" xlink:href="#am"/><use transform="matrix(0.008680555555555556,0,0,0.008680555555555556,55.58159722222222,0)" xlink:href="#am"/><use transform="matrix(0.008680555555555556,0,0,0.008680555555555556,65.72048611111111,0)" xlink:href="#ag"/><use transform="matrix(0.008680555555555556,0,0,0.008680555555555556,74.88715277777779,0)" xlink:href="#ah"/></g><path fill="#333" d="M456 20C285 20 205-92 206-268v-671H9v-143h197v-262h185v262h202v143H391v671c-9 125 92 149 207 118V0c-49 13-96 20-142 20" id="aN"/><g id="o"><use transform="matrix(0.008680555555555556,0,0,0.008680555555555556,0,0)" xlink:href="#ai"/><use transform="matrix(0.008680555555555556,0,0,0.008680555555555556,5.842013888888889,0)" xlink:href="#am"/><use transform="matrix(0.008680555555555556,0,0,0.008680555555555556,15.980902777777779,0)" xlink:href="#aq"/><use transform="matrix(0.008680555555555556,0,0,0.008680555555555556,25.78125,0)" xlink:href="#aN"/><use transform="matrix(0.008680555555555556,0,0,0.008680555555555556,31.588541666666668,0)" xlink:href="#ah"/><use transform="matrix(0.008680555555555556,0,0,0.008680555555555556,41.00694444444444,0)" xlink:href="#ai"/><use transform="matrix(0.008680555555555556,0,0,0.008680555555555556,45.95486111111111,0)" xlink:href="#aB"/><use transform="matrix(0.008680555555555556,0,0,0.008680555555555556,50.63368055555555,0)" xlink:href="#aC"/><use transform="matrix(0.008680555555555556,0,0,0.008680555555555556,54.878472222222214,0)" xlink:href="#ag"/></g><path fill="#333" d="M108 0H70L1-190h34L89-25l56-165h34" id="aO"/><g id="p"><use transform="matrix(0.008680555555555556,0,0,0.008680555555555556,0,0)" xlink:href="#X"/><use transform="matrix(0.04938271604938272,0,0,0.04938271604938272,8.34201388888889,0)" xlink:href="#aw"/><use transform="matrix(0.04938271604938272,0,0,0.04938271604938272,18.218557098765434,0)" xlink:href="#as"/><use transform="matrix(0.04938271604938272,0,0,0.04938271604938272,28.095100308641978,0)" xlink:href="#aO"/><use transform="matrix(0.04938271604938272,0,0,0.04938271604938272,36.98398919753087,0)" xlink:href="#ac"/><use transform="matrix(0.04938271604938272,0,0,0.04938271604938272,40.8852237654321,0)" xlink:href="#ay"/><use transform="matrix(0.04938271604938272,0,0,0.04938271604938272,49.77411265432099,0)" xlink:href="#as"/><use transform="matrix(0.008680555555555556,0,0,0.008680555555555556,59.65065586419753,0)" xlink:href="#af"/></g><path fill="#333" d="M1222-777c17 480-206 763-650 777H169v-1456h411c408 9 627 269 642 679zm-190 4c3-312-149-522-447-525H361v1141h202c308 0 473-209 469-531v-85" id="aP"/><g id="q"><use transform="matrix(0.008680555555555556,0,0,0.008680555555555556,0,0)" xlink:href="#aP"/><use transform="matrix(0.008680555555555556,0,0,0.008680555555555556,11.657986111111112,0)" xlink:href="#ap"/><use transform="matrix(0.008680555555555556,0,0,0.008680555555555556,21.328125,0)" xlink:href="#aN"/><use transform="matrix(0.008680555555555556,0,0,0.008680555555555556,27.135416666666668,0)" xlink:href="#ap"/><use transform="matrix(0.008680555555555556,0,0,0.008680555555555556,36.80555555555556,0)" xlink:href="#ar"/><use transform="matrix(0.008680555555555556,0,0,0.008680555555555556,46.77951388888889,0)" xlink:href="#ap"/><use transform="matrix(0.008680555555555556,0,0,0.008680555555555556,56.449652777777786,0)" xlink:href="#ag"/><use transform="matrix(0.008680555555555556,0,0,0.008680555555555556,65.61631944444446,0)" xlink:href="#ah"/></g><path fill="#333" d="M631-137c179 0 314-70 314-231 0-71-25-127-75-166s-141-77-272-115c-165-47-285-106-360-175s-112-154-112-255c0-245 231-397 495-397 206 0 369 89 449 218 43 68 65 142 65 223H942c0-184-129-283-321-283-172 0-299 76-301 236 0 59 26 109 76 150s135 78 256 113c205 59 345 116 436 256 35 53 50 119 50 193-2 256-231 398-507 390C333 12 90-129 80-422h193c0 187 160 285 358 285" id="aQ"/><g id="r"><use transform="matrix(0.008680555555555556,0,0,0.008680555555555556,0,0)" xlink:href="#aQ"/><use transform="matrix(0.008680555555555556,0,0,0.008680555555555556,10.546875,0)" xlink:href="#ah"/><use transform="matrix(0.008680555555555556,0,0,0.008680555555555556,19.96527777777778,0)" xlink:href="#ai"/><use transform="matrix(0.008680555555555556,0,0,0.008680555555555556,26.13715277777778,0)" xlink:href="#aj"/><use transform="matrix(0.008680555555555556,0,0,0.008680555555555556,34.63541666666667,0)" xlink:href="#ah"/><use transform="matrix(0.008680555555555556,0,0,0.008680555555555556,44.05381944444444,0)" xlink:href="#ai"/></g><path fill="#333" d="M141 0L90-78 38 0H4l68-98-65-92h35l48 74 47-74h35l-64 92 68 98h-35" id="aR"/><g id="s"><use transform="matrix(0.008680555555555556,0,0,0.008680555555555556,0,0)" xlink:href="#X"/><use transform="matrix(0.04938271604938272,0,0,0.04938271604938272,8.34201388888889,0)" xlink:href="#as"/><use transform="matrix(0.04938271604938272,0,0,0.04938271604938272,18.218557098765434,0)" xlink:href="#aR"/><use transform="matrix(0.04938271604938272,0,0,0.04938271604938272,27.107445987654323,0)" xlink:href="#as"/><use transform="matrix(0.04938271604938272,0,0,0.04938271604938272,36.98398919753087,0)" xlink:href="#ay"/><use transform="matrix(0.04938271604938272,0,0,0.04938271604938272,45.87287808641976,0)" xlink:href="#ab"/><use transform="matrix(0.04938271604938272,0,0,0.04938271604938272,55.7494212962963,0)" xlink:href="#at"/><use transform="matrix(0.04938271604938272,0,0,0.04938271604938272,60.68769290123457,0)" xlink:href="#ac"/><use transform="matrix(0.04938271604938272,0,0,0.04938271604938272,64.58892746913581,0)" xlink:href="#au"/><use transform="matrix(0.04938271604938272,0,0,0.04938271604938272,74.46547067901236,0)" xlink:href="#ad"/></g><g id="t"><use transform="matrix(0.04938271604938272,0,0,0.04938271604938272,0,0)" xlink:href="#as"/><use transform="matrix(0.04938271604938272,0,0,0.04938271604938272,9.876543209876544,0)" xlink:href="#ad"/><use transform="matrix(0.04938271604938272,0,0,0.04938271604938272,19.75308641975309,0)" xlink:href="#aO"/><use transform="matrix(0.04938271604938272,0,0,0.04938271604938272,28.641975308641978,0)" xlink:href="#ac"/><use transform="matrix(0.04938271604938272,0,0,0.04938271604938272,32.543209876543216,0)" xlink:href="#av"/><use transform="matrix(0.04938271604938272,0,0,0.04938271604938272,38.41975308641976,0)" xlink:href="#au"/><use transform="matrix(0.04938271604938272,0,0,0.04938271604938272,48.296296296296305,0)" xlink:href="#ad"/><use transform="matrix(0.04938271604938272,0,0,0.04938271604938272,58.17283950617284,0)" xlink:href="#Y"/><use transform="matrix(0.04938271604938272,0,0,0.04938271604938272,72.93827160493828,0)" xlink:href="#as"/><use transform="matrix(0.04938271604938272,0,0,0.04938271604938272,82.81481481481482,0)" xlink:href="#ad"/><use transform="matrix(0.04938271604938272,0,0,0.04938271604938272,92.69135802469137,0)" xlink:href="#at"/><use transform="matrix(0.008680555555555556,0,0,0.008680555555555556,97.62962962962965,0)" xlink:href="#af"/></g><path fill="#333" d="M1160-420C1159-145 963 0 674 0H169v-1456h476c294-1 476 112 476 388 0 153-99 253-216 302 146 38 255 167 255 346zM678-157c171 2 289-95 289-261 0-175-95-263-286-263H361v524h317zm250-912c-2-172-104-229-283-229H361v463h290c157 3 278-84 277-234" id="aS"/><g id="u"><use transform="matrix(0.008680555555555556,0,0,0.008680555555555556,0,0)" xlink:href="#aL"/><use transform="matrix(0.008680555555555556,0,0,0.008680555555555556,15.520833333333334,0)" xlink:href="#am"/><use transform="matrix(0.008680555555555556,0,0,0.008680555555555556,25.659722222222225,0)" xlink:href="#an"/><use transform="matrix(0.008680555555555556,0,0,0.008680555555555556,35.46875,0)" xlink:href="#aM"/><use transform="matrix(0.008680555555555556,0,0,0.008680555555555556,45.442708333333336,0)" xlink:href="#am"/><use transform="matrix(0.008680555555555556,0,0,0.008680555555555556,55.58159722222222,0)" xlink:href="#aP"/><use transform="matrix(0.008680555555555556,0,0,0.008680555555555556,67.23958333333334,0)" xlink:href="#aS"/></g><g id="v"><use transform="matrix(0.008680555555555556,0,0,0.008680555555555556,0,0)" xlink:href="#X"/><use transform="matrix(0.04938271604938272,0,0,0.04938271604938272,8.34201388888889,0)" xlink:href="#ay"/><use transform="matrix(0.04938271604938272,0,0,0.04938271604938272,17.23090277777778,0)" xlink:href="#au"/><use transform="matrix(0.04938271604938272,0,0,0.04938271604938272,27.107445987654323,0)" xlink:href="#Y"/><use transform="matrix(0.04938271604938272,0,0,0.04938271604938272,41.87287808641976,0)" xlink:href="#aD"/><use transform="matrix(0.04938271604938272,0,0,0.04938271604938272,51.7494212962963,0)" xlink:href="#au"/><use transform="matrix(0.04938271604938272,0,0,0.04938271604938272,61.62596450617284,0)" xlink:href="#ad"/><use transform="matrix(0.04938271604938272,0,0,0.04938271604938272,71.5025077160494,0)" xlink:href="#as"/><use transform="matrix(0.04938271604938272,0,0,0.04938271604938272,81.37905092592594,0)" xlink:href="#ad"/><use transform="matrix(0.04938271604938272,0,0,0.04938271604938272,91.25559413580248,0)" xlink:href="#at"/><use transform="matrix(0.008680555555555556,0,0,0.008680555555555556,96.19386574074076,0)" xlink:href="#af"/></g><path fill="#333" d="M483-459l28 192 41-173 288-1016h162l281 1016 40 176 31-196 226-996h193L1420 0h-175L945-1061l-23-111-23 111L588 0H413L61-1456h192" id="aT"/><g id="w"><use transform="matrix(0.008680555555555556,0,0,0.008680555555555556,0,0)" xlink:href="#aT"/><use transform="matrix(0.008680555555555556,0,0,0.008680555555555556,15.503472222222223,0)" xlink:href="#ah"/><use transform="matrix(0.008680555555555556,0,0,0.008680555555555556,24.921875,0)" xlink:href="#ar"/></g><g id="x"><use transform="matrix(0.008680555555555556,0,0,0.008680555555555556,0,0)" xlink:href="#aQ"/><use transform="matrix(0.008680555555555556,0,0,0.008680555555555556,10.546875,0)" xlink:href="#aN"/><use transform="matrix(0.008680555555555556,0,0,0.008680555555555556,16.180555555555557,0)" xlink:href="#am"/><use transform="matrix(0.008680555555555556,0,0,0.008680555555555556,26.319444444444446,0)" xlink:href="#ai"/><use transform="matrix(0.008680555555555556,0,0,0.008680555555555556,32.170138888888886,0)" xlink:href="#ah"/></g><g id="y"><use transform="matrix(0.008680555555555556,0,0,0.008680555555555556,0,0)" xlink:href="#aP"/><use transform="matrix(0.008680555555555556,0,0,0.008680555555555556,11.657986111111112,0)" xlink:href="#aS"/></g><path fill="#333" d="M362-157h690V0H169v-1456h193v1299" id="aU"/><path fill="#333" d="M632-1102c291 0 422 251 422 573 0 297-141 548-419 549-131 0-235-42-310-125v521H140v-1498h169l9 120c75-93 180-140 314-140zm-53 971c207 0 290-180 290-419 0-218-92-395-292-395-112 0-196 50-252 149v517c55 99 140 148 254 148" id="aV"/><g id="z"><use transform="matrix(0.008680555555555556,0,0,0.008680555555555556,0,0)" xlink:href="#aH"/><use transform="matrix(0.008680555555555556,0,0,0.008680555555555556,11.215277777777779,0)" xlink:href="#aG"/><use transform="matrix(0.008680555555555556,0,0,0.008680555555555556,22.786458333333336,0)" xlink:href="#aI"/><use transform="matrix(0.008680555555555556,0,0,0.008680555555555556,30.112847222222225,0)" xlink:href="#aU"/><use transform="matrix(0.008680555555555556,0,0,0.008680555555555556,39.67881944444444,0)" xlink:href="#ap"/><use transform="matrix(0.008680555555555556,0,0,0.008680555555555556,49.34895833333334,0)" xlink:href="#aV"/><use transform="matrix(0.008680555555555556,0,0,0.008680555555555556,59.32291666666668,0)" xlink:href="#aN"/><use transform="matrix(0.008680555555555556,0,0,0.008680555555555556,64.95659722222223,0)" xlink:href="#am"/><use transform="matrix(0.008680555555555556,0,0,0.008680555555555556,75.09548611111111,0)" xlink:href="#aV"/></g><g id="A"><use transform="matrix(0.008680555555555556,0,0,0.008680555555555556,0,0)" xlink:href="#aA"/><use transform="matrix(0.008680555555555556,0,0,0.008680555555555556,12.673611111111112,0)" xlink:href="#ap"/><use transform="matrix(0.008680555555555556,0,0,0.008680555555555556,22.213541666666668,0)" xlink:href="#aj"/><use transform="matrix(0.008680555555555556,0,0,0.008680555555555556,30.711805555555557,0)" xlink:href="#ah"/><use transform="matrix(0.008680555555555556,0,0,0.008680555555555556,40.130208333333336,0)" xlink:href="#aM"/><use transform="matrix(0.008680555555555556,0,0,0.008680555555555556,50.10416666666667,0)" xlink:href="#ap"/><use transform="matrix(0.008680555555555556,0,0,0.008680555555555556,59.77430555555556,0)" xlink:href="#al"/><use transform="matrix(0.008680555555555556,0,0,0.008680555555555556,69.80034722222223,0)" xlink:href="#am"/><use transform="matrix(0.008680555555555556,0,0,0.008680555555555556,79.93923611111111,0)" xlink:href="#ai"/></g><g id="B"><use transform="matrix(0.008680555555555556,0,0,0.008680555555555556,0,0)" xlink:href="#aT"/><use transform="matrix(0.008680555555555556,0,0,0.008680555555555556,15.503472222222223,0)" xlink:href="#ah"/><use transform="matrix(0.008680555555555556,0,0,0.008680555555555556,24.921875,0)" xlink:href="#ar"/></g><path fill="#333" d="M1240-945c-141 0-250 95-250 227V0H804v-709c0-157-77-236-231-236-121 0-204 52-249 155V0H139v-1082h175l5 120c79-93 186-140 321-140 151 0 254 58 309 174 69-98 181-174 345-174 237 0 362 126 362 377V0h-185v-714c-2-159-67-231-231-231" id="aW"/><path fill="#333" d="M589-945c-131 0-219 81-264 174V0H140v-1536h185v585c82-101 189-151 320-151 229 0 346 129 346 387V0H806v-716c-2-153-65-229-217-229" id="aX"/><g id="C"><use transform="matrix(0.008680555555555556,0,0,0.008680555555555556,0,0)" xlink:href="#aW"/><use transform="matrix(0.008680555555555556,0,0,0.008680555555555556,15.581597222222223,0)" xlink:href="#ap"/><use transform="matrix(0.008680555555555556,0,0,0.008680555555555556,25.251736111111118,0)" xlink:href="#ak"/><use transform="matrix(0.008680555555555556,0,0,0.008680555555555556,29.565972222222225,0)" xlink:href="#an"/><use transform="matrix(0.008680555555555556,0,0,0.008680555555555556,39.375,0)" xlink:href="#aB"/><use transform="matrix(0.008680555555555556,0,0,0.008680555555555556,44.05381944444444,0)" xlink:href="#aX"/><use transform="matrix(0.008680555555555556,0,0,0.008680555555555556,53.845486111111114,0)" xlink:href="#aN"/><use transform="matrix(0.008680555555555556,0,0,0.008680555555555556,59.65277777777778,0)" xlink:href="#aW"/><use transform="matrix(0.008680555555555556,0,0,0.008680555555555556,75.234375,0)" xlink:href="#ao"/></g><path fill="#333" d="M494-271l252-811h198L509 167C425 381 299 474 84 421V271c167 16 242-37 283-173l41-110L22-1082h202" id="aY"/><path fill="#333" d="M277-555c0 244 77 420 297 424 127 2 249-93 255-210h175C980-127 805 20 574 20 258 20 81-222 92-562c11-319 164-533 481-540 237-5 426 165 431 392H829c-7-133-115-242-256-240-209 4-296 166-296 395" id="aZ"/><g id="D"><use transform="matrix(0.008680555555555556,0,0,0.008680555555555556,0,0)" xlink:href="#ag"/><use transform="matrix(0.008680555555555556,0,0,0.008680555555555556,9.166666666666668,0)" xlink:href="#aN"/><use transform="matrix(0.008680555555555556,0,0,0.008680555555555556,14.973958333333336,0)" xlink:href="#aY"/><use transform="matrix(0.008680555555555556,0,0,0.008680555555555556,23.38541666666667,0)" xlink:href="#ao"/><use transform="matrix(0.008680555555555556,0,0,0.008680555555555556,27.699652777777782,0)" xlink:href="#ah"/><use transform="matrix(0.008680555555555556,0,0,0.008680555555555556,37.11805555555556,0)" xlink:href="#ag"/><use transform="matrix(0.008680555555555556,0,0,0.008680555555555556,46.284722222222236,0)" xlink:href="#aB"/><use transform="matrix(0.008680555555555556,0,0,0.008680555555555556,50.96354166666667,0)" xlink:href="#aZ"/><use transform="matrix(0.008680555555555556,0,0,0.008680555555555556,60.26909722222222,0)" xlink:href="#ag"/><use transform="matrix(0.008680555555555556,0,0,0.008680555555555556,69.4357638888889,0)" xlink:href="#ag"/></g><g id="E"><use transform="matrix(0.008680555555555556,0,0,0.008680555555555556,0,0)" xlink:href="#aZ"/><use transform="matrix(0.008680555555555556,0,0,0.008680555555555556,9.305555555555555,0)" xlink:href="#ap"/><use transform="matrix(0.008680555555555556,0,0,0.008680555555555556,18.975694444444443,0)" xlink:href="#ag"/><use transform="matrix(0.008680555555555556,0,0,0.008680555555555556,28.14236111111111,0)" xlink:href="#ak"/><use transform="matrix(0.008680555555555556,0,0,0.008680555555555556,32.45659722222222,0)" xlink:href="#an"/><use transform="matrix(0.008680555555555556,0,0,0.008680555555555556,42.265625,0)" xlink:href="#am"/><use transform="matrix(0.008680555555555556,0,0,0.008680555555555556,52.404513888888886,0)" xlink:href="#aB"/><use transform="matrix(0.008680555555555556,0,0,0.008680555555555556,57.08333333333333,0)" xlink:href="#aC"/><use transform="matrix(0.008680555555555556,0,0,0.008680555555555556,61.32812499999999,0)" xlink:href="#ag"/></g><path d="M116-571v-205l995-418v154L253-674l858 367v153" id="ba"/><path d="M736-142h380V0H134v-142h422v-1200H267v-142h469v1342" id="bb"/><path d="M745-142h380V0H143v-142h422v-798H246v-142h499v940zM545-1292v-192h200v192H545" id="bc"/><path d="M706-1102c241 0 344 136 343 381V0H868v-695c1-168-57-273-220-268-190 6-283 138-283 336V0H185c-3-360 6-732-6-1082h170c4 54 7 126 8 185h3c63-121 164-204 346-205" id="bd"/><path d="M914 0L548-499l-132 98V0H236v-1484h180v927l475-525h211L663-617 1125 0H914" id="be"/><path d="M114 20l821-1504h178L296 20H114" id="bf"/><path d="M116-154v-153l858-367-858-366v-154l995 418v205" id="bg"/><g id="F"><use transform="matrix(0.0087890625,0,0,0.0087890625,0,0)" xlink:href="#ba"/><use transform="matrix(0.0087890625,0,0,0.0087890625,10.8017578125,0)" xlink:href="#bb"/><use transform="matrix(0.0087890625,0,0,0.0087890625,21.603515625,0)" xlink:href="#bc"/><use transform="matrix(0.0087890625,0,0,0.0087890625,32.4052734375,0)" xlink:href="#bd"/><use transform="matrix(0.0087890625,0,0,0.0087890625,43.20703125,0)" xlink:href="#be"/><use transform="matrix(0.0087890625,0,0,0.0087890625,54.0087890625,0)" xlink:href="#bf"/><use transform="matrix(0.0087890625,0,0,0.0087890625,64.810546875,0)" xlink:href="#bg"/></g><path fill="#333" d="M1288 0h-193v-673H361V0H169v-1456h192v626h734v-626h193V0" id="bh"/><g id="G"><use transform="matrix(0.008680555555555556,0,0,0.008680555555555556,0,0)" xlink:href="#bh"/><use transform="matrix(0.008680555555555556,0,0,0.008680555555555556,12.421875000000002,0)" xlink:href="#aF"/><use transform="matrix(0.008680555555555556,0,0,0.008680555555555556,23.16840277777778,0)" xlink:href="#aF"/><use transform="matrix(0.008680555555555556,0,0,0.008680555555555556,33.77604166666667,0)" xlink:href="#aH"/><use transform="matrix(0.008680555555555556,0,0,0.008680555555555556,44.99131944444445,0)" xlink:href="#aQ"/></g><g id="H"><use transform="matrix(0.008680555555555556,0,0,0.008680555555555556,0,0)" xlink:href="#X"/><use transform="matrix(0.04938271604938272,0,0,0.04938271604938272,8.34201388888889,0)" xlink:href="#Y"/><use transform="matrix(0.04938271604938272,0,0,0.04938271604938272,23.107445987654323,0)" xlink:href="#az"/><use transform="matrix(0.04938271604938272,0,0,0.04938271604938272,32.98398919753087,0)" xlink:href="#aw"/><use transform="matrix(0.04938271604938272,0,0,0.04938271604938272,42.86053240740741,0)" xlink:href="#ab"/><use transform="matrix(0.04938271604938272,0,0,0.04938271604938272,52.737075617283956,0)" xlink:href="#aE"/><use transform="matrix(0.04938271604938272,0,0,0.04938271604938272,56.63831018518519,0)" xlink:href="#au"/><use transform="matrix(0.008680555555555556,0,0,0.008680555555555556,66.51485339506173,0)" xlink:href="#af"/></g><path fill="#333" d="M584 20C278 26 81-227 91-551c10-320 175-545 491-551 308-5 503 247 494 573-9 322-175 543-492 549zm-2-970c-208 0-305 185-305 421 0 216 106 398 307 398 211 0 307-186 307-420 0-214-109-399-309-399zm84-584h224l-268 294H473" id="bi"/><g id="I"><use transform="matrix(0.008680555555555556,0,0,0.008680555555555556,0,0)" xlink:href="#aM"/><use transform="matrix(0.008680555555555556,0,0,0.008680555555555556,9.973958333333334,0)" xlink:href="#ah"/><use transform="matrix(0.008680555555555556,0,0,0.008680555555555556,19.392361111111114,0)" xlink:href="#ag"/><use transform="matrix(0.008680555555555556,0,0,0.008680555555555556,28.559027777777782,0)" xlink:href="#aN"/><use transform="matrix(0.008680555555555556,0,0,0.008680555555555556,34.36631944444445,0)" xlink:href="#ak"/><use transform="matrix(0.008680555555555556,0,0,0.008680555555555556,38.680555555555564,0)" xlink:href="#bi"/><use transform="matrix(0.008680555555555556,0,0,0.008680555555555556,48.81944444444446,0)" xlink:href="#an"/></g><g id="J"><use transform="matrix(0.008680555555555556,0,0,0.008680555555555556,0,0)" xlink:href="#al"/><use transform="matrix(0.008680555555555556,0,0,0.008680555555555556,10.026041666666668,0)" xlink:href="#ah"/></g><g id="K"><use transform="matrix(0.008680555555555556,0,0,0.008680555555555556,0,0)" xlink:href="#ah"/><use transform="matrix(0.008680555555555556,0,0,0.008680555555555556,9.305555555555557,0)" xlink:href="#aj"/><use transform="matrix(0.008680555555555556,0,0,0.008680555555555556,17.803819444444446,0)" xlink:href="#ah"/><use transform="matrix(0.008680555555555556,0,0,0.008680555555555556,27.222222222222225,0)" xlink:href="#an"/><use transform="matrix(0.008680555555555556,0,0,0.008680555555555556,37.03125,0)" xlink:href="#aN"/><use transform="matrix(0.008680555555555556,0,0,0.008680555555555556,42.66493055555555,0)" xlink:href="#am"/><use transform="matrix(0.008680555555555556,0,0,0.008680555555555556,52.80381944444445,0)" xlink:href="#ag"/></g><g id="L"><use transform="matrix(0.008680555555555556,0,0,0.008680555555555556,0,0)" xlink:href="#al"/><use transform="matrix(0.008680555555555556,0,0,0.008680555555555556,10.026041666666668,0)" xlink:href="#ah"/><use transform="matrix(0.008680555555555556,0,0,0.008680555555555556,19.444444444444446,0)" xlink:href="#aV"/><use transform="matrix(0.008680555555555556,0,0,0.008680555555555556,29.41840277777778,0)" xlink:href="#am"/><use transform="matrix(0.008680555555555556,0,0,0.008680555555555556,39.55729166666667,0)" xlink:href="#ai"/><use transform="matrix(0.008680555555555556,0,0,0.008680555555555556,46.00694444444445,0)" xlink:href="#aN"/><use transform="matrix(0.008680555555555556,0,0,0.008680555555555556,51.814236111111114,0)" xlink:href="#ak"/><use transform="matrix(0.008680555555555556,0,0,0.008680555555555556,56.12847222222222,0)" xlink:href="#aj"/><use transform="matrix(0.008680555555555556,0,0,0.008680555555555556,64.609375,0)" xlink:href="#am"/><use transform="matrix(0.008680555555555556,0,0,0.008680555555555556,74.74826388888889,0)" xlink:href="#ag"/></g><g id="M"><use transform="matrix(0.008680555555555556,0,0,0.008680555555555556,0,0)" xlink:href="#aV"/><use transform="matrix(0.008680555555555556,0,0,0.008680555555555556,9.973958333333334,0)" xlink:href="#ap"/><use transform="matrix(0.008680555555555556,0,0,0.008680555555555556,19.64409722222222,0)" xlink:href="#aM"/><use transform="matrix(0.008680555555555556,0,0,0.008680555555555556,29.618055555555557,0)" xlink:href="#am"/><use transform="matrix(0.008680555555555556,0,0,0.008680555555555556,39.75694444444444,0)" xlink:href="#ag"/></g><g id="N"><use transform="matrix(0.008680555555555556,0,0,0.008680555555555556,0,0)" xlink:href="#ap"/><use transform="matrix(0.008680555555555556,0,0,0.008680555555555556,9.67013888888889,0)" xlink:href="#aV"/><use transform="matrix(0.008680555555555556,0,0,0.008680555555555556,19.64409722222222,0)" xlink:href="#aq"/><use transform="matrix(0.008680555555555556,0,0,0.008680555555555556,29.444444444444443,0)" xlink:href="#ah"/><use transform="matrix(0.008680555555555556,0,0,0.008680555555555556,38.86284722222222,0)" xlink:href="#ag"/><use transform="matrix(0.008680555555555556,0,0,0.008680555555555556,48.029513888888886,0)" xlink:href="#aN"/><use transform="matrix(0.008680555555555556,0,0,0.008680555555555556,53.83680555555555,0)" xlink:href="#ap"/><use transform="matrix(0.008680555555555556,0,0,0.008680555555555556,63.50694444444444,0)" xlink:href="#ag"/></g><g id="O"><use transform="matrix(0.008680555555555556,0,0,0.008680555555555556,0,0)" xlink:href="#al"/><use transform="matrix(0.008680555555555556,0,0,0.008680555555555556,10.026041666666668,0)" xlink:href="#ah"/></g><path fill="#333" d="M704-1390c-164-38-297 28-288 194v114h231v143H416V0H231v-939H60v-143h171v-111c-12-274 208-416 483-347" id="bj"/><g id="P"><use transform="matrix(0.008680555555555556,0,0,0.008680555555555556,0,0)" xlink:href="#an"/><use transform="matrix(0.008680555555555556,0,0,0.008680555555555556,9.809027777777779,0)" xlink:href="#am"/><use transform="matrix(0.008680555555555556,0,0,0.008680555555555556,19.947916666666668,0)" xlink:href="#aN"/><use transform="matrix(0.008680555555555556,0,0,0.008680555555555556,25.755208333333336,0)" xlink:href="#ak"/><use transform="matrix(0.008680555555555556,0,0,0.008680555555555556,30.069444444444446,0)" xlink:href="#bj"/><use transform="matrix(0.008680555555555556,0,0,0.008680555555555556,36.24131944444444,0)" xlink:href="#ak"/><use transform="matrix(0.008680555555555556,0,0,0.008680555555555556,40.55555555555556,0)" xlink:href="#aZ"/><use transform="matrix(0.008680555555555556,0,0,0.008680555555555556,49.861111111111114,0)" xlink:href="#ap"/><use transform="matrix(0.008680555555555556,0,0,0.008680555555555556,59.53125,0)" xlink:href="#aZ"/><use transform="matrix(0.008680555555555556,0,0,0.008680555555555556,68.83680555555556,0)" xlink:href="#ak"/><use transform="matrix(0.008680555555555556,0,0,0.008680555555555556,73.15104166666667,0)" xlink:href="#am"/><use transform="matrix(0.008680555555555556,0,0,0.008680555555555556,83.28993055555556,0)" xlink:href="#an"/><use transform="matrix(0.008680555555555556,0,0,0.008680555555555556,93.09895833333334,0)" xlink:href="#ah"/><use transform="matrix(0.008680555555555556,0,0,0.008680555555555556,102.51736111111111,0)" xlink:href="#ag"/></g><g id="Q"><use transform="matrix(0.008680555555555556,0,0,0.008680555555555556,0,0)" xlink:href="#aq"/><use transform="matrix(0.008680555555555556,0,0,0.008680555555555556,9.800347222222223,0)" xlink:href="#ag"/><use transform="matrix(0.008680555555555556,0,0,0.008680555555555556,18.967013888888893,0)" xlink:href="#aq"/><use transform="matrix(0.008680555555555556,0,0,0.008680555555555556,28.76736111111111,0)" xlink:href="#ap"/><use transform="matrix(0.008680555555555556,0,0,0.008680555555555556,38.4375,0)" xlink:href="#ai"/><use transform="matrix(0.008680555555555556,0,0,0.008680555555555556,44.453125,0)" xlink:href="#ak"/><use transform="matrix(0.008680555555555556,0,0,0.008680555555555556,48.767361111111114,0)" xlink:href="#am"/><use transform="matrix(0.008680555555555556,0,0,0.008680555555555556,58.90625,0)" xlink:href="#ag"/></g><path d="M1000-272c3 95 12 159 101 161 21 0 41-3 59-7V-6c-44 10-86 16-139 16-141 2-191-84-197-217h-6C748-76 648 20 446 20c-207 0-318-120-318-322 0-266 194-348 454-354l236-4c12-191-40-305-222-305-140 0-220 47-232 172l-188-17c33-204 181-292 423-292 255 0 401 118 401 364v466zm-683-27c0 109 63 184 175 182 166-3 259-96 306-217 24-65 20-120 20-200-232 7-501-28-501 235" id="bk"/><path d="M904-1102c199 0 220 177 220 381V0H956v-686c-3-114 0-215-60-264-70-33-125-4-158 71-26 56-39 140-39 252V0H531v-686c-3-114-1-215-61-264-78-41-136 24-157 84-24 69-39 159-39 259V0H105c-3-360 6-732-6-1082h149c6 50 3 123 8 175 36-100 83-195 216-195 135 0 166 79 196 196 42-105 93-196 236-196" id="bl"/><path d="M865-914c-3-187-2-380-2-570h180v1261c0 76 1 155 6 223H877c-8-49-9-116-10-174h-5C801-44 708 26 530 26c-135 0-234-46-297-139s-95-232-95-419c0-377 131-566 392-566 176 0 271 63 335 184zm-286-51c-222 0-255 197-255 427 0 229 31 425 253 425 237 0 286-195 286-441 0-238-52-411-284-411" id="bm"/><path d="M615-1102c343 0 484 203 482 560-1 347-147 562-488 562-336 0-475-219-479-562-4-349 156-560 485-560zm-8 989c240 0 301-180 301-429 0-245-55-427-290-427-236 0-299 181-299 427 0 243 61 429 288 429" id="bn"/><g id="R"><use transform="matrix(0.006510416666666667,0,0,0.006510416666666667,0,0)" xlink:href="#bb"/><use transform="matrix(0.006510416666666667,0,0,0.006510416666666667,8.001302083333334,0)" xlink:href="#bb"/><use transform="matrix(0.006510416666666667,0,0,0.006510416666666667,16.002604166666668,0)" xlink:href="#bk"/><use transform="matrix(0.006510416666666667,0,0,0.006510416666666667,24.00390625,0)" xlink:href="#bl"/><use transform="matrix(0.006510416666666667,0,0,0.006510416666666667,32.005208333333336,0)" xlink:href="#bk"/><use transform="matrix(0.006510416666666667,0,0,0.006510416666666667,40.00651041666667,0)" xlink:href="#bm"/><use transform="matrix(0.006510416666666667,0,0,0.006510416666666667,48.00781250000001,0)" xlink:href="#bn"/></g><use transform="matrix(0.006510416666666667,0,0,0.006510416666666667,0,0)" xlink:href="#bk" id="S"/><path d="M839-1335c-182-6-269 67-259 253h491v142H580V0H400v-940H138v-142h262c-15-293 132-408 418-402 94 2 200 7 281 21v145c-75-10-177-14-260-17" id="bo"/><path d="M528 20c-247 0-343-132-343-381v-721h180v686c-4 177 45 284 224 277 194-8 279-136 279-336v-627h181c3 360-6 732 6 1082H885c-4-54-7-126-8-185h-3C809-64 714 20 528 20" id="bp"/><path d="M631 20c-350 0-501-215-501-562 0-355 162-560 502-560 250 0 399 118 446 323l-192 14c-23-124-109-196-262-196-242 0-305 171-305 415 1 245 61 427 304 427 151 0 248-77 267-215l190 12C1039-107 883 20 631 20" id="bq"/><path d="M615-1102c343 0 484 203 482 560-1 347-147 562-488 562-336 0-475-219-479-562-4-349 156-560 485-560zm-8 989c240 0 301-180 301-429 0-245-55-427-290-427-236 0-299 181-299 427 0 243 61 429 288 429zM503-1201v-20l227-239h197v29l-300 230H503" id="br"/><g id="T"><use transform="matrix(0.006510416666666667,0,0,0.006510416666666667,0,0)" xlink:href="#bo"/><use transform="matrix(0.006510416666666667,0,0,0.006510416666666667,8.001302083333334,0)" xlink:href="#bp"/><use transform="matrix(0.006510416666666667,0,0,0.006510416666666667,16.002604166666668,0)" xlink:href="#bd"/><use transform="matrix(0.006510416666666667,0,0,0.006510416666666667,24.00390625,0)" xlink:href="#bq"/><use transform="matrix(0.006510416666666667,0,0,0.006510416666666667,32.005208333333336,0)" xlink:href="#bc"/><use transform="matrix(0.006510416666666667,0,0,0.006510416666666667,40.00651041666667,0)" xlink:href="#br"/><use transform="matrix(0.006510416666666667,0,0,0.006510416666666667,48.00781250000001,0)" xlink:href="#bd"/></g><g id="U"><use transform="matrix(0.006510416666666666,0,0,0.006510416666666666,0,0)" xlink:href="#bb"/><use transform="matrix(0.006510416666666666,0,0,0.006510416666666666,8.001302083333332,0)" xlink:href="#bb"/><use transform="matrix(0.006510416666666666,0,0,0.006510416666666666,16.002604166666664,0)" xlink:href="#bk"/><use transform="matrix(0.006510416666666666,0,0,0.006510416666666666,24.003906249999996,0)" xlink:href="#bl"/><use transform="matrix(0.006510416666666666,0,0,0.006510416666666666,32.00520833333333,0)" xlink:href="#bk"/><use transform="matrix(0.006510416666666666,0,0,0.006510416666666666,40.00651041666666,0)" xlink:href="#bm"/><use transform="matrix(0.006510416666666666,0,0,0.006510416666666666,48.007812499999986,0)" xlink:href="#bn"/></g><use transform="matrix(0.006510416666666666,0,0,0.006510416666666666,0,0)" xlink:href="#bk" id="V"/><g id="W"><use transform="matrix(0.006510416666666666,0,0,0.006510416666666666,0,0)" xlink:href="#bo"/><use transform="matrix(0.006510416666666666,0,0,0.006510416666666666,8.001302083333332,0)" xlink:href="#bp"/><use transform="matrix(0.006510416666666666,0,0,0.006510416666666666,16.002604166666664,0)" xlink:href="#bd"/><use transform="matrix(0.006510416666666666,0,0,0.006510416666666666,24.003906249999996,0)" xlink:href="#bq"/><use transform="matrix(0.006510416666666666,0,0,0.006510416666666666,32.00520833333333,0)" xlink:href="#bc"/><use transform="matrix(0.006510416666666666,0,0,0.006510416666666666,40.00651041666666,0)" xlink:href="#br"/><use transform="matrix(0.006510416666666666,0,0,0.006510416666666666,48.007812499999986,0)" xlink:href="#bd"/></g></defs></g></svg>