<svg xmlns="http://www.w3.org/2000/svg" xmlns:xlink="http://www.w3.org/1999/xlink" xmlns:lucid="lucid" width="2321" height="3042"><g transform="translate(1260 441)" lucid:page-tab-id="DiK.De09sxX9"><path d="M-1500-500h3000v3500h-3000z" fill="#fff"/><path d="M-580-320c0 33.14-35.82 60-80 60s-80-26.86-80-60 35.82-60 80-60 80 26.86 80 60z" stroke="#282c33" stroke-width="2" fill="#fff"/><use xlink:href="#a" transform="matrix(1,0,0,1,-740,-380) translate(66.66949652777778 67.25043402777777)"/><path d="M-540-214a6 6 0 0 1 6-6h148a6 6 0 0 1 6 6v108a6 6 0 0 1-6 6h-148a6 6 0 0 1-6-6z" stroke="#282c33" stroke-width="2" fill="#fff"/><use xlink:href="#b" transform="matrix(1,0,0,1,-540,-220) translate(33.33073784722221 67.25043402777777)"/><path d="M-100-200c0 33.14-35.82 60-80 60s-80-26.86-80-60 35.82-60 80-60 80 26.86 80 60z" stroke="#282c33" stroke-width="2" fill="#fff"/><use xlink:href="#c" transform="matrix(1,0,0,1,-260,-260) translate(39.998489583333324 67.25043402777777)"/><path d="M-120 20c0 33.14-35.82 60-80 60s-80-26.86-80-60 35.82-60 80-60 80 26.86 80 60z" stroke="#282c33" stroke-width="2" fill="#fff"/><use xlink:href="#d" transform="matrix(1,0,0,1,-280,-40) translate(39.998489583333324 67.25043402777777)"/><path d="M-400 100c0 33.14-35.82 60-80 60s-80-26.86-80-60 35.82-60 80-60 80 26.86 80 60z" stroke="#282c33" stroke-width="2" fill="#fff"/><use xlink:href="#e" transform="matrix(1,0,0,1,-560,40) translate(13.327482638888876 67.25043402777777)"/><path d="M580-135.4a6 6 0 0 1 6-6h148a6 6 0 0 1 6 6v108a6 6 0 0 1-6 6H586a6 6 0 0 1-6-6z" stroke="#282c33" stroke-width="2" fill="#fff"/><use xlink:href="#f" transform="matrix(1,0,0,1,580,-141.39999999999975) translate(39.998489583333324 67.25043402777777)"/><path d="M520-271.4c0 27.6-44.77 50-100 50s-100-22.4-100-50 44.77-50 100-50 100 22.4 100 50z" stroke="#282c33" stroke-width="2" fill="#fff"/><use xlink:href="#g" transform="matrix(1,0,0,1,320,-321.39999999999975) translate(13.324227430555533 56.00043402777778)"/><path d="M600 138.6c0 33.14-35.82 60-80 60s-80-26.86-80-60 35.82-60 80-60 80 26.86 80 60z" stroke="#282c33" stroke-width="2" fill="#fff"/><use xlink:href="#h" transform="matrix(1,0,0,1,440,78.60000000000025) translate(53.33399305555556 67.25043402777777)"/><path d="M580 466a6 6 0 0 1 6-6h148a6 6 0 0 1 6 6v108a6 6 0 0 1-6 6H586a6 6 0 0 1-6-6z" stroke="#282c33" stroke-width="2" fill="#fff"/><use xlink:href="#i" transform="matrix(1,0,0,1,580,460) translate(19.99523437499998 67.25043402777777)"/><path d="M460-61.4c0 33.14-35.82 60-80 60s-80-26.86-80-60 35.82-60 80-60 80 26.86 80 60z" stroke="#282c33" stroke-width="2" fill="#fff"/><use xlink:href="#c" transform="matrix(1,0,0,1,300,-121.39999999999975) translate(39.998489583333324 67.25043402777777)"/><path d="M920 138.6c0 33.14-40.3 60-90 60s-90-26.86-90-60 40.3-60 90-60 90 26.86 90 60z" stroke="#282c33" stroke-width="2" fill="#fff"/><use xlink:href="#j" transform="matrix(1,0,0,1,740,78.60000000000025) translate(36.662986111111096 67.25043402777777)"/><path d="M-660-151.4c0 33.14-49.25 60-110 60s-110-26.86-110-60 49.25-60 110-60 110 26.86 110 60z" stroke="#282c33" stroke-width="2" fill="#fff"/><use xlink:href="#k" transform="matrix(1,0,0,1,-880,-211.39999999999975) translate(16.656475694444417 67.25043402777777)"/><path d="M-280-360c0 33.14-35.82 60-80 60s-80-26.86-80-60 35.82-60 80-60 80 26.86 80 60z" stroke="#282c33" stroke-width="2" fill="#fff"/><use xlink:href="#l" transform="matrix(1,0,0,1,-440,-420) translate(46.66624131944444 67.25043402777777)"/><path d="M1020-101.4c0 33.14-40.3 60-90 60s-90-26.86-90-60 40.3-60 90-60 90 26.86 90 60z" stroke="#282c33" stroke-width="2" fill="#fff"/><use xlink:href="#m" transform="matrix(1,0,0,1,840,-161.39999999999975) translate(43.33073784722221 67.25043402777777)"/><path d="M840-271.4c0 33.14-40.3 60-90 60s-90-26.86-90-60 40.3-60 90-60 90 26.86 90 60z" stroke="#282c33" stroke-width="2" fill="#fff"/><use xlink:href="#n" transform="matrix(1,0,0,1,660,-331.39999999999975) translate(49.998489583333324 67.25043402777777)"/><path d="M480 400c0 33.14-35.82 60-80 60s-80-26.86-80-60 35.82-60 80-60 80 26.86 80 60z" stroke="#282c33" stroke-width="2" fill="#fff"/><use xlink:href="#o" transform="matrix(1,0,0,1,320,340) translate(39.998489583333324 67.25043402777777)"/><path d="M480 640c0 33.14-35.82 60-80 60s-80-26.86-80-60 35.82-60 80-60 80 26.86 80 60z" stroke="#282c33" stroke-width="2" fill="#fff"/><use xlink:href="#a" transform="matrix(1,0,0,1,320,580) translate(66.66949652777778 67.25043402777777)"/><path d="M740 780c0 33.14-35.82 60-80 60s-80-26.86-80-60 35.82-60 80-60 80 26.86 80 60z" stroke="#282c33" stroke-width="2" fill="#fff"/><use xlink:href="#p" transform="matrix(1,0,0,1,580,720) translate(46.66624131944444 67.25043402777777)"/><path d="M1040 640c0 33.14-35.82 60-80 60s-80-26.86-80-60 35.82-60 80-60 80 26.86 80 60z" stroke="#282c33" stroke-width="2" fill="#fff"/><use xlink:href="#n" transform="matrix(1,0,0,1,880,580) translate(39.998489583333324 67.25043402777777)"/><path d="M880 1280c0 33.14-40.3 60-90 60s-90-26.86-90-60 40.3-60 90-60 90 26.86 90 60z" stroke="#282c33" stroke-width="2" fill="#fff"/><use xlink:href="#q" transform="matrix(1,0,0,1,700,1220) translate(9.991979166666647 65.51043402777778)"/><path d="M960 1100c0 33.14-40.3 60-90 60s-90-26.86-90-60 40.3-60 90-60 90 26.86 90 60z" stroke="#282c33" stroke-width="2" fill="#fff"/><use xlink:href="#r" transform="matrix(1,0,0,1,780,1040) translate(16.65973090277776 67.25043402777777)"/><path d="M-540 666a6 6 0 0 1 6-6h148a6 6 0 0 1 6 6v108a6 6 0 0 1-6 6h-148a6 6 0 0 1-6-6z" stroke="#282c33" stroke-width="2" fill="#fff"/><use xlink:href="#s" transform="matrix(1,0,0,1,-540,660) translate(33.33073784722221 67.25043402777777)"/><path d="M-300 500c0 33.14-40.3 60-90 60s-90-26.86-90-60 40.3-60 90-60 90 26.86 90 60z" stroke="#282c33" stroke-width="2" fill="#fff"/><use xlink:href="#t" transform="matrix(1,0,0,1,-480,440) translate(23.327482638888874 67.25043402777777)"/><path d="M-680 640c0 33.14-40.3 60-90 60s-90-26.86-90-60 40.3-60 90-60 90 26.86 90 60z" stroke="#282c33" stroke-width="2" fill="#fff"/><use xlink:href="#u" transform="matrix(1,0,0,1,-860,580) translate(56.66624131944444 67.25043402777777)"/><path d="M640 1300c0 33.14-40.3 60-90 60s-90-26.86-90-60 40.3-60 90-60 90 26.86 90 60z" stroke="#282c33" stroke-width="2" fill="#fff"/><use xlink:href="#a" transform="matrix(1,0,0,1,460,1240) translate(76.66949652777778 67.25043402777777)"/><path d="M-700 800c0 33.14-40.3 60-90 60s-90-26.86-90-60 40.3-60 90-60 90 26.86 90 60z" stroke="#282c33" stroke-width="2" fill="#fff"/><use xlink:href="#v" transform="matrix(1,0,0,1,-880,740) translate(56.66624131944444 67.25043402777777)"/><path d="M-640 960c0 33.14-40.3 60-90 60s-90-26.86-90-60 40.3-60 90-60 90 26.86 90 60z" stroke="#282c33" stroke-width="2" fill="#fff"/><use xlink:href="#w" transform="matrix(1,0,0,1,-820,900) translate(43.33073784722221 67.25043402777777)"/><path d="M-160 1000c0 33.14-40.3 60-90 60s-90-26.86-90-60 40.3-60 90-60 90 26.86 90 60z" stroke="#282c33" stroke-width="2" fill="#fff"/><use xlink:href="#n" transform="matrix(1,0,0,1,-340,940) translate(49.998489583333324 67.25043402777777)"/><path d="M-670.93 2126a6 6 0 0 1 6-6h148a6 6 0 0 1 6 6v108a6 6 0 0 1-6 6h-148a6 6 0 0 1-6-6z" stroke="#282c33" stroke-width="2" fill="#fff"/><use xlink:href="#x" transform="matrix(1,0,0,1,-670.9333333333334,2120) translate(6.659730902777762 67.25043402777777)"/><path d="M-290.93 2360c0 33.14-40.3 60-90 60s-90-26.86-90-60 40.3-60 90-60 90 26.86 90 60z" stroke="#282c33" stroke-width="2" fill="#fff"/><use xlink:href="#y" transform="matrix(1,0,0,1,-470.9333333333334,2300) translate(43.33073784722221 67.25043402777777)"/><path d="M-470.93 2520c0 33.14-40.3 60-90 60s-90-26.86-90-60 40.3-60 90-60 90 26.86 90 60z" stroke="#282c33" stroke-width="2" fill="#fff"/><use xlink:href="#z" transform="matrix(1,0,0,1,-650.9333333333334,2460) translate(49.998489583333324 67.25043402777777)"/><path d="M-190.93 2520c0 33.14-40.3 60-90 60s-90-26.86-90-60 40.3-60 90-60 90 26.86 90 60z" stroke="#282c33" stroke-width="2" fill="#fff"/><use xlink:href="#A" transform="matrix(1,0,0,1,-370.9333333333334,2460) translate(70.00174479166667 67.25043402777777)"/><path d="M-50.93 2340c0 33.14-40.3 60-90 60s-90-26.86-90-60 40.3-60 90-60 90 26.86 90 60z" stroke="#282c33" stroke-width="2" fill="#fff"/><use xlink:href="#B" transform="matrix(1,0,0,1,-230.9333333333334,2280) translate(36.662986111111096 67.25043402777777)"/><path d="M-437.2 2410.02l-67.46 59.96" stroke="#3a414a" stroke-width="4" fill="none"/><path d="M-433.82 2409.66l-2.1 1.87-2.64-2.95.96-.85zM-503.3 2471.42l-.97.85-3.77-1.93 2.1-1.87z" stroke="#3a414a" stroke-width=".05" fill="#3a414a"/><path d="M-344.72 2417.94l27.57 44.12" stroke="#3a414a" stroke-width="4" fill="none"/><path d="M-343.02 2416.94l-3.35 2.1-1.4-2.25 3.98-1.1zM-314.1 2463.2l-3.98 1.1-.77-1.24 3.35-2.1z" stroke="#3a414a" stroke-width=".05" fill="#3a414a"/><path d="M-288.63 2352.3l55.4-4.6" stroke="#3a414a" stroke-width="4" fill="none"/><path d="M-288.4 2354.27l-1.9.16-.32-2-.4-1.9 2.28-.2zM-231.24 2347.56l.4 1.9-2.3.2-.32-3.93 1.9-.16z" stroke="#3a414a" stroke-width=".05" fill="#3a414a"/><path d="M663 1080.23l114.5 13.3" stroke="#3a414a" stroke-width="4" fill="none"/><path d="M663.26 1078.28l-.45 3.92-1.8-.2v-4zM779.83 1091.8l-.25 1.27-.32 2.3-.03.35-2-.24.44-3.92z" stroke="#3a414a" stroke-width=".05" fill="#3a414a"/><path d="M662.17 1136.65l74.2 91.92" stroke="#3a414a" stroke-width="4" fill="none"/><path d="M663.74 1135.45l-3.07 2.48-.5-.63.07-.12.42-1.02.26-1.06.08-1.06v-2zM739.48 1229.28l-3.52 1.62-.17.1-1-1.23 3.08-2.48z" stroke="#3a414a" stroke-width=".05" fill="#3a414a"/><path d="M571.4 1142.98l-12.85 94.3" stroke="#3a414a" stroke-width="4" fill="none"/><path d="M573.36 1143.3l-3.9-.53.23-1.77h3.97zM560.52 1237.5l-.27 1.93-2.6-.22-1.35-.03.3-2.2z" stroke="#3a414a" stroke-width=".05" fill="#3a414a"/><path d="M-413.05 782.6l121 161.32" stroke="#3a414a" stroke-width="4" fill="none"/><path d="M-411.44 781.46l-3.16 2.37-2.12-2.83h4.94zM-288.9 944.86l-3.94 1.3-.83-1.1 3.16-2.37z" stroke="#3a414a" stroke-width=".05" fill="#3a414a"/><path d="M-530.12 782.33l-143.6 127.65" stroke="#3a414a" stroke-width="4" fill="none"/><path d="M-528.85 783.84l-2.52-2.84h5.72zM-672.38 911.42l-.95.85-3.78-1.92 2.1-1.88z" stroke="#3a414a" stroke-width=".05" fill="#3a414a"/><path d="M-542.94 740.1l-159.52 38.68" stroke="#3a414a" stroke-width="4" fill="none"/><path d="M-541 741.67l-1.53.37-.93-3.84 2.46-.6zM-701.95 780.7l-1.52.36-.15-.32-1.28-2.42-.52-.86 2.54-.6z" stroke="#3a414a" stroke-width=".05" fill="#3a414a"/><path d="M-542.94 698.6l-140.18-36.18" stroke="#3a414a" stroke-width="4" fill="none"/><path d="M-541 697.06v4.08l-2.48-.64 1-3.83zM-682.58 660.52l-1 3.83-2.53-.66.14-.24 1.43-2.45.45-.87z" stroke="#3a414a" stroke-width=".05" fill="#3a414a"/><path d="M-440 657.1l30.42-95.57" stroke="#3a414a" stroke-width="4" fill="none"/><path d="M-438.1 657.64l-.42 1.36h-4.14l.8-2.55zM-407 559.9l-.7 2.28-3.78-1.2.52-1.63z" stroke="#3a414a" stroke-width=".05" fill="#3a414a"/><path d="M660 583v134" stroke="#3a414a" stroke-width="4" fill="none"/><path d="M661.98 583.05H658V581H662zM661.98 719.06L660 719h-.92l-1.06.04v-2.1H662z" stroke="#3a414a" stroke-width=".05" fill="#3a414a"/><path d="M577.18 558.22l-106.3 49.07" stroke="#3a414a" stroke-width="4" fill="none"/><path d="M579 559.56l-1.03.48-1.66-3.6 2.7-1.23zM471.75 609.06l-1.43.66-1.7-2.17-.9-1 2.38-1.08z" stroke="#3a414a" stroke-width=".05" fill="#3a414a"/><path d="M577.35 518.88L462.8 441.12" stroke="#3a414a" stroke-width="4" fill="none"/><path d="M579 517.6v4.8l-2.8-1.92 2.2-3.27zM463.94 439.5l-2.22 3.28-2.15-1.46.6-.47 2.5-2.2z" stroke="#3a414a" stroke-width=".05" fill="#3a414a"/><path d="M742.77 520.92l152.68 79.62" stroke="#3a414a" stroke-width="4" fill="none"/><path d="M743.73 519.2l-1.82 3.5-.9-.47v-4.46zM898.8 600.07l-2.24 2-.85.84-1.2-.63 1.8-3.5z" stroke="#3a414a" stroke-width=".05" fill="#3a414a"/><path d="M620.1-18.7L556.08 81.92" stroke="#3a414a" stroke-width="4" fill="none"/><path d="M621.75-17.6l-3.34-2.13.44-.67h4.68zM557.76 82.94l-.86 1.36-3.8-1.37 1.33-2.1z" stroke="#3a414a" stroke-width=".05" fill="#3a414a"/><path d="M708.36-18.82l78.57 101.68" stroke="#3a414a" stroke-width="4" fill="none"/><path d="M709.95-19.98l-3.12 2.4-2.2-2.82h5zM790.14 83.78l-3.5 1.16-.46.2-.85-1.1 3.13-2.43z" stroke="#3a414a" stroke-width=".05" fill="#3a414a"/><path d="M743-87.55l94.56-7" stroke="#3a414a" stroke-width="4" fill="none"/><path d="M743.2-85.58l-2.2.16v-3.96l1.9-.14zM839.33-96.14l.36 2.3.22 1.1-2.26.16-.3-3.94 1.92-.14z" stroke="#3a414a" stroke-width=".05" fill="#3a414a"/><path d="M689.75-144.2l31.86-67.27" stroke="#3a414a" stroke-width="4" fill="none"/><path d="M691.56-143.4l-.48 1h-4.37l1.3-2.7zM720.87-213.6l3.6.72-1.1 2.3-3.57-1.68.68-1.43z" stroke="#3a414a" stroke-width=".05" fill="#3a414a"/><path d="M581.97-143.18L475.9-227.15" stroke="#3a414a" stroke-width="4" fill="none"/><path d="M586.13-142.4h-.17l-1.06.08-1.06.26-1.02.42-.94.57-.2.18-.98-.76 2.45-3.1zM477.16-228.67l-2.45 3.1-2.67-2.12 3.56-1.08.97-.35z" stroke="#3a414a" stroke-width=".05" fill="#3a414a"/><path d="M577-75.47L462.63-67.3" stroke="#3a414a" stroke-width="4" fill="none"/><path d="M579-73.63l-1.9.13-.3-3.94 2.2-.15zM462.82-65.34l-2 .15-.23-2.4-.26-1.52 2.2-.16z" stroke="#3a414a" stroke-width=".05" fill="#3a414a"/><path d="M-460.3-97.02l-19.4 134.04" stroke="#3a414a" stroke-width="4" fill="none"/><path d="M-458.34-96.7l-3.9-.55.24-1.75h4zM-477.75 37.25l-.26 1.8-2-.05h-.92l-1.08.05.34-2.36z" stroke="#3a414a" stroke-width=".05" fill="#3a414a"/><path d="M-377.63-102.97l116.36 80.55" stroke="#3a414a" stroke-width="4" fill="none"/><path d="M-376.46-104.57l-2.25 3.25-1.4-.96.34-.54.42-1.02.26-1.06.08-1.06v-.37zM-258-22.55l-2.18 1.7-1 .9-1.25-.87 2.24-3.25z" stroke="#3a414a" stroke-width=".05" fill="#3a414a"/><path d="M-377.02-171.85l115.46-16.5" stroke="#3a414a" stroke-width="4" fill="none"/><path d="M-376.7-169.9l-2.3.32v-4l1.75-.24zM-259.44-188.02l.4 1.3-2.3.33-.55-3.9 1.87-.26z" stroke="#3a414a" stroke-width=".05" fill="#3a414a"/><path d="M-428.6-222.8l39.17-78.35" stroke="#3a414a" stroke-width="4" fill="none"/><path d="M-426.82-221.95l-.47.95h-4.4l1.35-2.72zM-386.6-302.38l-1.08 2.16-3.54-1.76.76-1.5z" stroke="#3a414a" stroke-width=".05" fill="#3a414a"/><path d="M-537.47-221.97l-65.46-52.38" stroke="#3a414a" stroke-width="4" fill="none"/><path d="M-533.1-221h-.94l-1.06.08-1.06.26-1.02.42-.73.45-.84-.66 2.47-3.1zM-601.66-275.86l-2.47 3.1-2.07-1.67 2.75-1.88.62-.5z" stroke="#3a414a" stroke-width=".05" fill="#3a414a"/><path d="M-543-157.7l-114.15 3.17" stroke="#3a414a" stroke-width="4" fill="none"/><path d="M-541-155.78l-2 .06-.1-3.95 2.1-.06zM-657.04-152.56l-1.98.06-.07-1.33-.13-1.56-.15-1.04 2.23-.07z" stroke="#3a414a" stroke-width=".05" fill="#3a414a"/><path d="M600 1686a6 6 0 0 1 6-6h148a6 6 0 0 1 6 6v108a6 6 0 0 1-6 6H606a6 6 0 0 1-6-6z" stroke="#282c33" stroke-width="2" fill="#fff"/><use xlink:href="#C" transform="matrix(1,0,0,1,600,1680) translate(46.66624131944444 67.25043402777777)"/><path d="M907.2 1520c0 33.14-35.82 60-80 60s-80-26.86-80-60 35.82-60 80-60 80 26.86 80 60z" stroke="#282c33" stroke-width="2" fill="#fff"/><use xlink:href="#a" transform="matrix(1,0,0,1,747.1999999999998,1460) translate(66.66949652777778 67.25043402777777)"/><path d="M1020 1780c0 33.14-35.82 60-80 60s-80-26.86-80-60 35.82-60 80-60 80 26.86 80 60z" stroke="#282c33" stroke-width="2" fill="#fff"/><use xlink:href="#D" transform="matrix(1,0,0,1,860,1720) translate(33.33073784722221 67.25043402777777)"/><path d="M640 1540c0 33.14-35.82 60-80 60s-80-26.86-80-60 35.82-60 80-60 80 26.86 80 60z" stroke="#282c33" stroke-width="2" fill="#fff"/><use xlink:href="#p" transform="matrix(1,0,0,1,480,1480) translate(46.66624131944444 67.25043402777777)"/><path d="M500 1780c0 33.14-35.82 60-80 60s-80-26.86-80-60 35.82-60 80-60 80 26.86 80 60z" stroke="#282c33" stroke-width="2" fill="#fff"/><use xlink:href="#h" transform="matrix(1,0,0,1,340,1720) translate(53.33399305555556 67.25043402777777)"/><path d="M502.85 1779.24l94.3-38.48" stroke="#3a414a" stroke-width="4" fill="none"/><path d="M503.65 1781.05l-2.72 1.1.07-2.14v-.4l-.07-1.7 1.22-.5zM599 1742.13l-1.15.47-1.5-3.65 2.65-1.08z" stroke="#3a414a" stroke-width=".05" fill="#3a414a"/><path d="M858.66 1767.5l-95.68-14.73" stroke="#3a414a" stroke-width="4" fill="none"/><path d="M861.2 1765.88l-.74 2.52-.3 1.32-1.85-.3.6-3.9zM763.33 1750.82l-.6 3.9-1.73-.26v-4z" stroke="#3a414a" stroke-width=".05" fill="#3a414a"/><path d="M721.93 1677.34l67.7-101.2" stroke="#3a414a" stroke-width="4" fill="none"/><path d="M723.6 1678.4l-.4.6h-4.76l1.87-2.8zM789.7 1574.1l2.97 1.05-1.4 2.12-3.3-2.2.9-1.34z" stroke="#3a414a" stroke-width=".05" fill="#3a414a"/><path d="M642.37 1677.3l-48-80" stroke="#3a414a" stroke-width="4" fill="none"/><path d="M645.7 1679h-4.6l-.45-.74 3.4-2.04zM596.1 1596.33l-3.38 2.04-1.3-2.16 1.27-.37 2.54-.93z" stroke="#3a414a" stroke-width=".05" fill="#3a414a"/><path d="M-390 1020c0 33.14-40.3 60-90 60s-90-26.86-90-60 40.3-60 90-60 90 26.86 90 60z" stroke="#282c33" stroke-width="2" fill="#fff"/><use xlink:href="#a" transform="matrix(1,0,0,1,-570,960) translate(76.66949652777778 67.25043402777777)"/><path d="M-464.2 783l-11.6 174.12" stroke="#3a414a" stroke-width="4" fill="none"/><path d="M-462.23 783.18l-3.94-.26.12-1.92h3.96zM-473.83 957.2l-.13 1.97-3.96-.1.15-2.14z" stroke="#3a414a" stroke-width=".05" fill="#3a414a"/><path d="M-530.93 1546a6 6 0 0 1 6-6h148a6 6 0 0 1 6 6v108a6 6 0 0 1-6 6h-148a6 6 0 0 1-6-6z" stroke="#282c33" stroke-width="2" fill="#fff"/><use xlink:href="#E" transform="matrix(1,0,0,1,-530.9333333333334,1540) translate(46.66624131944444 67.25043402777777)"/><path d="M-650.93 1500c0 33.14-35.82 60-80 60-44.2 0-80-26.86-80-60s35.8-60 80-60c44.18 0 80 26.86 80 60z" stroke="#282c33" stroke-width="2" fill="#fff"/><use xlink:href="#F" transform="matrix(1,0,0,1,-810.9333333333334,1440) translate(66.66949652777778 67.25043402777777)"/><path d="M-630.93 1780c0 33.14-35.82 60-80 60-44.2 0-80-26.86-80-60s35.8-60 80-60c44.18 0 80 26.86 80 60z" stroke="#282c33" stroke-width="2" fill="#fff"/><use xlink:href="#w" transform="matrix(1,0,0,1,-790.9333333333334,1720) translate(33.33073784722221 67.25043402777777)"/><path d="M-350.93 1860c0 33.14-35.82 60-80 60-44.2 0-80-26.86-80-60s35.8-60 80-60c44.18 0 80 26.86 80 60z" stroke="#282c33" stroke-width="2" fill="#fff"/><use xlink:href="#G" transform="matrix(1,0,0,1,-510.9333333333334,1800) translate(39.998489583333324 67.25043402777777)"/><path d="M-50.93 1800c0 33.14-35.82 60-80 60-44.2 0-80-26.86-80-60s35.8-60 80-60c44.18 0 80 26.86 80 60z" stroke="#282c33" stroke-width="2" fill="#fff"/><use xlink:href="#u" transform="matrix(1,0,0,1,-210.9333333333334,1740) translate(46.66624131944444 67.25043402777777)"/><path d="M-50.93 1560c0 33.14-35.82 60-80 60-44.2 0-80-26.86-80-60s35.8-60 80-60c44.18 0 80 26.86 80 60z" stroke="#282c33" stroke-width="2" fill="#fff"/><use xlink:href="#v" transform="matrix(1,0,0,1,-210.9333333333334,1500) translate(46.66624131944444 67.25043402777777)"/><path d="M-330.93 1340c0 33.14-35.82 60-80 60-44.2 0-80-26.86-80-60s35.8-60 80-60c44.18 0 80 26.86 80 60z" stroke="#282c33" stroke-width="2" fill="#fff"/><use xlink:href="#h" transform="matrix(1,0,0,1,-490.9333333333334,1280) translate(53.33399305555556 67.25043402777777)"/><path d="M-584.5 223.95a6.86 6.86 0 0 1 9 0l71 62.1a5.25 5.25 0 0 1 0 7.9l-71 62.1a6.86 6.86 0 0 1-9 0l-71-62.1a5.25 5.25 0 0 1 0-7.9z" stroke="#282c33" stroke-width="2" fill="#fff"/><use xlink:href="#H" transform="matrix(1,0,0,1,-660,220) translate(33.33073784722221 75.37543402777777)"/><path d="M-577.72 219.6l-3.9-.65 4.5-26.88h4zm52.94-316.3l-44.92 268.38h-4l45.02-269.03z" stroke="#3a414a" stroke-width=".05" fill="#3a414a"/><path d="M-577.7 219.56l-.34 1.95-.83-.17-1.13-.08-1.13.08-.92.2.44-2.63z" fill="#3a414a"/><path stroke="#3a414a" stroke-width=".05" fill="#3a414a"/><path d="M-524.8-96.65l-3.9-.65.3-1.7h4z" fill="#3a414a"/><path stroke="#3a414a" stroke-width=".05" fill="#3a414a"/><use xlink:href="#I" transform="matrix(1,0,0,1,-578.8109507824662,171.68271553336865) translate(0 14.9853515625)"/><path d="M-458.9 656.4l-3.68 1.48-106.03-265.3h3.44v-2.02zM-572.5 372.2h-3.46v2l-5.13-12.84 3.68-1.47z" stroke="#3a414a" stroke-width=".05" fill="#3a414a"/><path d="M-582.23 358.43l1.1.24 1.13.08 1.13-.08.9-.2.57 1.45-3.67 1.47-1.2-3z" fill="#3a414a"/><path stroke="#3a414a" stroke-width=".05" fill="#3a414a"/><path d="M-457.87 659h-4.26l-.47-1.17 3.67-1.47z" fill="#3a414a"/><path stroke="#3a414a" stroke-width=".05" fill="#3a414a"/><use xlink:href="#J" transform="matrix(1,0,0,1,-575.9597741995984,372.1754210520695) translate(0 14.9853515625)"/><path d="M655.5 203.95a6.86 6.86 0 0 1 9 0l71 62.1a5.25 5.25 0 0 1 0 7.9l-71 62.1a6.86 6.86 0 0 1-9 0l-71-62.1a5.25 5.25 0 0 1 0-7.9z" stroke="#282c33" stroke-width="2" fill="#fff"/><use xlink:href="#K" transform="matrix(1,0,0,1,580,200) translate(46.66624131944444 75.37543402777777)"/><path d="M661.98 199.25H658v-12.8H662zm0-33.18H658V-18.4H662z" stroke="#3a414a" stroke-width=".05" fill="#3a414a"/><path d="M661.98-18.35H658v-2.05H662z" fill="#3a414a"/><path stroke="#3a414a" stroke-width=".05" fill="#3a414a"/><path d="M661.98 201.52l-.85-.2-1.13-.07-1.13.08-.85.2v-2.33H662z" fill="#3a414a"/><path stroke="#3a414a" stroke-width=".05" fill="#3a414a"/><use xlink:href="#I" transform="matrix(1,0,0,1,654.59912109375,166.07135416666654) translate(0 14.9853515625)"/><path d="M661.98 457H658v-81.2H662zm0-101.6H658v-14.65H662z" stroke="#3a414a" stroke-width=".05" fill="#3a414a"/><path d="M658.87 338.67l1.13.08 1.13-.08.85-.2v2.33H658v-2.32z" fill="#3a414a"/><path stroke="#3a414a" stroke-width=".05" fill="#3a414a"/><path d="M661.98 459H658v-2.05H662z" fill="#3a414a"/><path stroke="#3a414a" stroke-width=".05" fill="#3a414a"/><use xlink:href="#J" transform="matrix(1,0,0,1,654.59912109375,355.4046874999998) translate(0 14.9853515625)"/><path d="M500 1026a6 6 0 0 1 6-6h148a6 6 0 0 1 6 6v108a6 6 0 0 1-6 6H506a6 6 0 0 1-6-6z" stroke="#282c33" stroke-width="2" fill="#fff"/><use xlink:href="#L" transform="matrix(1,0,0,1,500,1020) translate(13.327482638888876 67.25043402777777)"/><path d="M935.5 743.95a6.86 6.86 0 0 1 9 0l71 62.1a5.25 5.25 0 0 1 0 7.9l-71 62.1a6.86 6.86 0 0 1-9 0l-71-62.1a5.25 5.25 0 0 1 0-7.9z" stroke="#282c33" stroke-width="2" fill="#fff"/><use xlink:href="#K" transform="matrix(1,0,0,1,860,740) translate(46.66624131944444 75.37543402777777)"/><path d="M940.13 738.44l-2.94 2.65-12.55-13.96v-5.9zm-26.28-29.22v5.9l-172.98-192.3 2.94-2.65z" stroke="#3a414a" stroke-width=".05" fill="#3a414a"/><path d="M743.84 520.2l-2.84 2.56v-5.7z" fill="#3a414a"/><path stroke="#3a414a" stroke-width=".05" fill="#3a414a"/><path d="M943.32 742l-1.1-.42-1.1-.25-1.12-.08-1.13.08-1.1.25-.1.03-.5-.55 2.93-2.64z" fill="#3a414a"/><path stroke="#3a414a" stroke-width=".05" fill="#3a414a"/><use xlink:href="#I" transform="matrix(1,0,0,1,913.8468212795558,707.983752490622) translate(0 14.9853515625)"/><path d="M911.9 901.44l-248.12 179-2.3-3.2L911.9 896.56zm27.63-19.92l-16.82 12.13v-4.87l14.52-10.46z" stroke="#3a414a" stroke-width=".05" fill="#3a414a"/><path d="M943.6 878.6l-4.1 2.95-2.32-3.2.13-.1.47.17 1.1.25 1.13.08 1.13-.08 1.1-.24.97-.37z" fill="#3a414a"/><path stroke="#3a414a" stroke-width=".05" fill="#3a414a"/><path d="M663.82 1080.4l-2.82 2.03v-4.87l.5-.36z" fill="#3a414a"/><path stroke="#3a414a" stroke-width=".05" fill="#3a414a"/><use xlink:href="#J" transform="matrix(1,0,0,1,911.9117186260283,884.9180053399526) translate(0 14.9853515625)"/><path d="M-95.06 223.22a9.43 9.43 0 0 1 10.12 0l99.88 63.56a3.82 3.82 0 0 1 0 6.44l-99.88 63.56a9.43 9.43 0 0 1-10.12 0l-99.88-63.56a3.82 3.82 0 0 1 0-6.44z" stroke="#282c33" stroke-width="2" fill="#fff"/><use xlink:href="#M" transform="matrix(1,0,0,1,-200,220) translate(36.65973090277776 75.37543402777777)"/><path d="M-123.1 403.74l-253.1 315.93-3.1-2.47 256.2-319.78zm33.4-41.7l-22.6 28.2v-6.3l19.5-24.36z" stroke="#3a414a" stroke-width=".05" fill="#3a414a"/><path d="M-376.18 719.63l-2.82 3.53v-5.8z" fill="#3a414a"/><path stroke="#3a414a" stroke-width=".05" fill="#3a414a"/><path d="M-89.74 362.1l-3.08-2.48.5-.63 1.14.2 1.18.05 1.18-.06 1.16-.2.53-.16z" fill="#3a414a"/><path stroke="#3a414a" stroke-width=".05" fill="#3a414a"/><use xlink:href="#I" transform="matrix(1,0,0,1,-123.10505206399034,383.64093412126704) translate(0 14.9853515625)"/><path d="M-21.55 196.6l-65.88 25.27-1.4-3.7 67.28-25.8zm599.4-229.9l-588.6 225.76v-4.23l587.17-225.2z" stroke="#3a414a" stroke-width=".05" fill="#3a414a"/><path d="M-87.7 221l-1.12-.2-1.18-.05-1.18.06-1.16.2-.7.2-.47-1.22 4.7-1.8z" fill="#3a414a"/><path stroke="#3a414a" stroke-width=".05" fill="#3a414a"/><path d="M579-33.73l-1.2.46-1.42-3.7 2.62-1z" fill="#3a414a"/><path stroke="#3a414a" stroke-width=".05" fill="#3a414a"/><use xlink:href="#I" transform="matrix(1,0,0,1,-21.546924406450245,182.22391049099278) translate(0 14.9853515625)"/><path d="M4.94 763.22a9.43 9.43 0 0 1 10.12 0l99.88 63.56a3.82 3.82 0 0 1 0 6.44l-99.88 63.56a9.43 9.43 0 0 1-10.12 0l-99.88-63.56a3.82 3.82 0 0 1 0-6.44z" stroke="#282c33" stroke-width="2" fill="#fff"/><use xlink:href="#K" transform="matrix(1,0,0,1,-100,760) translate(76.66624131944445 75.37543402777777)"/><path d="M-98.86 827.43l-1.43 3.68-36.33-14.2v-4.24zm-48.58-19v4.25l-230.42-90.1 1.44-3.7z" stroke="#3a414a" stroke-width=".05" fill="#3a414a"/><path d="M-376.37 718.9l-1.44 3.7-1.2-.48v-4.24z" fill="#3a414a"/><path stroke="#3a414a" stroke-width=".05" fill="#3a414a"/><path d="M-97.3 828.04l-.3 1-.1.96.1.96.27.92.27.5-3.28-1.3 1.44-3.67z" fill="#3a414a"/><path stroke="#3a414a" stroke-width=".05" fill="#3a414a"/><use xlink:href="#I" transform="matrix(1,0,0,1,-147.4359725064351,802.4715597595929) translate(0 14.9853515625)"/><path d="M498.4 1077.25l-2.15 3.3L173.88 869.2v-4.73zM163.1 857.4v4.7l-44.8-29.35 2.17-3.3z" stroke="#3a414a" stroke-width=".05" fill="#3a414a"/><path d="M120.5 829.47l-2.16 3.3-1.1-.72.1-.16.27-.94.1-.96-.1-.96-.27-.92-.47-.85-.35-.42z" fill="#3a414a"/><path stroke="#3a414a" stroke-width=".05" fill="#3a414a"/><path d="M499 1077.64v4.72l-2.8-1.83 2.17-3.3z" fill="#3a414a"/><path stroke="#3a414a" stroke-width=".05" fill="#3a414a"/><use xlink:href="#I" transform="matrix(1,0,0,1,163.08857951160292,853.0984353808415) translate(0 14.9853515625)"/><path d="M59.12 1177.93l-2.86 2.73-22.77-23.95V1151zm-36.43-38.3v5.72L-379.06 722.8l2.86-2.7z" stroke="#3a414a" stroke-width=".05" fill="#3a414a"/><path d="M-376.15 720.13l-2.85 2.7v-5.7z" fill="#3a414a"/><path stroke="#3a414a" stroke-width=".05" fill="#3a414a"/><path d="M62.3 1181.27l-.9-.26-1.15-.2-1.18-.05-1.18.06-1.18.2-.5-.38 2.87-2.72z" fill="#3a414a"/><path stroke="#3a414a" stroke-width=".05" fill="#3a414a"/><use xlink:href="#I" transform="matrix(1,0,0,1,22.687558794538347,1137.9683148989657) translate(0 14.9853515625)"/><path d="M54 1183.22a9.43 9.43 0 0 1 10.13 0l99.88 63.56a3.82 3.82 0 0 1 0 6.44l-99.87 63.56a9.43 9.43 0 0 1-10.12 0l-99.87-63.56a3.82 3.82 0 0 1 0-6.44z" stroke="#282c33" stroke-width="2" fill="#fff"/><use xlink:href="#K" transform="matrix(1,0,0,1,-50.933333333333394,1180) translate(76.66624131944445 75.37543402777777)"/><path d="M603.03 1676.74l-2.45 3.1-431.95-340.86v-5.03zm-445.2-351.32v5.03l-48.48-38.25 2.45-3.1z" stroke="#3a414a" stroke-width=".05" fill="#3a414a"/><path d="M111.84 1289.13l-2.45 3.1-2.16-1.7 3.53-2.25z" fill="#3a414a"/><path stroke="#3a414a" stroke-width=".05" fill="#3a414a"/><path d="M605.9 1679l-1 .08-1.06.26-1.02.42-.94.57-.32.28-1.02-.8 2.45-3.1z" fill="#3a414a"/><path stroke="#3a414a" stroke-width=".05" fill="#3a414a"/><use xlink:href="#I" transform="matrix(1,0,0,1,157.82996022854527,1322.0042438281885) translate(0 14.9853515625)"/><path d="M-441.25 1537.02l20.7-134.5" stroke="#3a414a" stroke-width="4" fill="none"/><path d="M-439.3 1537.27l-.25 1.73h-4l.36-2.33zM-418.28 1400.74l-.33 2.14-3.9-.6.28-1.9z" stroke="#3a414a" stroke-width=".05" fill="#3a414a"/><path d="M-367.95 1589.63l155.13-19.4" stroke="#3a414a" stroke-width="4" fill="none"/><path d="M-367.65 1591.58l-2.28.3v-4l1.8-.22zM-211.04 1569.1l.65 2.82-2.22.28-.5-3.92 1.9-.23z" stroke="#3a414a" stroke-width=".05" fill="#3a414a"/><path d="M-368.24 1651.68l173.3 108.3" stroke="#3a414a" stroke-width="4" fill="none"/><path d="M-367.15 1650.04l-2.1 3.35-.68-.45v-4.65zM-191.7 1759.7l-2.68 2.36-.38.38-1.27-.8 2.1-3.35z" stroke="#3a414a" stroke-width=".05" fill="#3a414a"/><path d="M-446.1 1663l10.33 134.16" stroke="#3a414a" stroke-width="4" fill="none"/><path d="M-444.1 1662.9l-3.95.3-.17-2.2h3.96zM-433.64 1799.07l-3.95.16-.14-1.97 3.94-.3z" stroke="#3a414a" stroke-width=".05" fill="#3a414a"/><path d="M-533.3 1657.03l-116.35 80.54" stroke="#3a414a" stroke-width="4" fill="none"/><path d="M-531.93 1654.04l.08 1.06.26 1.06.43 1.02.33.54-1.38.96-2.25-3.25 2.54-1.76zM-648.5 1739.17l-1.26.88-1.45-1.27-1.74-1.33 2.2-1.53z" stroke="#3a414a" stroke-width=".05" fill="#3a414a"/><path d="M-533.82 1570.4l-122.02-43.58" stroke="#3a414a" stroke-width="4" fill="none"/><path d="M-531.93 1568.97v4.2l-2.6-.93 1.33-3.72zM-655.13 1524.98l-1.33 3.72-2.4-.86 1.13-1.7 1.03-1.73zM-969.55 680.36h2.42l-10.2 20-3.52-1.8 11.3-22.15zm429.4-837.68l-418.6 821.24v-3.95h-2.42l417.5-819.1z" stroke="#3a414a" stroke-width=".05" fill="#3a414a"/><path d="M-541-163.37v5.67l-2.7-1.37 2.3-4.5z" fill="#3a414a"/><path stroke="#3a414a" stroke-width=".05" fill="#3a414a"/><path d="M-977.3 700.32l-.63 1.22-.94-.2-1.13-.1-1.13.1-1.1.24-.2.06 1.6-3.1z" fill="#3a414a"/><path stroke="#3a414a" stroke-width=".05" fill="#3a414a"/><use xlink:href="#I" transform="matrix(1,0,0,1,-969.5548790754829,659.9690736142345) translate(0 14.9853515625)"/><path d="M-984.5 703.95a6.86 6.86 0 0 1 9 0l71 62.1a5.25 5.25 0 0 1 0 7.9l-71 62.1a6.86 6.86 0 0 1-9 0l-70.98-62.1a5.25 5.25 0 0 1 0-7.9z" stroke="#282c33" stroke-width="2" fill="#fff"/><use xlink:href="#H" transform="matrix(1,0,0,1,-1060,700) translate(33.33073784722221 75.37543402777777)"/><path d="M-482.32 1536.23l-3.22 2.28-470.03-661.94h.58v-6zm-482.9-680.06h-.57v6l-14.65-20.65 3.22-2.28z" stroke="#3a414a" stroke-width=".05" fill="#3a414a"/><path d="M-982.23 838.42l1.1.25 1.13.08 1.13-.08 1.07-.24.6.85-3.22 2.28-2.38-3.35z" fill="#3a414a"/><path stroke="#3a414a" stroke-width=".05" fill="#3a414a"/><path d="M-480.35 1539h-4.84l-.37-.53 3.22-2.3z" fill="#3a414a"/><path stroke="#3a414a" stroke-width=".05" fill="#3a414a"/><use xlink:href="#J" transform="matrix(1,0,0,1,-965.7909768832938,856.1696558465547) translate(0 14.9853515625)"/><path d="M-604.5 1863.95a6.86 6.86 0 0 1 9 0l71 62.1a5.25 5.25 0 0 1 0 7.9l-71 62.1a6.86 6.86 0 0 1-9 0l-71-62.1a5.25 5.25 0 0 1 0-7.9z" stroke="#282c33" stroke-width="2" fill="#fff"/><use xlink:href="#N" transform="matrix(1,0,0,1,-680,1860) translate(66.66949652777777 62.25043402777778)"/><use xlink:href="#O" transform="matrix(1,0,0,1,-680,1860) translate(46.666241319444445 87.42404513888889)"/><path d="M-594.28 1851.34h2.02l-5.04 9.12-3.46-1.9 6.48-11.73zm105.82-187.63l-95 171.76v-4.5h-2.03l93.58-169.17z" stroke="#3a414a" stroke-width=".05" fill="#3a414a"/><path d="M-597.28 1860.4l-.63 1.14-.97-.2-1.13-.1-1.13.1-1.1.24-.26.1 1.76-3.18z" fill="#3a414a"/><path stroke="#3a414a" stroke-width=".05" fill="#3a414a"/><path d="M-488.5 1663.75l-3.44-1.9.46-.85h4.5z" fill="#3a414a"/><path stroke="#3a414a" stroke-width=".05" fill="#3a414a"/><use xlink:href="#I" transform="matrix(1,0,0,1,-594.2760124930005,1830.9461284496304) translate(0 14.9853515625)"/><path d="M-591.24 2116.93l-3.95.14-3.3-91.6h3.94zm-4.06-111.86h-3.95l-.17-4.67 3.94-.14z" stroke="#3a414a" stroke-width=".05" fill="#3a414a"/><path d="M-591.17 2119h-3.95l-.07-1.98 3.95-.14z" fill="#3a414a"/><path stroke="#3a414a" stroke-width=".05" fill="#3a414a"/><path d="M-595.47 2000.3l-3.95.15-.06-1.74.6-.03 1.1-.24 1.07-.4.98-.55.14-.1z" fill="#3a414a"/><path stroke="#3a414a" stroke-width=".05" fill="#3a414a"/><use xlink:href="#J" transform="matrix(1,0,0,1,-602.3084430761329,2005.0740578157295) translate(0 14.9853515625)"/><path d="M-1164.52 653.95a6.86 6.86 0 0 1 9.04 0l70.96 62.1a5.25 5.25 0 0 1 0 7.9l-70.96 62.1a6.86 6.86 0 0 1-9.04 0l-70.96-62.1a5.25 5.25 0 0 1 0-7.9z" stroke="#282c33" stroke-width="2" fill="#fff"/><use xlink:href="#K" transform="matrix(1,0,0,1,-1240,650) translate(46.66624131944444 75.37543402777777)"/><path d="M-1135.15 621.8h.1l-22.17 29.06-3.14-2.4 25.2-33.03zm594.5-779l-583.7 764.98v-6.37h-.1l580.67-761z" stroke="#3a414a" stroke-width=".05" fill="#3a414a"/><path d="M-541-157.42l-2.8-2.15 2.8-3.7z" fill="#3a414a"/><path stroke="#3a414a" stroke-width=".05" fill="#3a414a"/><path d="M-1157.2 650.82l-.56.76-1.1-.25-1.14-.08-1.13.08-1.1.25-.7.26 2.6-3.42z" fill="#3a414a"/><path stroke="#3a414a" stroke-width=".05" fill="#3a414a"/><use xlink:href="#I" transform="matrix(1,0,0,1,-1135.1508867790642,601.4113642796901) translate(0 14.9853515625)"/><path d="M-670.7 2177.48l-3.74 1.24-451.45-1359h4.1v-.2zm-457.8-1378.15h-4.1v.2l-7.9-23.82 3.74-1.24z" stroke="#3a414a" stroke-width=".05" fill="#3a414a"/><path d="M-1136.75 774.5l-3.75 1.26-.38-1.16 3.22-2.82z" fill="#3a414a"/><path stroke="#3a414a" stroke-width=".05" fill="#3a414a"/><path d="M-671.93 2183.16l-.93.3-1.6-4.78 2.53-.84z" fill="#3a414a"/><path stroke="#3a414a" stroke-width=".05" fill="#3a414a"/><use xlink:href="#J" transform="matrix(1,0,0,1,-1132.5977725437986,799.3324861374747) translate(0 14.9853515625)"/><path d="M-518.25 2242.3l79.75 68.36" stroke="#3a414a" stroke-width="4" fill="none"/><path d="M-519.5 2243.83l-3.3-2.83h5.73zM-435.1 2310.97l-3.75 1.98-.97-.82 2.57-3z" stroke="#3a414a" stroke-width=".05" fill="#3a414a"/><defs><path fill="#3a414a" d="M794-190h353V0H118v-190h395v-702H223v-190h571v892zM513-1277v-207h281v207H513" id="P"/><path fill="#3a414a" d="M802-909c-3-189-2-383-2-575h281v1248c-1 83 4 168 8 236H817c-9-50-14-117-15-176h-4C735-49 651 20 482 20 191 20 97-238 97-539c0-243 66-432 221-519 50-28 108-42 175-42 162 2 253 78 309 191zm-70 658c91-113 93-462 2-584-46-61-145-100-224-53-96 56-119 190-120 349 0 123 17 214 52 275 46 82 130 115 222 74 25-12 46-33 68-61" id="Q"/><g id="a"><use transform="matrix(0.010850694444444444,0,0,0.010850694444444444,0,0)" xlink:href="#P"/><use transform="matrix(0.010850694444444444,0,0,0.010850694444444444,13.335503472222221,0)" xlink:href="#Q"/><path fill="#3a414a" d="M-1.1 4.07h28.88V6.3h-28.9z"/></g><path fill="#3a414a" d="M1019-446c-6 296-159 466-455 466-288 0-421-169-462-422l291-43c13 79 35 137 65 176s66 58 108 58c112 0 159-101 159-228v-679H424v-231h595v903" id="R"/><path fill="#3a414a" d="M471 20c-247 0-336-169-336-415v-687h281v607c4 148 31 285 172 285 152 0 207-150 207-312v-580h281c4 359-9 736 8 1082H816c-7-63-11-146-12-215h-5C736-76 644 20 471 20" id="S"/><path fill="#3a414a" d="M1108-33c-3 314-178 467-492 467-243 0-400-94-447-291l281-33c17 79 82 141 174 141 176 0 212-155 205-347-2-40 5-80 0-115C773-85 665-12 501-12c-288 0-377-242-377-538 0-242 65-426 223-510 50-26 108-39 175-39 160 0 253 78 307 191h5c1-58 5-125 14-174h266c-12 335-3 703-6 1049zM811-384c25-82 27-259 1-342-30-99-77-180-190-180-172 0-205 171-205 356 0 116 18 202 54 258 48 76 129 107 221 70 62-25 96-86 119-162" id="T"/><path fill="#3a414a" d="M775-193C708-75 621 20 439 20 226 20 106-93 106-306c0-251 170-341 417-346l223-4c4-143-12-264-148-264-103 0-141 58-150 153l-293-14c37-219 194-321 455-321 263 0 418 130 417 390v392c1 84 5 161 89 160 21 0 42-2 62-6v152c-57 15-108 27-180 26-145 0-202-73-217-205h-6zm-256 17c168 0 234-139 227-325-166 4-347-25-347 173 0 94 33 152 120 152" id="U"/><path fill="#3a414a" d="M616-1102c361 0 521 202 521 560 0 354-171 562-527 562C259 20 92-192 92-542c0-351 169-560 524-560zm-9 930c200-2 236-165 236-370 0-199-27-367-223-367-195 0-233 146-233 367 0 129 18 223 55 282s92 88 165 88" id="V"/><path fill="#3a414a" d="M875-1102c70 0 148 7 206 17v237c-110-17-267-37-359 15-123 69-192 207-192 395V0H250c-10-367 32-789-52-1082h271c19 69 36 149 46 228h4c52-151 151-250 356-248" id="W"/><g id="b"><use transform="matrix(0.010850694444444444,0,0,0.010850694444444444,0,0)" xlink:href="#R"/><use transform="matrix(0.010850694444444444,0,0,0.010850694444444444,13.335503472222221,0)" xlink:href="#S"/><use transform="matrix(0.010850694444444444,0,0,0.010850694444444444,26.671006944444443,0)" xlink:href="#T"/><use transform="matrix(0.010850694444444444,0,0,0.010850694444444444,40.006510416666664,0)" xlink:href="#U"/><use transform="matrix(0.010850694444444444,0,0,0.010850694444444444,53.342013888888886,0)" xlink:href="#Q"/><use transform="matrix(0.010850694444444444,0,0,0.010850694444444444,66.67751736111111,0)" xlink:href="#V"/><use transform="matrix(0.010850694444444444,0,0,0.010850694444444444,80.01302083333334,0)" xlink:href="#W"/></g><path fill="#3a414a" d="M768-1103c247 0 336 167 336 416V0H824v-619c-3-164-24-273-171-273-164 0-229 142-229 312V0H143c-4-359 9-736-8-1082h268c7 63 12 146 13 215h4c67-145 160-236 348-236" id="X"/><path fill="#3a414a" d="M934-1102c199 0 220 177 220 381V0H926c-2-260 10-533-4-785-4-72-14-138-83-138-34 0-61 27-81 81s-29 134-29 241V0H501c-2-260 9-533-5-785-4-72-13-138-82-138-46 0-65 47-80 93-21 67-30 155-30 248V0H75c-3-360 6-732-6-1082h209c6 50 3 123 8 175 36-100 83-195 216-195 135 0 166 79 196 196 42-105 93-196 236-196" id="Y"/><path fill="#3a414a" d="M429-1484c1 190-1 388 0 572 54-116 155-191 317-191 300 0 386 257 386 563 0 241-73 429-226 518-49 28-106 42-169 42-162 0-251-81-306-196h-4c-1 59-5 127-15 176H140c4-67 9-153 8-236v-1248h281zm66 648c-93 114-92 466 1 585 35 45 77 79 142 79 64 0 112-31 148-92 69-115 68-440-2-561-39-68-131-111-221-70-25 11-46 32-68 59" id="Z"/><path fill="#3a414a" d="M1113-274C1038-96 884 20 626 20c-352 0-526-209-526-566 0-358 185-556 530-556 358 0 496 251 499 615H395c5 180 68 319 245 319 102 0 186-45 208-129zM857-663c-6-177-128-307-315-247-94 30-141 121-145 247h460" id="aa"/><g id="c"><use transform="matrix(0.010850694444444444,0,0,0.010850694444444444,0,0)" xlink:href="#X"/><use transform="matrix(0.010850694444444444,0,0,0.010850694444444444,13.335503472222221,0)" xlink:href="#V"/><use transform="matrix(0.010850694444444444,0,0,0.010850694444444444,26.671006944444443,0)" xlink:href="#Y"/><use transform="matrix(0.010850694444444444,0,0,0.010850694444444444,40.006510416666664,0)" xlink:href="#Z"/><use transform="matrix(0.010850694444444444,0,0,0.010850694444444444,53.342013888888886,0)" xlink:href="#W"/><use transform="matrix(0.010850694444444444,0,0,0.010850694444444444,66.67751736111111,0)" xlink:href="#aa"/></g><path fill="#3a414a" d="M1109-360C1066-122 902 20 624 20c-347 0-514-209-514-555 0-353 168-567 518-567 270 0 425 136 473 361l-283 14c-16-106-75-183-196-182-75 0-130 31-165 93s-52 152-52 270c0 249 74 374 221 374 120 0 188-82 201-201" id="ab"/><g id="d"><use transform="matrix(0.010850694444444444,0,0,0.010850694444444444,0,0)" xlink:href="#ab"/><use transform="matrix(0.010850694444444444,0,0,0.010850694444444444,13.335503472222221,0)" xlink:href="#V"/><use transform="matrix(0.010850694444444444,0,0,0.010850694444444444,26.671006944444443,0)" xlink:href="#W"/><use transform="matrix(0.010850694444444444,0,0,0.010850694444444444,40.006510416666664,0)" xlink:href="#W"/><use transform="matrix(0.010850694444444444,0,0,0.010850694444444444,53.342013888888886,0)" xlink:href="#aa"/><use transform="matrix(0.010850694444444444,0,0,0.010850694444444444,66.67751736111111,0)" xlink:href="#V"/></g><path fill="#3a414a" d="M711 13c-250 0-386-99-385-349l2-556H161v-190h181l88-282h176v282h385v190H606v530c-10 130 45 186 174 184 91-2 176-11 255-27v186C933-1 833 13 711 13" id="ac"/><path fill="#3a414a" d="M622-916c-112 2-200 14-200 111 0 90 89 101 168 121 234 58 514 77 514 368C1104-4 751 54 434 5 267-21 161-112 121-270l247-37c24 111 113 145 252 141 114-3 226-12 226-124 0-101-103-113-192-134-225-54-490-76-490-351 0-247 201-328 458-328 245 0 413 88 457 292l-249 26c-16-98-92-133-208-131" id="ad"/><g id="e"><use transform="matrix(0.010850694444444444,0,0,0.010850694444444444,0,0)" xlink:href="#ab"/><use transform="matrix(0.010850694444444444,0,0,0.010850694444444444,13.335503472222221,0)" xlink:href="#V"/><use transform="matrix(0.010850694444444444,0,0,0.010850694444444444,26.671006944444443,0)" xlink:href="#X"/><use transform="matrix(0.010850694444444444,0,0,0.010850694444444444,40.006510416666664,0)" xlink:href="#ac"/><use transform="matrix(0.010850694444444444,0,0,0.010850694444444444,53.342013888888886,0)" xlink:href="#W"/><use transform="matrix(0.010850694444444444,0,0,0.010850694444444444,66.67751736111111,0)" xlink:href="#U"/><use transform="matrix(0.010850694444444444,0,0,0.010850694444444444,80.01302083333334,0)" xlink:href="#ad"/><use transform="matrix(0.010850694444444444,0,0,0.010850694444444444,93.34852430555557,0)" xlink:href="#aa"/><use transform="matrix(0.010850694444444444,0,0,0.010850694444444444,106.6840277777778,0)" xlink:href="#X"/><use transform="matrix(0.010850694444444444,0,0,0.010850694444444444,120.01953125000003,0)" xlink:href="#U"/></g><path fill="#3a414a" d="M774 0H438L31-1082h297c94 290 200 568 280 872 83-304 194-581 291-872h294" id="ae"/><g id="f"><use transform="matrix(0.010850694444444444,0,0,0.010850694444444444,0,0)" xlink:href="#aa"/><use transform="matrix(0.010850694444444444,0,0,0.010850694444444444,13.335503472222221,0)" xlink:href="#ae"/><use transform="matrix(0.010850694444444444,0,0,0.010850694444444444,26.671006944444443,0)" xlink:href="#aa"/><use transform="matrix(0.010850694444444444,0,0,0.010850694444444444,40.006510416666664,0)" xlink:href="#X"/><use transform="matrix(0.010850694444444444,0,0,0.010850694444444444,53.342013888888886,0)" xlink:href="#ac"/><use transform="matrix(0.010850694444444444,0,0,0.010850694444444444,66.67751736111111,0)" xlink:href="#V"/></g><path fill="#3a414a" d="M844-1321c-130 0-195 53-191 182v57h443v190H653V0H373v-892H117v-190h256v-83c5-247 162-348 422-349 120-1 232 13 327 28v184c-84-10-183-19-278-19" id="af"/><g id="g"><use transform="matrix(0.010850694444444444,0,0,0.010850694444444444,0,0)" xlink:href="#P"/><use transform="matrix(0.010850694444444444,0,0,0.010850694444444444,13.335503472222221,0)" xlink:href="#Q"/><use transform="matrix(0.010850694444444444,0,0,0.010850694444444444,26.671006944444443,0)" xlink:href="#aa"/><use transform="matrix(0.010850694444444444,0,0,0.010850694444444444,40.006510416666664,0)" xlink:href="#X"/><use transform="matrix(0.010850694444444444,0,0,0.010850694444444444,53.342013888888886,0)" xlink:href="#ac"/><use transform="matrix(0.010850694444444444,0,0,0.010850694444444444,66.67751736111111,0)" xlink:href="#P"/><use transform="matrix(0.010850694444444444,0,0,0.010850694444444444,80.01302083333334,0)" xlink:href="#af"/><use transform="matrix(0.010850694444444444,0,0,0.010850694444444444,93.34852430555557,0)" xlink:href="#P"/><use transform="matrix(0.010850694444444444,0,0,0.010850694444444444,106.6840277777778,0)" xlink:href="#ab"/><use transform="matrix(0.010850694444444444,0,0,0.010850694444444444,120.01953125000003,0)" xlink:href="#U"/><use transform="matrix(0.010850694444444444,0,0,0.010850694444444444,133.35503472222226,0)" xlink:href="#Q"/><use transform="matrix(0.010850694444444444,0,0,0.010850694444444444,146.69053819444449,0)" xlink:href="#V"/><use transform="matrix(0.010850694444444444,0,0,0.010850694444444444,160.0260416666667,0)" xlink:href="#W"/></g><path fill="#3a414a" d="M427-171c3 195 2 397 2 596H148V-846c1-83-4-168-8-236h272c10 49 14 118 15 176h4c59-114 151-197 316-197 291 0 385 259 385 560 0 243-65 433-220 521-50 28-109 42-176 42-162-2-253-78-309-191zm69-661c-91 113-92 463-1 586 46 62 145 101 225 54 96-57 118-191 119-351 0-123-18-215-53-276-46-82-128-115-220-74-25 12-48 33-70 61" id="ag"/><g id="h"><use transform="matrix(0.010850694444444444,0,0,0.010850694444444444,0,0)" xlink:href="#ac"/><use transform="matrix(0.010850694444444444,0,0,0.010850694444444444,13.335503472222221,0)" xlink:href="#P"/><use transform="matrix(0.010850694444444444,0,0,0.010850694444444444,26.671006944444443,0)" xlink:href="#ag"/><use transform="matrix(0.010850694444444444,0,0,0.010850694444444444,40.006510416666664,0)" xlink:href="#V"/></g><path fill="#3a414a" d="M794-190h353V0H118v-190h395v-1104H223v-190h571v1294" id="ah"/><g id="i"><use transform="matrix(0.010850694444444444,0,0,0.010850694444444444,0,0)" xlink:href="#W"/><use transform="matrix(0.010850694444444444,0,0,0.010850694444444444,13.335503472222221,0)" xlink:href="#aa"/><use transform="matrix(0.010850694444444444,0,0,0.010850694444444444,26.671006944444443,0)" xlink:href="#ad"/><use transform="matrix(0.010850694444444444,0,0,0.010850694444444444,40.006510416666664,0)" xlink:href="#S"/><use transform="matrix(0.010850694444444444,0,0,0.010850694444444444,53.342013888888886,0)" xlink:href="#ah"/><use transform="matrix(0.010850694444444444,0,0,0.010850694444444444,66.67751736111111,0)" xlink:href="#ac"/><use transform="matrix(0.010850694444444444,0,0,0.010850694444444444,80.01302083333334,0)" xlink:href="#U"/><use transform="matrix(0.010850694444444444,0,0,0.010850694444444444,93.34852430555557,0)" xlink:href="#Q"/><use transform="matrix(0.010850694444444444,0,0,0.010850694444444444,106.6840277777778,0)" xlink:href="#V"/></g><path fill="#3a414a" d="M-5 220v-96h1238v96H-5" id="ai"/><g id="j"><use transform="matrix(0.010850694444444444,0,0,0.010850694444444444,0,0)" xlink:href="#af"/><use transform="matrix(0.010850694444444444,0,0,0.010850694444444444,13.335503472222221,0)" xlink:href="#aa"/><use transform="matrix(0.010850694444444444,0,0,0.010850694444444444,26.671006944444443,0)" xlink:href="#ab"/><use transform="matrix(0.010850694444444444,0,0,0.010850694444444444,40.006510416666664,0)" xlink:href="#ai"/><use transform="matrix(0.010850694444444444,0,0,0.010850694444444444,53.342013888888886,0)" xlink:href="#P"/><use transform="matrix(0.010850694444444444,0,0,0.010850694444444444,66.67751736111111,0)" xlink:href="#X"/><use transform="matrix(0.010850694444444444,0,0,0.010850694444444444,80.01302083333334,0)" xlink:href="#P"/><use transform="matrix(0.010850694444444444,0,0,0.010850694444444444,93.34852430555557,0)" xlink:href="#ab"/></g><g id="k"><use transform="matrix(0.010850694444444444,0,0,0.010850694444444444,0,0)" xlink:href="#P"/><use transform="matrix(0.010850694444444444,0,0,0.010850694444444444,13.335503472222221,0)" xlink:href="#Q"/><use transform="matrix(0.010850694444444444,0,0,0.010850694444444444,26.671006944444443,0)" xlink:href="#aa"/><use transform="matrix(0.010850694444444444,0,0,0.010850694444444444,40.006510416666664,0)" xlink:href="#X"/><use transform="matrix(0.010850694444444444,0,0,0.010850694444444444,53.342013888888886,0)" xlink:href="#ac"/><use transform="matrix(0.010850694444444444,0,0,0.010850694444444444,66.67751736111111,0)" xlink:href="#P"/><use transform="matrix(0.010850694444444444,0,0,0.010850694444444444,80.01302083333334,0)" xlink:href="#af"/><use transform="matrix(0.010850694444444444,0,0,0.010850694444444444,93.34852430555557,0)" xlink:href="#P"/><use transform="matrix(0.010850694444444444,0,0,0.010850694444444444,106.6840277777778,0)" xlink:href="#ab"/><use transform="matrix(0.010850694444444444,0,0,0.010850694444444444,120.01953125000003,0)" xlink:href="#U"/><use transform="matrix(0.010850694444444444,0,0,0.010850694444444444,133.35503472222226,0)" xlink:href="#ab"/><use transform="matrix(0.010850694444444444,0,0,0.010850694444444444,146.69053819444449,0)" xlink:href="#P"/><use transform="matrix(0.010850694444444444,0,0,0.010850694444444444,160.0260416666667,0)" xlink:href="#V"/><use transform="matrix(0.010850694444444444,0,0,0.010850694444444444,173.36154513888894,0)" xlink:href="#X"/></g><g id="l"><use transform="matrix(0.010850694444444444,0,0,0.010850694444444444,0,0)" xlink:href="#ad"/><use transform="matrix(0.010850694444444444,0,0,0.010850694444444444,13.335503472222221,0)" xlink:href="#U"/><use transform="matrix(0.010850694444444444,0,0,0.010850694444444444,26.671006944444443,0)" xlink:href="#ah"/><use transform="matrix(0.010850694444444444,0,0,0.010850694444444444,40.006510416666664,0)" xlink:href="#Q"/><use transform="matrix(0.010850694444444444,0,0,0.010850694444444444,53.342013888888886,0)" xlink:href="#V"/></g><g id="m"><use transform="matrix(0.010850694444444444,0,0,0.010850694444444444,0,0)" xlink:href="#af"/><use transform="matrix(0.010850694444444444,0,0,0.010850694444444444,13.335503472222221,0)" xlink:href="#aa"/><use transform="matrix(0.010850694444444444,0,0,0.010850694444444444,26.671006944444443,0)" xlink:href="#ab"/><use transform="matrix(0.010850694444444444,0,0,0.010850694444444444,40.006510416666664,0)" xlink:href="#ai"/><use transform="matrix(0.010850694444444444,0,0,0.010850694444444444,53.342013888888886,0)" xlink:href="#af"/><use transform="matrix(0.010850694444444444,0,0,0.010850694444444444,66.67751736111111,0)" xlink:href="#P"/><use transform="matrix(0.010850694444444444,0,0,0.010850694444444444,80.01302083333334,0)" xlink:href="#X"/></g><g id="n"><use transform="matrix(0.010850694444444444,0,0,0.010850694444444444,0,0)" xlink:href="#aa"/><use transform="matrix(0.010850694444444444,0,0,0.010850694444444444,13.335503472222221,0)" xlink:href="#ad"/><use transform="matrix(0.010850694444444444,0,0,0.010850694444444444,26.671006944444443,0)" xlink:href="#ac"/><use transform="matrix(0.010850694444444444,0,0,0.010850694444444444,40.006510416666664,0)" xlink:href="#U"/><use transform="matrix(0.010850694444444444,0,0,0.010850694444444444,53.342013888888886,0)" xlink:href="#Q"/><use transform="matrix(0.010850694444444444,0,0,0.010850694444444444,66.67751736111111,0)" xlink:href="#V"/></g><g id="o"><use transform="matrix(0.010850694444444444,0,0,0.010850694444444444,0,0)" xlink:href="#aa"/><use transform="matrix(0.010850694444444444,0,0,0.010850694444444444,13.335503472222221,0)" xlink:href="#ae"/><use transform="matrix(0.010850694444444444,0,0,0.010850694444444444,26.671006944444443,0)" xlink:href="#aa"/><use transform="matrix(0.010850694444444444,0,0,0.010850694444444444,40.006510416666664,0)" xlink:href="#X"/><use transform="matrix(0.010850694444444444,0,0,0.010850694444444444,53.342013888888886,0)" xlink:href="#ac"/><use transform="matrix(0.010850694444444444,0,0,0.010850694444444444,66.67751736111111,0)" xlink:href="#V"/><path fill="#3a414a" d="M-1.1 4.07h82.23V6.3H-1.1z"/></g><g id="p"><use transform="matrix(0.010850694444444444,0,0,0.010850694444444444,0,0)" xlink:href="#ae"/><use transform="matrix(0.010850694444444444,0,0,0.010850694444444444,13.335503472222221,0)" xlink:href="#U"/><use transform="matrix(0.010850694444444444,0,0,0.010850694444444444,26.671006944444443,0)" xlink:href="#ah"/><use transform="matrix(0.010850694444444444,0,0,0.010850694444444444,40.006510416666664,0)" xlink:href="#V"/><use transform="matrix(0.010850694444444444,0,0,0.010850694444444444,53.342013888888886,0)" xlink:href="#W"/></g><g id="q"><use transform="matrix(0.010850694444444444,0,0,0.010850694444444444,0,0)" xlink:href="#P"/><use transform="matrix(0.010850694444444444,0,0,0.010850694444444444,13.335503472222221,0)" xlink:href="#Q"/><use transform="matrix(0.010850694444444444,0,0,0.010850694444444444,26.671006944444443,0)" xlink:href="#ai"/><use transform="matrix(0.010850694444444444,0,0,0.010850694444444444,40.006510416666664,0)" xlink:href="#W"/><use transform="matrix(0.010850694444444444,0,0,0.010850694444444444,53.342013888888886,0)" xlink:href="#aa"/><use transform="matrix(0.010850694444444444,0,0,0.010850694444444444,66.67751736111111,0)" xlink:href="#ad"/><use transform="matrix(0.010850694444444444,0,0,0.010850694444444444,80.01302083333334,0)" xlink:href="#S"/><use transform="matrix(0.010850694444444444,0,0,0.010850694444444444,93.34852430555557,0)" xlink:href="#ah"/><use transform="matrix(0.010850694444444444,0,0,0.010850694444444444,106.6840277777778,0)" xlink:href="#ac"/><use transform="matrix(0.010850694444444444,0,0,0.010850694444444444,120.01953125000003,0)" xlink:href="#U"/><use transform="matrix(0.010850694444444444,0,0,0.010850694444444444,133.35503472222226,0)" xlink:href="#Q"/><use transform="matrix(0.010850694444444444,0,0,0.010850694444444444,146.69053819444449,0)" xlink:href="#V"/><path fill="#3a414a" d="M-1.1 4.07h162.24V6.3H-1.1z"/></g><g id="r"><use transform="matrix(0.010850694444444444,0,0,0.010850694444444444,0,0)" xlink:href="#Q"/><use transform="matrix(0.010850694444444444,0,0,0.010850694444444444,13.335503472222221,0)" xlink:href="#aa"/><use transform="matrix(0.010850694444444444,0,0,0.010850694444444444,26.671006944444443,0)" xlink:href="#ad"/><use transform="matrix(0.010850694444444444,0,0,0.010850694444444444,40.006510416666664,0)" xlink:href="#ab"/><use transform="matrix(0.010850694444444444,0,0,0.010850694444444444,53.342013888888886,0)" xlink:href="#W"/><use transform="matrix(0.010850694444444444,0,0,0.010850694444444444,66.67751736111111,0)" xlink:href="#P"/><use transform="matrix(0.010850694444444444,0,0,0.010850694444444444,80.01302083333334,0)" xlink:href="#ag"/><use transform="matrix(0.010850694444444444,0,0,0.010850694444444444,93.34852430555557,0)" xlink:href="#ab"/><use transform="matrix(0.010850694444444444,0,0,0.010850694444444444,106.6840277777778,0)" xlink:href="#P"/><use transform="matrix(0.010850694444444444,0,0,0.010850694444444444,120.01953125000003,0)" xlink:href="#V"/><use transform="matrix(0.010850694444444444,0,0,0.010850694444444444,133.35503472222226,0)" xlink:href="#X"/></g><g id="s"><use transform="matrix(0.010850694444444444,0,0,0.010850694444444444,0,0)" xlink:href="#U"/><use transform="matrix(0.010850694444444444,0,0,0.010850694444444444,13.335503472222221,0)" xlink:href="#ag"/><use transform="matrix(0.010850694444444444,0,0,0.010850694444444444,26.671006944444443,0)" xlink:href="#S"/><use transform="matrix(0.010850694444444444,0,0,0.010850694444444444,40.006510416666664,0)" xlink:href="#aa"/><use transform="matrix(0.010850694444444444,0,0,0.010850694444444444,53.342013888888886,0)" xlink:href="#ad"/><use transform="matrix(0.010850694444444444,0,0,0.010850694444444444,66.67751736111111,0)" xlink:href="#ac"/><use transform="matrix(0.010850694444444444,0,0,0.010850694444444444,80.01302083333334,0)" xlink:href="#U"/></g><g id="t"><use transform="matrix(0.010850694444444444,0,0,0.010850694444444444,0,0)" xlink:href="#P"/><use transform="matrix(0.010850694444444444,0,0,0.010850694444444444,13.335503472222221,0)" xlink:href="#Q"/><use transform="matrix(0.010850694444444444,0,0,0.010850694444444444,26.671006944444443,0)" xlink:href="#ai"/><use transform="matrix(0.010850694444444444,0,0,0.010850694444444444,40.006510416666664,0)" xlink:href="#U"/><use transform="matrix(0.010850694444444444,0,0,0.010850694444444444,53.342013888888886,0)" xlink:href="#ag"/><use transform="matrix(0.010850694444444444,0,0,0.010850694444444444,66.67751736111111,0)" xlink:href="#S"/><use transform="matrix(0.010850694444444444,0,0,0.010850694444444444,80.01302083333334,0)" xlink:href="#aa"/><use transform="matrix(0.010850694444444444,0,0,0.010850694444444444,93.34852430555557,0)" xlink:href="#ad"/><use transform="matrix(0.010850694444444444,0,0,0.010850694444444444,106.6840277777778,0)" xlink:href="#ac"/><use transform="matrix(0.010850694444444444,0,0,0.010850694444444444,120.01953125000003,0)" xlink:href="#U"/><path fill="#3a414a" d="M-1.1 4.07h135.57V6.3H-1.1z"/></g><g id="u"><use transform="matrix(0.010850694444444444,0,0,0.010850694444444444,0,0)" xlink:href="#Y"/><use transform="matrix(0.010850694444444444,0,0,0.010850694444444444,13.335503472222221,0)" xlink:href="#V"/><use transform="matrix(0.010850694444444444,0,0,0.010850694444444444,26.671006944444443,0)" xlink:href="#X"/><use transform="matrix(0.010850694444444444,0,0,0.010850694444444444,40.006510416666664,0)" xlink:href="#ac"/><use transform="matrix(0.010850694444444444,0,0,0.010850694444444444,53.342013888888886,0)" xlink:href="#V"/></g><path fill="#3a414a" d="M424-1484c-2 206 5 424-8 618h4c67-145 160-234 348-236 251-3 335 167 336 416V0H824v-621c0-150-23-276-173-270-163 7-227 142-227 312V0H143v-1484h281" id="aj"/><g id="v"><use transform="matrix(0.010850694444444444,0,0,0.010850694444444444,0,0)" xlink:href="#af"/><use transform="matrix(0.010850694444444444,0,0,0.010850694444444444,13.335503472222221,0)" xlink:href="#aa"/><use transform="matrix(0.010850694444444444,0,0,0.010850694444444444,26.671006944444443,0)" xlink:href="#ab"/><use transform="matrix(0.010850694444444444,0,0,0.010850694444444444,40.006510416666664,0)" xlink:href="#aj"/><use transform="matrix(0.010850694444444444,0,0,0.010850694444444444,53.342013888888886,0)" xlink:href="#U"/></g><path fill="#3a414a" d="M380 206c143 0 202-71 202-216v-882H228v-190h636V13c-6 279-184 412-459 412-107 0-208-16-288-43V172c69 16 169 34 263 34zm203-1483v-207h281v207H583" id="ak"/><g id="w"><use transform="matrix(0.010850694444444444,0,0,0.010850694444444444,0,0)" xlink:href="#ak"/><use transform="matrix(0.010850694444444444,0,0,0.010850694444444444,13.335503472222221,0)" xlink:href="#S"/><use transform="matrix(0.010850694444444444,0,0,0.010850694444444444,26.671006944444443,0)" xlink:href="#T"/><use transform="matrix(0.010850694444444444,0,0,0.010850694444444444,40.006510416666664,0)" xlink:href="#U"/><use transform="matrix(0.010850694444444444,0,0,0.010850694444444444,53.342013888888886,0)" xlink:href="#Q"/><use transform="matrix(0.010850694444444444,0,0,0.010850694444444444,66.67751736111111,0)" xlink:href="#V"/><use transform="matrix(0.010850694444444444,0,0,0.010850694444444444,80.01302083333334,0)" xlink:href="#W"/></g><g id="x"><use transform="matrix(0.010850694444444444,0,0,0.010850694444444444,0,0)" xlink:href="#Y"/><use transform="matrix(0.010850694444444444,0,0,0.010850694444444444,13.335503472222221,0)" xlink:href="#aa"/><use transform="matrix(0.010850694444444444,0,0,0.010850694444444444,26.671006944444443,0)" xlink:href="#ac"/><use transform="matrix(0.010850694444444444,0,0,0.010850694444444444,40.006510416666664,0)" xlink:href="#V"/><use transform="matrix(0.010850694444444444,0,0,0.010850694444444444,53.342013888888886,0)" xlink:href="#Q"/><use transform="matrix(0.010850694444444444,0,0,0.010850694444444444,66.67751736111111,0)" xlink:href="#V"/><use transform="matrix(0.010850694444444444,0,0,0.010850694444444444,80.01302083333334,0)" xlink:href="#ai"/><use transform="matrix(0.010850694444444444,0,0,0.010850694444444444,93.34852430555557,0)" xlink:href="#ag"/><use transform="matrix(0.010850694444444444,0,0,0.010850694444444444,106.6840277777778,0)" xlink:href="#U"/><use transform="matrix(0.010850694444444444,0,0,0.010850694444444444,120.01953125000003,0)" xlink:href="#T"/><use transform="matrix(0.010850694444444444,0,0,0.010850694444444444,133.35503472222226,0)" xlink:href="#V"/></g><g id="y"><use transform="matrix(0.010850694444444444,0,0,0.010850694444444444,0,0)" xlink:href="#ac"/><use transform="matrix(0.010850694444444444,0,0,0.010850694444444444,13.335503472222221,0)" xlink:href="#U"/><use transform="matrix(0.010850694444444444,0,0,0.010850694444444444,26.671006944444443,0)" xlink:href="#W"/><use transform="matrix(0.010850694444444444,0,0,0.010850694444444444,40.006510416666664,0)" xlink:href="#ak"/><use transform="matrix(0.010850694444444444,0,0,0.010850694444444444,53.342013888888886,0)" xlink:href="#aa"/><use transform="matrix(0.010850694444444444,0,0,0.010850694444444444,66.67751736111111,0)" xlink:href="#ac"/><use transform="matrix(0.010850694444444444,0,0,0.010850694444444444,80.01302083333334,0)" xlink:href="#U"/></g><g id="z"><use transform="matrix(0.010850694444444444,0,0,0.010850694444444444,0,0)" xlink:href="#X"/><use transform="matrix(0.010850694444444444,0,0,0.010850694444444444,13.335503472222221,0)" xlink:href="#S"/><use transform="matrix(0.010850694444444444,0,0,0.010850694444444444,26.671006944444443,0)" xlink:href="#Y"/><use transform="matrix(0.010850694444444444,0,0,0.010850694444444444,40.006510416666664,0)" xlink:href="#aa"/><use transform="matrix(0.010850694444444444,0,0,0.010850694444444444,53.342013888888886,0)" xlink:href="#W"/><use transform="matrix(0.010850694444444444,0,0,0.010850694444444444,66.67751736111111,0)" xlink:href="#V"/><path fill="#3a414a" d="M-1.1 4.07h82.23V6.3H-1.1z"/></g><g id="A"><use transform="matrix(0.010850694444444444,0,0,0.010850694444444444,0,0)" xlink:href="#ab"/><use transform="matrix(0.010850694444444444,0,0,0.010850694444444444,13.335503472222221,0)" xlink:href="#ae"/><use transform="matrix(0.010850694444444444,0,0,0.010850694444444444,26.671006944444443,0)" xlink:href="#ae"/></g><g id="B"><use transform="matrix(0.010850694444444444,0,0,0.010850694444444444,0,0)" xlink:href="#af"/><use transform="matrix(0.010850694444444444,0,0,0.010850694444444444,13.335503472222221,0)" xlink:href="#aa"/><use transform="matrix(0.010850694444444444,0,0,0.010850694444444444,26.671006944444443,0)" xlink:href="#ab"/><use transform="matrix(0.010850694444444444,0,0,0.010850694444444444,40.006510416666664,0)" xlink:href="#ai"/><use transform="matrix(0.010850694444444444,0,0,0.010850694444444444,53.342013888888886,0)" xlink:href="#ae"/><use transform="matrix(0.010850694444444444,0,0,0.010850694444444444,66.67751736111111,0)" xlink:href="#aa"/><use transform="matrix(0.010850694444444444,0,0,0.010850694444444444,80.01302083333334,0)" xlink:href="#X"/><use transform="matrix(0.010850694444444444,0,0,0.010850694444444444,93.34852430555557,0)" xlink:href="#ab"/></g><g id="C"><use transform="matrix(0.010850694444444444,0,0,0.010850694444444444,0,0)" xlink:href="#Y"/><use transform="matrix(0.010850694444444444,0,0,0.010850694444444444,13.335503472222221,0)" xlink:href="#V"/><use transform="matrix(0.010850694444444444,0,0,0.010850694444444444,26.671006944444443,0)" xlink:href="#Y"/><use transform="matrix(0.010850694444444444,0,0,0.010850694444444444,40.006510416666664,0)" xlink:href="#P"/><use transform="matrix(0.010850694444444444,0,0,0.010850694444444444,53.342013888888886,0)" xlink:href="#V"/></g><g id="D"><use transform="matrix(0.010850694444444444,0,0,0.010850694444444444,0,0)" xlink:href="#U"/><use transform="matrix(0.010850694444444444,0,0,0.010850694444444444,13.335503472222221,0)" xlink:href="#ag"/><use transform="matrix(0.010850694444444444,0,0,0.010850694444444444,26.671006944444443,0)" xlink:href="#S"/><use transform="matrix(0.010850694444444444,0,0,0.010850694444444444,40.006510416666664,0)" xlink:href="#aa"/><use transform="matrix(0.010850694444444444,0,0,0.010850694444444444,53.342013888888886,0)" xlink:href="#ad"/><use transform="matrix(0.010850694444444444,0,0,0.010850694444444444,66.67751736111111,0)" xlink:href="#ac"/><use transform="matrix(0.010850694444444444,0,0,0.010850694444444444,80.01302083333334,0)" xlink:href="#U"/><path fill="#3a414a" d="M-1.1 4.07h95.56V6.3H-1.1z"/></g><g id="E"><use transform="matrix(0.010850694444444444,0,0,0.010850694444444444,0,0)" xlink:href="#ag"/><use transform="matrix(0.010850694444444444,0,0,0.010850694444444444,13.335503472222221,0)" xlink:href="#U"/><use transform="matrix(0.010850694444444444,0,0,0.010850694444444444,26.671006944444443,0)" xlink:href="#T"/><use transform="matrix(0.010850694444444444,0,0,0.010850694444444444,40.006510416666664,0)" xlink:href="#V"/><use transform="matrix(0.010850694444444444,0,0,0.010850694444444444,53.342013888888886,0)" xlink:href="#ad"/></g><g id="F"><use transform="matrix(0.010850694444444444,0,0,0.010850694444444444,0,0)" xlink:href="#P"/><use transform="matrix(0.010850694444444444,0,0,0.010850694444444444,13.335503472222221,0)" xlink:href="#Q"/></g><g id="G"><use transform="matrix(0.010850694444444444,0,0,0.010850694444444444,0,0)" xlink:href="#Y"/><use transform="matrix(0.010850694444444444,0,0,0.010850694444444444,13.335503472222221,0)" xlink:href="#aa"/><use transform="matrix(0.010850694444444444,0,0,0.010850694444444444,26.671006944444443,0)" xlink:href="#ac"/><use transform="matrix(0.010850694444444444,0,0,0.010850694444444444,40.006510416666664,0)" xlink:href="#V"/><use transform="matrix(0.010850694444444444,0,0,0.010850694444444444,53.342013888888886,0)" xlink:href="#Q"/><use transform="matrix(0.010850694444444444,0,0,0.010850694444444444,66.67751736111111,0)" xlink:href="#V"/></g><path fill="#3a414a" d="M138 0v-199l570-680H179v-203h849v201L461-205h616V0H138" id="al"/><g id="H"><use transform="matrix(0.010850694444444444,0,0,0.010850694444444444,0,0)" xlink:href="#W"/><use transform="matrix(0.010850694444444444,0,0,0.010850694444444444,13.335503472222221,0)" xlink:href="#aa"/><use transform="matrix(0.010850694444444444,0,0,0.010850694444444444,26.671006944444443,0)" xlink:href="#U"/><use transform="matrix(0.010850694444444444,0,0,0.010850694444444444,40.006510416666664,0)" xlink:href="#ah"/><use transform="matrix(0.010850694444444444,0,0,0.010850694444444444,53.342013888888886,0)" xlink:href="#P"/><use transform="matrix(0.010850694444444444,0,0,0.010850694444444444,66.67751736111111,0)" xlink:href="#al"/><use transform="matrix(0.010850694444444444,0,0,0.010850694444444444,80.01302083333334,0)" xlink:href="#U"/></g><path d="M148-1120c216-7 379-89 463-229h166v1204h353V0H157v-145h439v-1021c-79 124-254 184-448 194v-148" id="am"/><use transform="matrix(0.0087890625,0,0,0.0087890625,0,0)" xlink:href="#am" id="I"/><path d="M706-1102c241 0 344 136 343 381V0H868v-695c1-168-57-273-220-268-190 6-283 138-283 336V0H185c-3-360 6-732-6-1082h170c4 54 7 126 8 185h3c63-121 164-204 346-205" id="an"/><use transform="matrix(0.0087890625,0,0,0.0087890625,0,0)" xlink:href="#an" id="J"/><g id="K"><use transform="matrix(0.010850694444444444,0,0,0.010850694444444444,0,0)" xlink:href="#ac"/><use transform="matrix(0.010850694444444444,0,0,0.010850694444444444,13.335503472222221,0)" xlink:href="#P"/><use transform="matrix(0.010850694444444444,0,0,0.010850694444444444,26.671006944444443,0)" xlink:href="#aa"/><use transform="matrix(0.010850694444444444,0,0,0.010850694444444444,40.006510416666664,0)" xlink:href="#X"/><use transform="matrix(0.010850694444444444,0,0,0.010850694444444444,53.342013888888886,0)" xlink:href="#aa"/></g><g id="L"><use transform="matrix(0.010850694444444444,0,0,0.010850694444444444,0,0)" xlink:href="#ag"/><use transform="matrix(0.010850694444444444,0,0,0.010850694444444444,13.335503472222221,0)" xlink:href="#W"/><use transform="matrix(0.010850694444444444,0,0,0.010850694444444444,26.671006944444443,0)" xlink:href="#aa"/><use transform="matrix(0.010850694444444444,0,0,0.010850694444444444,40.006510416666664,0)" xlink:href="#Q"/><use transform="matrix(0.010850694444444444,0,0,0.010850694444444444,53.342013888888886,0)" xlink:href="#P"/><use transform="matrix(0.010850694444444444,0,0,0.010850694444444444,66.67751736111111,0)" xlink:href="#ab"/><use transform="matrix(0.010850694444444444,0,0,0.010850694444444444,80.01302083333334,0)" xlink:href="#ab"/><use transform="matrix(0.010850694444444444,0,0,0.010850694444444444,93.34852430555557,0)" xlink:href="#P"/><use transform="matrix(0.010850694444444444,0,0,0.010850694444444444,106.6840277777778,0)" xlink:href="#V"/><use transform="matrix(0.010850694444444444,0,0,0.010850694444444444,120.01953125000003,0)" xlink:href="#X"/></g><g id="M"><use transform="matrix(0.010850694444444444,0,0,0.010850694444444444,0,0)" xlink:href="#W"/><use transform="matrix(0.010850694444444444,0,0,0.010850694444444444,13.335503472222221,0)" xlink:href="#aa"/><use transform="matrix(0.010850694444444444,0,0,0.010850694444444444,26.671006944444443,0)" xlink:href="#ah"/><use transform="matrix(0.010850694444444444,0,0,0.010850694444444444,40.006510416666664,0)" xlink:href="#U"/><use transform="matrix(0.010850694444444444,0,0,0.010850694444444444,53.342013888888886,0)" xlink:href="#ab"/><use transform="matrix(0.010850694444444444,0,0,0.010850694444444444,66.67751736111111,0)" xlink:href="#P"/><use transform="matrix(0.010850694444444444,0,0,0.010850694444444444,80.01302083333334,0)" xlink:href="#V"/><use transform="matrix(0.010850694444444444,0,0,0.010850694444444444,93.34852430555557,0)" xlink:href="#X"/><use transform="matrix(0.010850694444444444,0,0,0.010850694444444444,106.6840277777778,0)" xlink:href="#U"/><use transform="matrix(0.010850694444444444,0,0,0.010850694444444444,120.01953125000003,0)" xlink:href="#Q"/><use transform="matrix(0.010850694444444444,0,0,0.010850694444444444,133.35503472222226,0)" xlink:href="#U"/></g><g id="N"><use transform="matrix(0.010850694444444444,0,0,0.010850694444444444,0,0)" xlink:href="#aa"/><use transform="matrix(0.010850694444444444,0,0,0.010850694444444444,13.335503472222221,0)" xlink:href="#ad"/></g><g id="O"><use transform="matrix(0.010850694444444444,0,0,0.010850694444444444,0,0)" xlink:href="#S"/><use transform="matrix(0.010850694444444444,0,0,0.010850694444444444,13.335503472222221,0)" xlink:href="#ad"/><use transform="matrix(0.010850694444444444,0,0,0.010850694444444444,26.671006944444443,0)" xlink:href="#U"/><use transform="matrix(0.010850694444444444,0,0,0.010850694444444444,40.006510416666664,0)" xlink:href="#Q"/><use transform="matrix(0.010850694444444444,0,0,0.010850694444444444,53.342013888888886,0)" xlink:href="#V"/></g></defs></g></svg>